<svg width="147" height="70" viewBox="0 0 147 70" fill="none" xmlns="http://www.w3.org/2000/svg">
<path fill-rule="evenodd" clip-rule="evenodd" d="M4.19398 65.6497C4.38831 65.9673 4.65307 66.3677 4.78232 66.5394L5.01726 66.8516L5.19581 66.1246C5.29404 65.7247 5.51274 65.1158 5.68188 64.7713C6.31826 63.4752 6.98975 62.966 9.74768 61.6877C11.7151 60.7759 11.9146 60.6608 12.1329 60.3123C12.4297 59.8382 12.4826 59.2894 12.2791 58.7967C12.1619 58.5131 11.9672 58.34 11.5029 58.1066C10.6538 57.68 10.5223 57.4646 10.4629 56.4039C10.4069 55.4042 10.4313 55.4347 9.38338 55.0553C8.1806 54.6198 8.06242 54.2701 8.50789 52.4647C8.79128 51.3162 8.73073 51.2829 7.71418 52.0288L7.05381 52.5133L6.23921 52.5058C5.16186 52.4959 4.38319 52.8148 3.78647 53.5103C2.115 55.4585 1.94437 59.9069 3.39003 63.8449C3.63785 64.5199 3.9996 65.3321 4.19398 65.6497Z" fill="url(#paint0_linear_3082_5855)"/>
<path d="M5.18237 52.05C5.40525 51.7004 5.62999 51.3722 5.81718 51.1297C6.98795 49.613 8.60291 48.3161 10.1962 47.613C10.9783 47.2679 12.6223 46.9169 13.4199 46.9249C16.4391 47.5098 16.8602 50.066 16.8617 50.0752C16.9098 50.8985 16.8481 51.718 16.6838 52.3617C16.4158 53.4118 15.6391 54.892 14.8621 55.8334C14.1921 56.6452 13.3856 57.4158 12.4673 58.1264C12.4462 58.1035 12.4241 58.0807 12.4009 58.0581C12.2524 57.9127 12.0472 57.7747 11.7493 57.6147C11.448 57.4533 11.265 57.357 11.1708 57.1762C11.0765 56.995 11.0737 56.7528 11.0594 56.3701C11.0305 55.6008 10.9342 55.2767 10.7079 55.0346C10.532 54.8464 10.2209 54.6976 9.5979 54.4609C9.40459 54.3886 9.24507 54.3203 9.11691 54.2448C9.03723 54.1979 8.9742 54.1558 8.94368 54.0867C8.89614 53.9789 8.90782 53.8425 8.92687 53.6614C8.9557 53.3865 9.02653 53.047 9.13075 52.6184C9.21691 52.256 9.27155 51.9903 9.28427 51.8143C9.29976 51.6011 9.26759 51.446 9.22331 51.3424C9.10522 51.066 8.90853 50.9208 8.62621 50.8965C8.52692 50.888 8.40214 50.8936 8.25571 50.9478C8.07967 51.0131 7.7822 51.2028 7.34941 51.5303L6.84674 51.9173L6.24443 51.9256C5.85762 51.931 5.5048 51.9712 5.18237 52.05ZM38.7896 22.4134C37.1234 24.6341 35.5991 26.4588 32.6908 29.7989C29.9499 32.9468 29.5637 33.3895 28.3018 34.8305C21.375 42.7403 18.1777 46.6086 17.0414 48.4593C16.6791 47.478 14.8206 46.0917 14.4217 46.4773C15.7898 44.9475 18.5028 41.1833 23.6722 33.6428C24.6446 32.2243 25.7636 30.5936 26.1589 30.0189C26.5542 29.4442 27.3514 28.2853 27.9303 27.4436C29.654 24.9376 30.1062 24.2865 30.9799 23.0588C32.9579 22.8822 35.2987 22.6884 38.0562 22.4713L38.7896 22.4134ZM36.7429 15.6069C37.2803 14.9592 37.8653 14.2605 38.5119 13.4933C41.0467 10.4855 45.0773 5.9658 46.36 4.69262C46.5311 4.52275 46.9677 4.08002 47.3302 3.70873C48.708 2.2972 50.4757 0.746771 51.2201 0.296963C51.6053 0.0642018 52.0423 -0.0586948 52.1778 0.0276859C52.4188 0.181344 52.3479 0.901049 52.0072 1.75932C51.1391 3.94613 48.3522 8.59634 44.6959 14.0327C41.3336 14.694 40.7122 14.817 38.9674 15.1653C38.1958 15.3193 37.4547 15.4665 36.7429 15.6069Z" fill="white"/>
<path fill-rule="evenodd" clip-rule="evenodd" d="M0.533075 21.4082C0.379216 21.0691 0.19632 20.6252 0.12664 20.4218L0 20.0521L0.701514 20.3114C1.08738 20.454 1.71376 20.6138 2.09351 20.6666C3.5224 20.8651 4.31999 20.5937 6.92286 19.023C8.7797 17.9025 8.98668 17.8015 9.39733 17.8159C9.95585 17.8354 10.4396 18.099 10.7332 18.5438C10.9022 18.7999 10.9363 19.0584 10.8692 19.5741C10.7465 20.5172 10.851 20.747 11.6953 21.3906C12.491 21.9971 12.4795 21.9598 12.2062 23.0414C11.8926 24.2827 12.1157 24.5766 13.859 25.2188C14.968 25.6274 14.9616 25.6962 13.7749 26.1212L13.004 26.3973L12.5538 27.077C11.9584 27.9759 11.2582 28.4429 10.3484 28.548C7.80001 28.8423 4.02396 26.4913 1.57585 23.0861C1.15619 22.5024 0.686934 21.7473 0.533075 21.4082Z" fill="url(#paint1_linear_3082_5855)"/>
<path d="M52.6763 66.2793C52.6213 66.2793 52.562 66.2751 52.4985 66.2666C52.4097 66.2539 52.3145 66.2476 52.2129 66.2476C51.7812 66.2349 51.5443 66 51.502 65.543C51.4766 65.2933 51.3602 65.069 51.1528 64.8701C50.9455 64.667 50.7212 64.5591 50.48 64.5464C50.3107 64.5464 50.0801 64.612 49.7881 64.7432C49.5299 64.8574 49.4009 65.0436 49.4009 65.3018C49.4009 65.3356 49.4051 65.3674 49.4136 65.397C49.4474 65.4985 49.4644 65.5874 49.4644 65.6636C49.4644 65.8963 49.3099 66.0339 49.001 66.0762C48.8656 66.0762 48.7238 66.0931 48.5757 66.127C48.4657 66.1185 48.3577 66.1143 48.252 66.1143C48.0827 66.1143 47.8584 66.1227 47.5791 66.1396L47.1665 66.146C47.0184 66.146 46.9168 66.1418 46.8618 66.1333C46.5487 66.1037 46.3498 66.0889 46.2651 66.0889C46.1297 66.0889 45.9901 66.0529 45.8462 65.981C45.6134 65.8709 45.4653 65.7059 45.4019 65.4858C45.3934 65.4435 45.3892 65.4012 45.3892 65.3589C45.3892 65.2996 45.3976 65.2404 45.4146 65.1812C45.4146 65.1092 45.495 64.7939 45.6558 64.2354C45.6981 64.1126 45.7446 63.9941 45.7954 63.8799C45.8589 63.736 45.9139 63.5879 45.9604 63.4355C46.0535 63.0716 46.1424 62.7077 46.2271 62.3438C46.3159 61.9587 46.4111 61.5736 46.5127 61.1885C46.5635 61.0192 46.6248 60.8542 46.6968 60.6934C46.8068 60.4352 46.8766 60.2215 46.9062 60.0522C46.9359 59.9041 47.0776 59.4471 47.3315 58.6812C47.6955 57.5682 47.9727 56.6711 48.1631 55.9897C48.2562 55.6004 48.527 55.3677 48.9756 55.2915C49.0518 55.2915 49.1745 55.3 49.3438 55.3169L49.9277 55.3296L50.3022 55.3232C50.3826 55.3232 50.4567 55.3211 50.5244 55.3169C50.5964 55.3084 50.6535 55.3042 50.6958 55.3042L50.8228 55.3105C50.8778 55.3105 51.0153 55.3063 51.2354 55.2979C51.4554 55.2894 51.6479 55.2852 51.813 55.2852C52.2827 55.2852 52.5916 55.5539 52.7397 56.0913C52.8117 56.3537 52.9027 56.6118 53.0127 56.8657C53.1523 57.1789 53.2814 57.5576 53.3999 58.002C53.4718 58.2643 53.5522 58.5225 53.6411 58.7764C53.7215 59.0133 53.7829 59.2524 53.8252 59.4937C53.8717 59.7729 53.9437 60.0332 54.041 60.2744C54.1383 60.5114 54.2124 60.7484 54.2632 60.9854C54.314 61.2181 54.3838 61.4424 54.4727 61.6582C54.5065 61.7513 54.5234 61.8529 54.5234 61.9629C54.5277 62.0729 54.5382 62.1702 54.5552 62.2549C54.606 62.4284 54.661 62.5998 54.7202 62.769C54.8133 63.0187 54.8704 63.2091 54.8916 63.3403C54.8958 63.3911 54.9085 63.4546 54.9297 63.5308C54.9932 63.8524 55.0461 64.1613 55.0884 64.4575C55.1307 64.7537 55.2471 65.0627 55.4375 65.3843C55.4629 65.4393 55.4756 65.4943 55.4756 65.5493C55.4756 65.6974 55.3634 65.8477 55.1392 66C54.9741 66.1312 54.8324 66.1968 54.7139 66.1968C54.6292 66.1968 54.4346 66.2052 54.1299 66.2222C53.8252 66.2433 53.5903 66.2539 53.4253 66.2539C53.2856 66.2539 53.1735 66.256 53.0889 66.2603C52.9281 66.2729 52.7905 66.2793 52.6763 66.2793ZM51.0703 61.1567C51.2227 61.1567 51.2988 61.0911 51.2988 60.96C51.2988 60.9303 51.2946 60.9092 51.2861 60.8965L51.1147 59.9507L51.0132 59.7539C50.9412 59.5846 50.8439 59.445 50.7212 59.335C50.6746 59.3011 50.6323 59.2842 50.5942 59.2842C50.5181 59.2842 50.4059 59.3286 50.2578 59.4175C50.2282 59.4513 50.1986 59.481 50.1689 59.5063C50.1605 59.5148 50.152 59.5254 50.1436 59.5381C50.1351 59.5508 50.1224 59.5614 50.1055 59.5698C50.0124 59.6841 49.9658 59.7645 49.9658 59.811L49.877 60.0586C49.877 60.1475 49.8368 60.3252 49.7563 60.5918C49.7098 60.6383 49.6802 60.7907 49.6675 61.0488C49.7987 61.0658 49.9277 61.0742 50.0547 61.0742L50.353 61.0615C50.4631 61.0615 50.5456 61.0742 50.6006 61.0996C50.7402 61.0996 50.8735 61.1123 51.0005 61.1377C51.0174 61.1504 51.0407 61.1567 51.0703 61.1567ZM64.9336 55.2534C65.0013 55.2534 65.0669 55.264 65.1304 55.2852C65.3462 55.2852 65.5557 55.3656 65.7588 55.5264C65.9619 55.6829 66.0846 55.9305 66.127 56.269C66.1566 56.4383 66.2031 56.6012 66.2666 56.7578C66.7109 57.9596 66.9331 58.5923 66.9331 58.6558C66.95 58.7996 67.0579 59.117 67.2568 59.6079C67.4388 60.0184 67.5975 60.4437 67.7329 60.8838C67.7964 61.0911 67.862 61.2922 67.9297 61.4868C68.0016 61.6772 68.0566 61.8698 68.0947 62.0645C68.1455 62.3861 68.2555 62.695 68.4248 62.9912C68.5645 63.2282 68.6639 63.4927 68.7231 63.7847L68.8057 64.1021C68.8564 64.2248 68.9368 64.4237 69.0469 64.6987C69.1611 64.9738 69.2183 65.1663 69.2183 65.2764C69.2183 65.3949 69.1654 65.5155 69.0596 65.6382C68.8734 65.8328 68.6576 65.9302 68.4121 65.9302C68.3359 65.9302 68.0397 65.9556 67.5234 66.0063C67.0072 66.0571 66.6432 66.0846 66.4316 66.0889C66.1735 66.0889 65.9175 66.11 65.6636 66.1523L65.5747 66.1587C65.4562 66.1587 65.3398 66.1185 65.2256 66.0381C65.1113 65.9577 65.0309 65.854 64.9844 65.7271L64.7241 64.7114L64.6733 64.2988C64.5972 64.1084 64.5527 63.9688 64.54 63.8799C64.43 63.5075 64.375 63.0822 64.375 62.604C64.3665 62.3205 64.2459 62.1618 64.0132 62.1279C63.827 62.1279 63.7233 62.2612 63.7021 62.5278L63.6514 63.0103C63.6387 63.2642 63.5837 63.516 63.4863 63.7656C63.3678 64.0576 63.2345 64.4575 63.0864 64.9653C62.9383 65.4731 62.7161 65.7948 62.4199 65.9302C62.2676 66.0021 62.111 66.0381 61.9502 66.0381C61.7936 66.0381 61.5334 66.0487 61.1694 66.0698C60.8097 66.091 60.522 66.1058 60.3062 66.1143C60.12 66.1058 59.9359 66.0804 59.7539 66.0381C59.6058 66 59.4598 65.9746 59.3159 65.9619C59.0874 65.9365 58.9181 65.8307 58.8081 65.6445C58.7573 65.5557 58.7319 65.4626 58.7319 65.3652C58.7319 65.2552 58.7637 65.1388 58.8271 65.0161C58.8864 64.9146 58.9478 64.7135 59.0112 64.4131C59.0578 64.1888 59.117 63.9709 59.189 63.7593C59.2948 63.4757 59.4069 63.1943 59.5254 62.915C59.6566 62.6146 59.8385 62.1449 60.0713 61.5059C60.376 60.7314 60.6468 59.9443 60.8838 59.1445C60.9938 58.7764 61.125 58.4188 61.2773 58.0718C61.4297 57.7205 61.5609 57.3672 61.6709 57.0117C61.7386 56.7832 61.874 56.4066 62.0771 55.8818C62.1195 55.7337 62.1681 55.6152 62.2231 55.5264C62.2824 55.4333 62.3755 55.3719 62.5024 55.3423C62.6886 55.3084 62.877 55.2915 63.0674 55.2915C63.224 55.2915 63.7254 55.3 64.5718 55.3169C64.6183 55.3169 64.6755 55.3063 64.7432 55.2852C64.8109 55.264 64.8743 55.2534 64.9336 55.2534ZM77.5718 63.0928C77.7622 63.0843 77.9484 63.0737 78.1304 63.061C78.3166 63.0483 78.4858 62.9849 78.6382 62.8706C78.8159 62.7352 78.9132 62.585 78.9302 62.4199C78.9302 62.2972 78.8604 62.1618 78.7207 62.0137C78.5811 61.8656 78.3462 61.7915 78.0161 61.7915C77.8892 61.7915 77.7474 61.8021 77.5908 61.8232C77.3411 61.8613 77.2163 61.9333 77.2163 62.0391V62.0898C77.2375 62.2464 77.2565 62.3459 77.2734 62.3882C77.3242 62.5575 77.3496 62.7331 77.3496 62.915C77.3496 63.0335 77.4089 63.0928 77.5273 63.0928H77.5718ZM74.7598 66.3682C74.5143 66.3682 74.3091 66.3153 74.144 66.2095C73.979 66.1037 73.8605 65.8984 73.7886 65.5938C73.6912 65.2214 73.613 64.8468 73.5537 64.4702C73.4945 64.0555 73.4564 63.4609 73.4395 62.6865C73.431 62.0264 73.3844 61.3006 73.2998 60.5093C73.2025 59.7306 73.1538 58.9478 73.1538 58.1606C73.1538 57.8602 73.1369 57.2572 73.103 56.3516C73.103 56.1484 73.1411 55.9771 73.2173 55.8374C73.2384 55.6681 73.3062 55.5835 73.4204 55.5835C73.5304 55.465 73.6193 55.4015 73.687 55.3931C73.8309 55.3719 73.9748 55.355 74.1187 55.3423C74.2625 55.3296 74.381 55.3148 74.4741 55.2979C74.855 55.2428 75.2528 55.2069 75.6675 55.1899C76.1118 55.1984 76.4736 55.3465 76.7529 55.6343C76.9349 55.8247 77.0259 55.9792 77.0259 56.0977L77.0195 56.1357C76.9603 56.2754 76.9307 56.3981 76.9307 56.5039C76.9307 56.5335 76.9328 56.561 76.937 56.5864C76.8862 56.9377 76.8608 57.2064 76.8608 57.3926C76.8651 57.4772 76.8841 57.6359 76.918 57.8687C77.0153 57.9744 77.2375 58.0273 77.5845 58.0273C77.9907 58.0273 78.2214 58.0358 78.2764 58.0527C78.526 58.1162 78.7778 58.1755 79.0317 58.2305C79.4338 58.3151 79.8273 58.4188 80.2124 58.5415C80.6821 58.715 81.1243 58.9478 81.5391 59.2397C81.6322 59.3159 81.7062 59.4175 81.7612 59.5444C81.8162 59.6714 81.8882 59.7729 81.9771 59.8491C82.1336 59.9761 82.2563 60.1221 82.3452 60.2871C82.4341 60.4479 82.5145 60.6151 82.5864 60.7886C82.7007 61.0679 82.7578 61.2689 82.7578 61.3916L82.7451 61.5376C82.7155 61.7069 82.7007 61.8825 82.7007 62.0645L82.7134 62.4326C82.7134 62.6019 82.6986 62.7839 82.6689 62.9785C82.6393 63.1689 82.561 63.3805 82.4341 63.6133C82.3114 63.8418 82.1929 64.0513 82.0786 64.2417C81.9644 64.4321 81.7845 64.576 81.5391 64.6733C81.4756 64.7072 81.374 64.8278 81.2344 65.0352C81.0947 65.2383 80.9382 65.3631 80.7646 65.4097C80.5446 65.4647 80.3351 65.5493 80.1362 65.6636C79.785 65.8413 79.3914 65.9619 78.9556 66.0254L78.1304 66.146L77.9082 66.1396C77.667 66.1396 77.4342 66.1777 77.21 66.2539C77.1634 66.2454 77.119 66.2412 77.0767 66.2412C76.408 66.3089 75.9785 66.3428 75.7881 66.3428C75.3395 66.347 75.0729 66.3512 74.9883 66.3555C74.9079 66.3639 74.8317 66.3682 74.7598 66.3682ZM89.4165 66.3809C89.2388 66.3809 89.0399 66.3703 88.8198 66.3491C88.5998 66.328 88.4368 66.3174 88.3311 66.3174C88.1914 66.3174 88.0243 66.2454 87.8296 66.1016C87.6265 65.9746 87.5249 65.799 87.5249 65.5747C87.5249 65.4181 87.5715 65.2658 87.6646 65.1177C87.7788 64.923 87.9058 64.6924 88.0454 64.4258C88.1851 64.1592 88.2803 64.0026 88.3311 63.9561C88.4284 63.8672 88.5384 63.5054 88.6611 62.8706C88.7161 62.6675 88.7437 62.5363 88.7437 62.4771C88.7437 62.4347 88.7352 62.3966 88.7183 62.3628C88.5575 62.0158 88.3776 61.6772 88.1787 61.3472C88.0433 61.1102 87.9671 60.9875 87.9502 60.979C87.9375 60.9705 87.9269 60.9621 87.9185 60.9536C87.6603 60.7505 87.4953 60.5135 87.4233 60.2427C87.3514 59.9718 87.3112 59.6925 87.3027 59.4048L87.2837 59.1128C87.2837 58.9393 87.3006 58.7785 87.3345 58.6304C87.3683 58.478 87.3853 58.3109 87.3853 58.1289C87.3853 58.04 87.4022 57.93 87.436 57.7988C87.4699 57.6634 87.5228 57.5618 87.5947 57.4941L88.0264 56.7578C88.056 56.6732 88.1449 56.561 88.293 56.4214C88.348 56.3664 88.4263 56.3071 88.5278 56.2437C88.6421 56.1844 88.7267 56.1104 88.7817 56.0215C88.9595 55.6999 89.2049 55.4756 89.5181 55.3486C90.1147 55.0651 90.7432 54.9001 91.4033 54.8535C91.6868 54.8154 91.8709 54.7964 91.9556 54.7964L92.0063 54.8027C92.0825 54.8197 92.1587 54.8281 92.2349 54.8281C92.6411 54.8154 93.0452 54.7922 93.4473 54.7583C93.498 54.7541 93.5785 54.752 93.6885 54.752C93.8324 54.752 94.0249 54.7562 94.2661 54.7646L94.3994 54.7583C95.2542 54.8006 95.8107 54.8958 96.0688 55.0439C96.4836 55.2852 96.7057 55.4946 96.7354 55.6724C96.748 55.7528 96.7544 55.8438 96.7544 55.9453C96.7544 56.2035 96.7861 56.6457 96.8496 57.272C96.8962 57.8094 96.9194 58.1162 96.9194 58.1924C96.9194 58.277 96.911 58.3617 96.894 58.4463C96.8813 58.5309 96.8729 58.6156 96.8687 58.7002C96.8687 59.043 96.8856 59.3836 96.9194 59.7222C96.9533 60.0099 96.9702 60.2998 96.9702 60.5918C96.9702 60.8203 96.9596 61.0488 96.9385 61.2773C96.9131 61.5693 96.9004 61.8592 96.9004 62.147C96.9004 62.3543 96.9067 62.5596 96.9194 62.7627C96.9321 63.0293 96.9385 63.2959 96.9385 63.5625L96.8877 65.4224C96.8158 65.854 96.6232 66.1143 96.3101 66.2031C96.1916 66.2201 96.071 66.2285 95.9482 66.2285C95.6139 66.2285 95.341 66.2518 95.1294 66.2983C95.0744 66.3237 95.013 66.3364 94.9453 66.3364L94.6978 66.311C94.6131 66.311 94.5264 66.3068 94.4375 66.2983C94.3486 66.2899 94.2576 66.2856 94.1646 66.2856C94.0926 66.2856 94.0228 66.2878 93.9551 66.292C93.8916 66.3005 93.8302 66.3047 93.771 66.3047C93.5256 66.3047 93.3309 66.2412 93.187 66.1143C93.0304 65.9704 92.9521 65.763 92.9521 65.4922L92.9585 65.3398C92.9585 65.2679 92.9691 65.196 92.9902 65.124L92.9839 64.9209C92.9839 64.8066 92.9797 64.6712 92.9712 64.5146C92.9246 64.32 92.9014 64.1549 92.9014 64.0195C92.9014 63.8122 92.8675 63.6281 92.7998 63.4673C92.766 63.3488 92.7215 63.2684 92.6665 63.2261L92.6538 63.2197L92.5776 63.2388L92.5396 63.2324C92.4803 63.2324 92.4401 63.2726 92.4189 63.353C92.347 63.5519 92.2687 63.755 92.1841 63.9624C92.1375 64.0682 92.0889 64.1951 92.0381 64.3433C92.0085 64.3687 91.9767 64.4258 91.9429 64.5146C91.9132 64.6035 91.8984 64.6712 91.8984 64.7178C91.8984 64.832 91.8371 64.9717 91.7144 65.1367C91.6551 65.3483 91.6255 65.5345 91.6255 65.6953L91.6318 65.7715C91.6488 65.8307 91.6572 65.8857 91.6572 65.9365C91.6572 66.1693 91.4731 66.2856 91.105 66.2856L90.9146 66.2793L90.8574 66.2729C90.8109 66.2729 90.7643 66.2814 90.7178 66.2983C90.6712 66.3153 90.6289 66.3237 90.5908 66.3237C90.5739 66.3237 90.5464 66.3195 90.5083 66.311C90.4744 66.3068 90.4321 66.3047 90.3813 66.3047C90.3009 66.3047 90.2269 66.3174 90.1592 66.3428C89.7995 66.3682 89.5519 66.3809 89.4165 66.3809ZM91.9619 59.8428C92.1312 59.8428 92.292 59.8216 92.4443 59.7793C92.639 59.7285 92.7596 59.6693 92.8062 59.6016C92.8739 59.5423 92.9077 59.4365 92.9077 59.2842C92.9077 59.2292 92.9035 59.1678 92.895 59.1001C92.8527 58.4992 92.8083 58.1903 92.7617 58.1733C92.7194 58.1522 92.6644 58.1416 92.5967 58.1416C92.2412 58.1416 91.9513 58.1564 91.7271 58.186C91.5916 58.203 91.4753 58.2537 91.3779 58.3384C91.1494 58.4865 90.9801 58.7108 90.8701 59.0112C90.8574 59.0366 90.8511 59.0641 90.8511 59.0938L90.8574 59.1509C90.8617 59.2228 91.014 59.4217 91.3145 59.7476C91.3779 59.7941 91.4858 59.8174 91.6382 59.8174C91.7524 59.8343 91.8604 59.8428 91.9619 59.8428ZM108.415 66.3809C108.352 66.3809 108.288 66.3745 108.225 66.3618C107.869 66.3407 107.548 66.3005 107.26 66.2412C106.964 66.1947 106.811 65.9281 106.803 65.4414C106.803 65.2891 106.811 65.1346 106.828 64.978C106.845 64.8215 106.854 64.667 106.854 64.5146C106.849 64.3665 106.83 63.9645 106.796 63.3086L106.809 62.9531C106.809 62.7796 106.769 62.6527 106.688 62.5723C106.612 62.4919 106.361 62.4517 105.933 62.4517C105.65 62.4517 105.508 62.5511 105.508 62.75C105.576 63.097 105.616 63.3975 105.628 63.6514C105.641 64.0449 105.711 64.43 105.838 64.8066C105.876 64.9167 105.895 65.0267 105.895 65.1367C105.895 65.3991 105.787 65.6742 105.571 65.9619C105.436 66.1354 105.298 66.2391 105.159 66.2729C105.019 66.311 104.898 66.3301 104.797 66.3301C104.704 66.3301 104.543 66.3195 104.314 66.2983L104.2 66.292C104.107 66.292 104.014 66.3068 103.921 66.3364C103.862 66.3618 103.805 66.3745 103.75 66.3745L103.083 66.3682C102.91 66.3682 102.736 66.3618 102.562 66.3491C102.11 66.311 101.858 66.0825 101.807 65.6636C101.625 64.2544 101.534 63.0907 101.534 62.1724L101.547 61.3599C101.543 60.869 101.532 60.3802 101.515 59.8936C101.498 59.2842 101.49 58.6769 101.49 58.0718C101.498 57.2762 101.538 56.4806 101.61 55.6851C101.636 55.4142 101.718 55.228 101.858 55.1265C102.002 55.0249 102.213 54.953 102.493 54.9106C102.552 54.9022 102.905 54.8979 103.553 54.8979C104.018 54.9445 104.418 55.0122 104.752 55.1011C104.972 55.1561 105.127 55.2788 105.216 55.4692C105.305 55.6554 105.349 55.8247 105.349 55.9771C105.349 56.049 105.341 56.1209 105.324 56.1929C105.307 56.2648 105.298 56.3368 105.298 56.4087C105.298 56.4552 105.3 56.506 105.305 56.561C105.313 56.6118 105.317 56.889 105.317 57.3926C105.317 57.7227 105.317 57.9237 105.317 57.9956C105.322 58.0675 105.33 58.1395 105.343 58.2114C105.36 58.2791 105.368 58.3532 105.368 58.4336L105.362 58.5732C105.362 58.8991 105.516 59.062 105.825 59.062C106.024 59.062 106.27 59.0133 106.562 58.916C106.786 58.7975 106.898 58.6283 106.898 58.4082C106.898 58.3405 106.887 58.2664 106.866 58.186C106.739 57.7544 106.676 57.3122 106.676 56.8594C106.688 56.4531 106.741 56.049 106.834 55.647C106.86 55.4608 106.93 55.3402 107.044 55.2852C107.141 55.2428 107.247 55.2153 107.361 55.2026L107.628 55.1646C107.704 55.1646 107.785 55.1772 107.869 55.2026C107.983 55.2323 108.093 55.2492 108.199 55.2534C108.263 55.2534 108.326 55.245 108.39 55.228C108.576 55.1815 108.762 55.1582 108.948 55.1582C109.333 55.1582 109.742 55.2661 110.173 55.4819C110.423 55.63 110.55 55.8564 110.554 56.1611C110.554 56.3219 110.546 56.4806 110.529 56.6372C110.516 56.7896 110.51 56.9398 110.51 57.0879C110.51 57.181 110.516 57.2677 110.529 57.3481C110.55 57.5301 110.561 57.7756 110.561 58.0845L110.554 58.3384C110.554 58.4315 110.556 58.5225 110.561 58.6113C110.573 58.7425 110.58 58.8758 110.58 59.0112C110.58 59.299 110.535 59.5635 110.446 59.8047C110.4 59.9486 110.376 60.1009 110.376 60.2617C110.376 60.4437 110.387 60.7061 110.408 61.0488C110.421 61.3239 110.427 61.6667 110.427 62.0771C110.423 62.1745 110.408 62.2718 110.383 62.3691C110.34 62.5173 110.319 62.6844 110.319 62.8706C110.319 62.9891 110.334 63.1076 110.364 63.2261C110.436 63.4927 110.472 63.7614 110.472 64.0322C110.472 64.2777 110.465 64.4448 110.453 64.5337C110.444 64.5675 110.44 64.5993 110.44 64.6289C110.44 64.6543 110.442 64.6776 110.446 64.6987C110.484 64.8215 110.503 64.9421 110.503 65.0605C110.503 65.2933 110.391 65.6022 110.167 65.9873C110.07 66.1439 109.953 66.2391 109.818 66.2729C109.687 66.3068 109.56 66.3237 109.437 66.3237C109.331 66.3237 109.228 66.3153 109.126 66.2983C109.024 66.2814 108.925 66.2729 108.828 66.2729C108.726 66.2772 108.627 66.3047 108.529 66.3555C108.495 66.3724 108.457 66.3809 108.415 66.3809ZM120.647 66.3809C120.473 66.3809 120.118 66.3089 119.581 66.165C119.318 66.165 118.988 66.0952 118.59 65.9556C118.197 65.8117 117.824 65.5853 117.473 65.2764C117.113 65.0563 116.849 64.8045 116.68 64.521C116.633 64.4575 116.576 64.4025 116.508 64.356C116.373 64.2502 116.189 64.0047 115.956 63.6196C115.88 63.4884 115.81 63.3573 115.747 63.2261C115.683 63.0949 115.643 63.0208 115.626 63.0039C115.609 62.9827 115.457 62.4517 115.169 61.4106C115.131 61.1567 115.11 60.9959 115.105 60.9282C115.131 60.1538 115.184 59.61 115.264 59.2969C115.374 59.0133 115.448 58.7785 115.486 58.5923C115.524 58.4061 115.601 58.2347 115.715 58.0781C115.965 57.7565 116.328 57.3164 116.807 56.7578C117.082 56.4531 117.395 56.1971 117.746 55.9897C117.869 55.9093 117.989 55.8268 118.108 55.7422C118.243 55.6491 118.379 55.5877 118.514 55.5581C118.62 55.5369 118.823 55.4756 119.124 55.374C119.242 55.3571 119.358 55.3211 119.473 55.2661C119.502 55.2534 119.532 55.2471 119.562 55.2471C119.591 55.2471 119.672 55.2344 119.803 55.209C119.934 55.1794 120.065 55.1603 120.196 55.1519C121.06 55.1519 121.639 55.1899 121.936 55.2661C122.215 55.3634 122.534 55.4967 122.894 55.666C123.106 55.7126 123.305 55.7845 123.491 55.8818C123.884 56.0892 124.2 56.3791 124.437 56.7515C124.5 56.8446 124.578 56.9313 124.671 57.0117C124.875 57.1937 124.976 57.3672 124.976 57.5322C124.976 57.7057 124.822 57.9279 124.513 58.1987C124.204 58.4696 123.768 58.8441 123.205 59.3223C123.019 59.6566 122.771 59.8237 122.462 59.8237C122.251 59.8237 122.054 59.7349 121.872 59.5571C121.779 59.464 121.677 59.3942 121.567 59.3477C121.487 59.3138 121.409 59.2778 121.333 59.2397C121.112 59.1255 120.924 59.0684 120.768 59.0684C120.594 59.0684 120.408 59.1678 120.209 59.3667C120.133 59.4259 120.074 59.4767 120.031 59.519C119.955 59.591 119.873 59.6566 119.784 59.7158C119.636 59.8047 119.53 59.9084 119.466 60.0269C119.407 60.1453 119.318 60.2554 119.2 60.3569C119.174 60.5939 119.162 60.7399 119.162 60.7949C119.162 60.9727 119.193 61.1842 119.257 61.4297C119.405 61.6159 119.536 61.7767 119.65 61.9121C119.743 62.0306 119.877 62.1364 120.05 62.2295C120.16 62.2633 120.298 62.3691 120.463 62.5469C120.548 62.5892 120.664 62.6104 120.812 62.6104C121.002 62.6104 121.178 62.5638 121.339 62.4707C121.644 62.2887 121.961 62.1322 122.291 62.001C122.363 61.9714 122.433 61.9565 122.5 61.9565C122.674 61.9565 122.845 62.0496 123.015 62.2358L123.167 62.3882C123.345 62.5363 123.48 62.7013 123.573 62.8833L124.075 63.5942C124.151 63.6789 124.225 63.7656 124.297 63.8545C124.415 64.0153 124.475 64.2354 124.475 64.5146C124.475 64.5908 124.466 64.6628 124.449 64.7305C124.437 64.7982 124.398 64.8595 124.335 64.9146C124.271 64.9653 124.202 65.014 124.125 65.0605C124.054 65.1071 123.988 65.1515 123.929 65.1938C123.891 65.2235 123.85 65.251 123.808 65.2764C123.736 65.3187 123.673 65.3674 123.618 65.4224C123.503 65.5493 123.385 65.6466 123.262 65.7144C123.139 65.7821 122.926 65.8857 122.621 66.0254C122.316 66.165 121.955 66.2581 121.536 66.3047C121.121 66.3555 120.825 66.3809 120.647 66.3809Z" fill="white"/>
<path d="M48.7266 45.4395C48.3685 45.4264 48.0788 45.2669 47.8574 44.9609C47.6426 44.6549 47.5189 44.3294 47.4863 43.9844C47.278 39.5703 47.1543 36.7904 47.1152 35.6445C47.1152 35.4427 47.1283 35.2376 47.1543 35.0293C47.1803 34.821 47.1934 34.6094 47.1934 34.3945C47.1738 34.1471 47.1445 33.8997 47.1055 33.6523C47.0339 33.1901 46.998 32.5684 46.998 31.7871C46.998 31.3574 47.0111 30.9277 47.0371 30.498C47.0827 29.9967 47.2064 29.5378 47.4082 29.1211C47.6165 28.7044 47.9909 28.4961 48.5312 28.4961C48.8177 28.4961 49.1042 28.4635 49.3906 28.3984C49.4818 28.3789 49.7422 28.3691 50.1719 28.3691C50.5625 28.3691 50.8978 28.3789 51.1777 28.3984L54.0879 28.418L54.4785 28.4082C54.8301 28.4408 55.0352 28.457 55.0938 28.457C55.263 28.457 55.4779 28.4408 55.7383 28.4082C55.888 28.4408 56.041 28.4668 56.1973 28.4863C56.4121 28.4863 56.5684 28.4831 56.666 28.4766C56.7702 28.4701 56.8678 28.4668 56.959 28.4668C57.1868 28.4668 57.3919 28.4863 57.5742 28.5254C57.763 28.5645 57.9518 28.584 58.1406 28.584L58.4629 28.5645C58.7168 28.5645 58.9772 28.6654 59.2441 28.8672C59.5111 29.0625 59.6706 29.3001 59.7227 29.5801C59.7487 29.8014 59.7747 30.2539 59.8008 30.9375C59.7357 31.9076 59.6771 32.64 59.625 33.1348C59.5859 33.4603 59.459 33.724 59.2441 33.9258C59.0293 34.1276 58.7852 34.2285 58.5117 34.2285C58.3229 34.222 57.9974 34.2188 57.5352 34.2188C57.3919 34.2708 57.2487 34.3001 57.1055 34.3066C56.3047 34.248 55.5951 34.2155 54.9766 34.209C54.599 34.1764 54.2246 34.1569 53.8535 34.1504C53.7689 34.1504 53.6908 34.196 53.6191 34.2871C53.5085 34.4108 53.4531 34.5768 53.4531 34.7852L53.4629 35.4688C53.4629 35.5469 53.4564 35.6315 53.4434 35.7227C53.4303 35.8073 53.4238 35.8919 53.4238 35.9766C53.4238 36.263 53.4564 36.6699 53.5215 37.1973C53.5605 37.5684 53.5801 37.7995 53.5801 37.8906C53.5801 37.9036 53.5768 37.9264 53.5703 37.959C53.5703 37.985 53.5703 38.0794 53.5703 38.2422C53.5703 38.3659 53.5801 38.431 53.5996 38.4375C53.6517 39.1081 53.6777 39.4759 53.6777 39.541L53.7559 42.2754C53.7559 42.4967 53.7982 43.0436 53.8828 43.916C53.8958 44.0397 53.9023 44.1536 53.9023 44.2578C53.9023 44.5833 53.8047 44.8372 53.6094 45.0195C53.4206 45.2018 53.069 45.293 52.5547 45.293C52.2422 45.293 51.7376 45.3288 51.041 45.4004C49.9147 45.4264 49.1432 45.4395 48.7266 45.4395ZM64.0098 45.625C63.8991 45.625 63.7493 45.5469 63.5605 45.3906L63.4824 45.4004C63.3587 45.4004 63.2611 45.2832 63.1895 45.0488C63.0332 44.847 62.9355 44.5866 62.8965 44.2676C62.8574 43.9421 62.8216 43.6198 62.7891 43.3008C62.75 42.7604 62.6849 42.2233 62.5938 41.6895C62.4049 40.4395 62.2943 39.1829 62.2617 37.9199C62.2161 36.696 62.125 35.5827 61.9883 34.5801C61.8385 33.3952 61.7637 32.4805 61.7637 31.8359C61.7637 31.25 61.7995 30.6641 61.8711 30.0781C61.9102 29.5964 62.0566 29.2448 62.3105 29.0234C62.571 28.8021 62.9714 28.6751 63.5117 28.6426C63.6419 28.6296 64.0423 28.5775 64.7129 28.4863C64.9603 28.4473 65.6243 28.4017 66.7051 28.3496C66.7572 28.3496 66.832 28.3333 66.9297 28.3008C67.1315 28.3333 67.3333 28.3496 67.5352 28.3496C67.7044 28.3496 67.9779 28.3203 68.3555 28.2617L69.625 28.252C70.3086 28.252 70.9368 28.3496 71.5098 28.5449C71.8418 28.6686 72.1803 28.75 72.5254 28.7891C72.7988 28.8151 73.0658 28.9746 73.3262 29.2676L73.4629 29.4141C73.4889 29.4336 73.515 29.4596 73.541 29.4922C73.6712 29.6224 73.7819 29.7038 73.873 29.7363C74.2637 29.8275 74.5664 30.0065 74.7812 30.2734C75.0026 30.5339 75.2337 30.8268 75.4746 31.1523C75.7155 31.4714 75.8848 31.7969 75.9824 32.1289C76.0866 32.4609 76.1549 32.8092 76.1875 33.1738C76.2266 33.5384 76.3014 33.8932 76.4121 34.2383C76.4512 34.375 76.4707 34.515 76.4707 34.6582C76.4707 34.7819 76.4251 35.0326 76.334 35.4102C76.2689 35.6901 76.1842 35.9635 76.0801 36.2305C75.9824 36.4974 75.8294 36.7448 75.6211 36.9727C75.5039 37.1094 75.416 37.2819 75.3574 37.4902C75.3053 37.6921 75.2174 37.8613 75.0938 37.998C74.5273 38.5384 73.9056 38.9941 73.2285 39.3652C72.6686 39.6387 72.0924 39.8861 71.5 40.1074C71.1289 40.2441 70.7611 40.3906 70.3965 40.5469C70.2923 40.5924 69.9603 40.6543 69.4004 40.7324C68.8405 40.804 68.4954 40.9342 68.3652 41.123L68.375 41.2891L68.3652 41.6699C68.3783 41.9434 68.4824 42.4121 68.6777 43.0762C68.6777 43.265 68.7559 43.4863 68.9121 43.7402C68.9251 43.7728 68.9316 43.8118 68.9316 43.8574C68.9316 44.0332 68.8275 44.2708 68.6191 44.5703C68.4434 44.8112 68.2188 45.0065 67.9453 45.1562C67.6719 45.3255 67.3789 45.4362 67.0664 45.4883C66.4284 45.5534 65.8132 45.5859 65.2207 45.5859C65.0775 45.5859 64.8952 45.5924 64.6738 45.6055C64.4525 45.6185 64.2311 45.625 64.0098 45.625ZM68.4922 34.9512C69.3646 34.9512 69.9277 34.7721 70.1816 34.4141C70.3314 34.1927 70.4062 34.0039 70.4062 33.8477C70.4062 33.776 70.3965 33.7109 70.377 33.6523C70.2663 33.431 70.0905 33.2552 69.8496 33.125C69.6152 32.9948 69.3874 32.9297 69.166 32.9297L69.0488 32.9395C68.7624 32.972 68.4727 33.0013 68.1797 33.0273C67.9779 33.0404 67.877 33.1152 67.877 33.252C67.877 33.2975 67.8835 33.3496 67.8965 33.4082C67.9095 33.5254 67.916 33.6426 67.916 33.7598C67.916 33.8965 67.9062 34.0332 67.8867 34.1699C67.8737 34.235 67.8672 34.3913 67.8672 34.6387C67.8672 34.6908 67.8737 34.7363 67.8867 34.7754C67.9388 34.8926 68.1406 34.9512 68.4922 34.9512ZM88.6582 45.4297C88.5736 45.4297 88.4824 45.4232 88.3848 45.4102C88.248 45.3906 88.1016 45.3809 87.9453 45.3809C87.2812 45.3613 86.9167 45 86.8516 44.2969C86.8125 43.9128 86.6335 43.5677 86.3145 43.2617C85.9954 42.9492 85.6504 42.7832 85.2793 42.7637C85.0189 42.7637 84.6641 42.8646 84.2148 43.0664C83.8177 43.2422 83.6191 43.5286 83.6191 43.9258C83.6191 43.9779 83.6257 44.0267 83.6387 44.0723C83.6908 44.2285 83.7168 44.3652 83.7168 44.4824C83.7168 44.8405 83.4792 45.0521 83.0039 45.1172C82.7956 45.1172 82.5775 45.1432 82.3496 45.1953C82.1803 45.1823 82.0143 45.1758 81.8516 45.1758C81.5911 45.1758 81.2461 45.1888 80.8164 45.2148L80.1816 45.2246C79.9538 45.2246 79.7975 45.2181 79.7129 45.2051C79.2311 45.1595 78.9251 45.1367 78.7949 45.1367C78.5866 45.1367 78.3717 45.0814 78.1504 44.9707C77.7923 44.8014 77.5645 44.5475 77.4668 44.209C77.4538 44.1439 77.4473 44.0788 77.4473 44.0137C77.4473 43.9225 77.4603 43.8314 77.4863 43.7402C77.4863 43.6296 77.61 43.1445 77.8574 42.2852C77.9225 42.0964 77.9941 41.9141 78.0723 41.7383C78.1699 41.5169 78.2546 41.2891 78.3262 41.0547C78.4694 40.4948 78.6061 39.9349 78.7363 39.375C78.873 38.7826 79.0195 38.1901 79.1758 37.5977C79.2539 37.3372 79.3483 37.0833 79.459 36.8359C79.6283 36.4388 79.7357 36.11 79.7812 35.8496C79.8268 35.6217 80.0449 34.9186 80.4355 33.7402C80.9954 32.028 81.4219 30.6478 81.7148 29.5996C81.8581 29.0007 82.2747 28.6426 82.9648 28.5254C83.082 28.5254 83.2708 28.5384 83.5312 28.5645L84.4297 28.584L85.0059 28.5742C85.1296 28.5742 85.2435 28.571 85.3477 28.5645C85.4583 28.5514 85.5462 28.5449 85.6113 28.5449L85.8066 28.5547C85.8913 28.5547 86.1029 28.5482 86.4414 28.5352C86.7799 28.5221 87.0762 28.5156 87.3301 28.5156C88.0527 28.5156 88.528 28.929 88.7559 29.7559C88.8665 30.1595 89.0065 30.5566 89.1758 30.9473C89.3906 31.429 89.5892 32.0117 89.7715 32.6953C89.8822 33.099 90.0059 33.4961 90.1426 33.8867C90.2663 34.2513 90.3607 34.6191 90.4258 34.9902C90.4974 35.4199 90.6081 35.8203 90.7578 36.1914C90.9076 36.556 91.0215 36.9206 91.0996 37.2852C91.1777 37.6432 91.2852 37.9883 91.4219 38.3203C91.474 38.4635 91.5 38.6198 91.5 38.7891C91.5065 38.9583 91.5228 39.1081 91.5488 39.2383C91.627 39.5052 91.7116 39.7689 91.8027 40.0293C91.946 40.4134 92.0339 40.7064 92.0664 40.9082C92.0729 40.9863 92.0924 41.084 92.125 41.2012C92.2227 41.696 92.304 42.1712 92.3691 42.627C92.4342 43.0827 92.6133 43.5579 92.9062 44.0527C92.9453 44.1374 92.9648 44.222 92.9648 44.3066C92.9648 44.5345 92.7923 44.7656 92.4473 45C92.1934 45.2018 91.9753 45.3027 91.793 45.3027C91.6628 45.3027 91.3633 45.3158 90.8945 45.3418C90.4258 45.3743 90.0645 45.3906 89.8105 45.3906C89.5957 45.3906 89.4232 45.3939 89.293 45.4004C89.0456 45.4199 88.834 45.4297 88.6582 45.4297ZM86.1875 37.5488C86.4219 37.5488 86.5391 37.4479 86.5391 37.2461C86.5391 37.2005 86.5326 37.168 86.5195 37.1484L86.2559 35.6934L86.0996 35.3906C85.9889 35.1302 85.8392 34.9154 85.6504 34.7461C85.5788 34.694 85.5137 34.668 85.4551 34.668C85.3379 34.668 85.1654 34.7363 84.9375 34.873C84.8919 34.9251 84.8464 34.9707 84.8008 35.0098C84.7878 35.0228 84.7747 35.0391 84.7617 35.0586C84.7487 35.0781 84.7292 35.0944 84.7031 35.1074C84.5599 35.2832 84.4883 35.4069 84.4883 35.4785L84.3516 35.8594C84.3516 35.9961 84.2897 36.2695 84.166 36.6797C84.0944 36.7513 84.0488 36.9857 84.0293 37.3828C84.2311 37.4089 84.4297 37.4219 84.625 37.4219L85.084 37.4023C85.2533 37.4023 85.3802 37.4219 85.4648 37.4609C85.6797 37.4609 85.8848 37.4805 86.0801 37.5195C86.1061 37.5391 86.1419 37.5488 86.1875 37.5488ZM105.787 35.3711C105.813 35.9115 105.839 36.8522 105.865 38.1934L105.885 38.418C106.314 38.2096 106.705 37.9557 107.057 37.6562C107.2 37.4935 107.271 37.3014 107.271 37.0801C107.271 36.7611 107.177 36.4876 106.988 36.2598L106.979 36.2207C106.803 36.0059 106.624 35.8268 106.441 35.6836C106.285 35.5599 106.067 35.4557 105.787 35.3711ZM99.8008 30.2539C99.7943 30.1237 99.791 29.9935 99.791 29.8633C99.7975 29.388 99.9928 29.0397 100.377 28.8184C101.028 28.4863 101.656 28.3203 102.262 28.3203C102.548 28.3203 102.838 28.3561 103.131 28.4277C103.222 28.4473 103.316 28.457 103.414 28.457C103.557 28.457 103.73 28.4342 103.932 28.3887C104.055 28.3496 104.176 28.3301 104.293 28.3301L104.459 28.3398L104.703 28.3789C104.879 28.4049 105.042 28.4538 105.191 28.5254C105.341 28.5905 105.442 28.7272 105.494 28.9355L105.523 29.0723C105.608 29.4434 105.67 29.8177 105.709 30.1953C106.725 30.4362 107.643 30.8333 108.463 31.3867C108.71 31.556 108.954 31.7285 109.195 31.9043C109.371 32.028 109.488 32.1061 109.547 32.1387C109.742 32.2363 109.895 32.4089 110.006 32.6562C110.077 32.793 110.172 32.9232 110.289 33.0469L110.455 33.1934C110.859 33.5319 111.077 33.8542 111.109 34.1602C111.129 34.3099 111.168 34.4303 111.227 34.5215C111.585 34.9837 111.764 35.5176 111.764 36.123C111.764 36.2533 111.754 36.3867 111.734 36.5234C111.721 36.6602 111.715 36.7936 111.715 36.9238L111.725 37.2363C111.725 37.6855 111.646 38.1022 111.49 38.4863C111.386 38.7663 111.311 39.0007 111.266 39.1895C111.188 39.5475 111.051 39.8405 110.855 40.0684C110.66 40.2962 110.478 40.5371 110.309 40.791C109.697 41.7936 108.837 42.4902 107.73 42.8809C107.516 42.9329 107.307 43.0208 107.105 43.1445C106.767 43.3268 106.409 43.4701 106.031 43.5742C106.044 43.763 106.054 43.9518 106.061 44.1406C106.041 44.8893 105.803 45.2962 105.348 45.3613C104.469 45.4655 103.811 45.5306 103.375 45.5566C103.277 45.5762 103.18 45.5859 103.082 45.5859C103.017 45.5859 102.962 45.5729 102.916 45.5469C102.76 45.4622 102.607 45.4199 102.457 45.4199C102.301 45.4199 102.148 45.4297 101.998 45.4492C101.79 45.4753 101.611 45.4883 101.461 45.4883C101.292 45.4883 101.109 45.4622 100.914 45.4102C100.686 45.3581 100.51 45.2051 100.387 44.9512C100.035 44.3913 99.8594 43.9225 99.8594 43.5449V43.4375C98.9219 43.2422 98.082 42.8678 97.3398 42.3145C95.556 40.9863 94.4948 39.4173 94.1562 37.6074C94.0846 37.2493 94.0488 36.8913 94.0488 36.5332C94.0488 35.8822 94.1628 35.2507 94.3906 34.6387C94.5924 34.1439 94.9766 33.6263 95.543 33.0859C95.7188 32.9102 95.888 32.7246 96.0508 32.5293C96.6042 31.8392 97.3105 31.3053 98.1699 30.9277C98.8991 30.6152 99.4134 30.4004 99.7129 30.2832L99.8008 30.2539ZM99.9961 38.1641C100.003 37.9036 100.012 37.6432 100.025 37.3828C100.051 36.6862 100.064 36.263 100.064 36.1133C100.064 35.8919 100.032 35.6738 99.9668 35.459L99.8887 35.2441C99.6543 35.3288 99.4329 35.4395 99.2246 35.5762C98.7689 35.8822 98.541 36.237 98.541 36.6406C98.541 36.9141 98.6484 37.181 98.8633 37.4414C99.1172 37.7344 99.4297 37.9525 99.8008 38.0957C99.8594 38.1217 99.9245 38.1445 99.9961 38.1641ZM125.045 45.3711C124.407 45.3711 123.977 45.2604 123.756 45.0391C123.528 44.8633 123.414 44.2025 123.414 43.0566C123.434 42.8158 123.443 42.5781 123.443 42.3438C123.443 41.0286 123.313 40.3711 123.053 40.3711C122.877 40.3711 122.522 40.7357 121.988 41.4648C121.852 41.7643 121.718 42.0671 121.588 42.373C120.891 43.3301 120.436 44.0202 120.221 44.4434C119.954 44.9772 119.592 45.2441 119.137 45.2441H117.73C117.477 45.2311 117.226 45.2246 116.979 45.2246C116.529 45.2246 116.08 45.2116 115.631 45.1855C115.208 45.1855 114.853 44.9837 114.566 44.5801C114.286 44.1699 114.137 43.7826 114.117 43.418C114.117 43.2487 114.101 43.0827 114.068 42.9199C114.049 42.8092 114.036 42.7539 114.029 42.7539C114.016 42.5 113.997 42.2461 113.971 41.9922C113.925 41.543 113.902 41.097 113.902 40.6543C113.902 40.4134 113.912 40.1693 113.932 39.9219C113.951 39.668 113.961 39.4108 113.961 39.1504C113.961 38.9616 113.954 38.776 113.941 38.5938C113.876 37.819 113.844 37.0443 113.844 36.2695C113.85 36.0221 113.88 35.7747 113.932 35.5273C113.984 35.2799 114.01 35.0944 114.01 34.9707L114.02 34.248C114.02 33.9811 114.003 33.7207 113.971 33.4668C113.945 33.2129 113.932 32.9655 113.932 32.7246C113.932 32.4121 113.958 32.0898 114.01 31.7578C114.01 30.8073 114.081 30.1172 114.225 29.6875C114.27 29.5378 114.309 29.3913 114.342 29.248C114.511 28.5189 114.973 28.1413 115.729 28.1152C116.087 28.1348 116.454 28.1445 116.832 28.1445C116.962 28.1445 117.089 28.138 117.213 28.125C117.337 28.1055 117.454 28.0957 117.564 28.0957C117.675 28.0957 117.861 28.0859 118.121 28.0664L118.844 28.0762C119.033 28.0762 119.153 28.0729 119.205 28.0664C119.264 28.0599 119.312 28.0566 119.352 28.0566C119.43 28.0566 119.492 28.0664 119.537 28.0859C119.967 28.3268 120.237 28.623 120.348 28.9746C120.406 29.1764 120.436 29.3978 120.436 29.6387L120.426 29.8926C120.426 29.9707 120.432 30.1139 120.445 30.3223C120.465 30.5306 120.491 30.7194 120.523 30.8887C120.562 31.0514 120.608 31.7188 120.66 32.8906L121.197 32.2559C121.406 31.9368 121.614 31.6243 121.822 31.3184C122.304 30.6152 122.753 29.9154 123.17 29.2188C123.346 28.9323 123.603 28.6914 123.941 28.4961C124.189 28.3529 124.43 28.2812 124.664 28.2812L125.514 28.3105C125.683 28.3496 125.862 28.3691 126.051 28.3691C127.073 28.3431 127.617 28.3268 127.682 28.3203C127.779 28.3073 127.874 28.3008 127.965 28.3008C128.167 28.3008 128.375 28.3398 128.59 28.418C129.013 28.5807 129.283 29.3262 129.4 30.6543L129.449 31.1621C129.501 31.5332 129.527 31.9076 129.527 32.2852C129.527 32.526 129.518 32.7702 129.498 33.0176L129.488 34.2578L129.498 34.5215L129.488 34.7363C129.423 35.14 129.387 35.5404 129.381 35.9375C129.387 36.3867 129.4 36.8359 129.42 37.2852C129.446 37.7995 129.459 38.3105 129.459 38.8184C129.459 39.528 129.452 40.2344 129.439 40.9375C129.426 41.4648 129.42 41.9922 129.42 42.5195L129.43 43.4082C129.43 43.903 129.326 44.3197 129.117 44.6582C128.909 44.9902 128.502 45.1921 127.896 45.2637H127.535C126.871 45.2637 126.204 45.293 125.533 45.3516C125.357 45.3646 125.195 45.3711 125.045 45.3711ZM138.355 45.5859C138.193 45.5794 138.02 45.5762 137.838 45.5762C137.434 45.5762 137.06 45.5534 136.715 45.5078C136.324 45.4492 135.953 45.2995 135.602 45.0586C135.126 44.6745 134.889 44.0007 134.889 43.0371C134.889 42.7897 134.915 42.5423 134.967 42.2949C135.123 41.6895 135.201 41.071 135.201 40.4395L135.191 39.9902C135.165 39.6712 135.152 39.3522 135.152 39.0332L135.172 38.0762L135.152 37.1387C135.152 36.5072 135.217 35.8757 135.348 35.2441C135.367 35.153 135.377 35.0684 135.377 34.9902C135.377 34.5215 135.081 34.248 134.488 34.1699C133.759 34.0658 133.049 33.8997 132.359 33.6719C132.099 33.5742 131.884 33.3268 131.715 32.9297C131.572 32.5326 131.497 32.2233 131.49 32.002C131.49 31.7806 131.49 31.6504 131.49 31.6113C131.49 31.2337 131.523 30.8529 131.588 30.4688C131.64 30.0716 131.676 29.6745 131.695 29.2773C131.721 28.9779 131.826 28.7272 132.008 28.5254C132.197 28.3236 132.438 28.2096 132.73 28.1836L133.131 28.1543C133.502 28.1087 133.876 28.0859 134.254 28.0859C134.436 28.0859 134.625 28.0957 134.82 28.1152C135.022 28.1348 135.224 28.1445 135.426 28.1445C135.816 28.1445 136.204 28.099 136.588 28.0078C136.666 27.9948 136.741 27.9883 136.812 27.9883L137.506 27.9785C137.532 27.9785 137.564 27.9818 137.604 27.9883C137.649 27.9948 137.708 27.998 137.779 27.998C137.812 27.998 137.841 27.9915 137.867 27.9785C138.089 27.9329 138.307 27.9102 138.521 27.9102C138.762 27.9102 139.068 27.9264 139.439 27.959C139.817 27.985 140.126 27.998 140.367 27.998C140.667 27.998 140.966 28.0273 141.266 28.0859C141.526 28.138 141.786 28.1641 142.047 28.1641C142.203 28.1641 142.372 28.1543 142.555 28.1348C142.77 28.1348 142.978 28.1673 143.18 28.2324C143.29 28.2715 143.401 28.3008 143.512 28.3203C143.59 28.3333 143.665 28.3529 143.736 28.3789C143.873 28.4245 144.01 28.4473 144.146 28.4473L144.654 28.4082C145.058 28.4082 145.374 28.5124 145.602 28.7207C145.868 28.9746 146.002 29.2969 146.002 29.6875C146.002 29.7786 145.986 29.8828 145.953 30L145.973 30.5273L145.963 30.7129C145.963 30.7585 145.966 30.791 145.973 30.8105V31.5137C145.973 31.7936 145.917 32.1029 145.807 32.4414L145.699 32.8711C145.589 33.444 145.338 33.8086 144.947 33.9648C144.719 34.0625 144.234 34.1178 143.492 34.1309C143.16 34.1439 142.828 34.1634 142.496 34.1895C142.158 34.248 141.988 34.4629 141.988 34.834C141.988 34.9382 142.001 35.0553 142.027 35.1855C142.105 35.472 142.145 35.7585 142.145 36.0449C142.145 36.3965 142.105 36.8327 142.027 37.3535C141.962 37.8613 141.865 38.7793 141.734 40.1074C141.715 40.2637 141.692 40.4167 141.666 40.5664C141.62 40.8268 141.591 41.084 141.578 41.3379C141.578 41.6113 141.588 41.8815 141.607 42.1484C141.633 42.5 141.646 42.9362 141.646 43.457C141.646 43.7956 141.637 44.1309 141.617 44.4629C141.611 44.554 141.575 44.6517 141.51 44.7559C141.451 44.8535 141.38 44.9251 141.295 44.9707C140.475 45.3809 139.495 45.5859 138.355 45.5859Z" fill="white"/>
<path d="M11 18.28C11.0403 18.379 11.0697 18.4837 11.0905 18.5989C11.1276 18.8035 11.1268 19.051 11.0922 19.3877C11.0569 19.728 11.0341 19.9336 11.1309 20.1131C11.2279 20.2928 11.4268 20.4308 11.7354 20.6571C12.3557 21.1121 12.5699 21.3736 12.6434 21.6969C12.7005 21.9483 12.6493 22.2896 12.4961 22.9387C12.4476 23.1395 12.4147 23.31 12.4053 23.4586C12.3996 23.551 12.3991 23.6268 12.4392 23.6909C12.5017 23.7907 12.6211 23.8574 12.7816 23.9432C13.0252 24.0733 13.3458 24.2048 13.7587 24.3585C14.1069 24.4901 14.3573 24.5937 14.5101 24.6817C14.6952 24.7884 14.8054 24.902 14.8663 24.9967C15.0288 25.2495 15.0387 25.4939 14.9007 25.7416C14.8521 25.8287 14.7776 25.9291 14.6506 26.0201C14.4981 26.1295 14.1744 26.2699 13.6609 26.4452C13.6609 26.4452 13.0591 26.6452 13.0591 26.6452L12.7147 27.14C12.5694 27.3487 12.4198 27.5369 12.2646 27.7047C12.7486 27.6876 13.2252 27.6536 13.5769 27.6058C15.4741 27.3479 17.403 26.595 18.8073 25.5643C19.4966 25.0583 20.6214 23.8078 21.0128 23.1121C22.0146 20.2016 20.0133 18.5597 20.0057 18.5535C19.3172 18.1006 18.5772 17.7448 17.9381 17.5658C16.8955 17.2737 15.2266 17.2081 14.0239 17.4118C13.0371 17.5789 12.0208 17.8719 11 18.28ZM21.4938 19.2048C22.162 20.0091 22.4335 22.3133 21.9006 22.4668L21.9242 22.4618C23.9437 22.0406 28.5557 21.5685 37.6275 20.8541C39.3406 20.7192 41.3107 20.5632 42.0055 20.5073C42.7003 20.4515 44.1013 20.339 45.1189 20.2572C48.3341 19.999 49.0261 19.9395 50.7212 19.775C54.3221 19.4257 57.0237 19.0286 62.4761 18.0474C66.345 17.3512 72.2694 16.1129 74.0118 15.6363C74.2443 15.5728 74.8455 15.4153 75.3478 15.2864C77.2575 14.7963 79.4821 14.0375 80.2431 13.6166C80.6369 13.3988 80.9616 13.0812 80.9545 12.9205C80.9419 12.6347 80.2837 12.3368 79.3708 12.2036C76.288 11.7539 67.7769 12.0662 58.4357 12.9719C53.6584 13.435 51.4894 13.766 45.4583 14.9521C41.3652 15.7571 40.7892 15.8709 38.9119 16.2457C28.6073 18.3026 23.6629 19.1436 21.4938 19.2048Z" fill="white"/>
<defs>
<linearGradient id="paint0_linear_3082_5855" x1="7.48189" y1="53.0759" x2="5.01197" y2="66.8503" gradientUnits="userSpaceOnUse">
<stop stop-color="#FFA200"/>
<stop offset="0.48" stop-color="#F33E51"/>
<stop offset="1" stop-color="#7400E7"/>
</linearGradient>
<linearGradient id="paint1_linear_3082_5855" x1="13.7749" y1="26.1213" x2="0.88872" y2="20.3882" gradientUnits="userSpaceOnUse">
<stop stop-color="#FFA200"/>
<stop offset="0.48" stop-color="#F33E51"/>
<stop offset="1" stop-color="#7400E7"/>
</linearGradient>
</defs>
</svg>
