<svg width="71" height="30" viewBox="0 0 71 30" fill="none" xmlns="http://www.w3.org/2000/svg">
<path fill-rule="evenodd" clip-rule="evenodd" d="M0.658967 10.7803C1.87136 9.58674 19.3685 2.35209 23.8363 1.22288C30.49 -0.458785 37.6761 -0.402974 42.9614 1.37147C47.1661 2.78306 50.4814 5.4135 51.962 8.51268C52.8175 10.3035 53.0274 11.3769 52.9506 13.5656L52.8841 15.4552L54.506 16.0575C59.8885 18.0564 65.0214 21.7435 68.0441 25.7825C68.5046 26.3978 68.9151 26.868 68.9565 26.8274C68.9976 26.7867 68.6435 25.5434 68.1694 24.0645C67.6951 22.5857 67.3572 21.2473 67.4182 21.0905C67.6237 20.5627 68.2407 20.7644 68.6042 21.4783C69.2889 22.8231 71 28.3406 71 29.2036C71 29.8878 70.8256 29.9993 69.7539 30C69.1027 30.0004 68.2946 29.7308 66.2662 28.8362C62.9719 27.3834 62.4453 27.0835 62.4439 26.6595C62.4429 26.3696 62.5383 26.3382 63.1255 26.4348C63.5011 26.4963 64.6685 26.8615 65.72 27.2461C66.7714 27.6307 67.6612 27.918 67.6973 27.8848C67.8276 27.7647 65.6397 25.3537 64.284 24.1234C61.7325 21.8079 59.4386 20.221 56.6635 18.8514C55.1471 18.1031 52.4144 16.9784 52.3456 17.0744C52.325 17.1032 52.1207 17.5913 51.8919 18.1592C51.1035 20.1151 49.2122 22.7287 47.303 24.5008C41.8892 29.5255 33.634 31.3545 29.3876 28.4702C28.841 28.0989 28.3177 27.5242 27.9596 26.9019C27.4651 26.0427 27.3948 25.7514 27.397 24.5738C27.4007 22.6167 28.1215 21.2331 30.198 19.1968C32.5256 16.914 35.385 15.4249 39.0469 14.5881C41.0389 14.1328 47.0195 14.1237 49.413 14.5721C50.3077 14.7397 51.0846 14.8325 51.1397 14.7783C51.1947 14.7241 51.2697 14.093 51.3065 13.3761C51.4238 11.0857 50.6997 9.05804 49.1004 7.19799C44.6024 1.96726 34.6288 0.148668 24.369 2.68848C20.8405 3.56189 3.02095 10.4731 1.25888 11.6255C0.655326 12.0203 0.388413 12.1061 0.211988 11.9618C-0.145049 11.6697 -0.0860587 11.5135 0.658967 10.7803ZM28.768 25.5104C29.4216 27.8299 32.5787 28.8352 36.8621 28.0877C40.723 27.4139 43.946 25.6348 46.8868 22.5539C48.5276 20.8349 49.7207 19.1366 50.3359 17.6447C50.8561 16.3835 51.0059 16.4935 48.13 16.028C45.7387 15.641 41.1977 15.5889 39.5931 15.9301C37.669 16.3392 35.6315 17.0567 33.9717 17.9091C31.2869 19.2882 29.0391 21.8456 28.7447 23.856C28.6797 24.3002 28.6162 24.7039 28.6032 24.7533C28.5905 24.8026 28.6646 25.1434 28.768 25.5104Z" fill="white"/>
</svg>
