<svg width="123" height="123" viewBox="0 0 123 123" fill="none" xmlns="http://www.w3.org/2000/svg">
<g clip-path="url(#clip0_592_1502)">
<path fill-rule="evenodd" clip-rule="evenodd" d="M26.834 46.1938L28.4866 32.1862H30.7687L32.9722 46.2725L29.8244 49.3416L26.834 46.1938Z" fill="url(#paint0_linear_592_1502)"/>
<path d="M13.2985 45.9577C13.3772 45.0921 14.0854 44.4625 14.8724 44.5412C15.738 44.6199 16.3676 45.3282 16.2889 46.1151L14.715 77.9865L44.4616 77.8291L42.7303 46.0364C42.6516 45.1708 43.3599 44.4625 44.1468 44.4625C45.0125 44.3838 45.7207 45.0921 45.7207 45.879L47.5307 79.2456V79.3243C47.5307 80.19 46.8225 80.8195 46.0355 80.8195L13.1411 80.9769C13.0624 80.9769 13.0624 80.9769 12.9837 80.9769C12.1181 80.8982 11.4885 80.19 11.5672 79.403L13.2198 45.879L13.2985 45.9577Z" fill="black"/>
<path d="M21.4844 28.6449C21.8779 27.9367 22.8222 27.7006 23.5305 28.0941C24.2387 28.4875 24.4748 29.4319 24.0813 30.1401L21.9566 33.7601L23.8452 34.2322C24.6322 34.3896 25.1044 35.1766 24.947 36.0422L24.3961 38.9539L30.2982 49.0269L35.6495 37.38L35.256 35.0979C35.0986 34.2322 35.7282 33.524 36.5151 33.3666H36.5938L34.3903 29.9827C33.9182 29.2745 34.1543 28.3301 34.8625 27.858C35.5708 27.3858 36.5151 27.6219 36.9873 28.3301L40.6072 33.9962C40.7646 34.2322 40.8433 34.4683 40.8433 34.7831C40.8433 35.6488 40.2138 36.2783 39.3481 36.357H38.4825L38.6399 37.2227C38.7186 37.5374 38.6399 37.8522 38.5612 38.167L31.7934 52.8042C31.636 53.0403 31.4786 53.3551 31.1639 53.5125C30.4556 53.9059 29.5113 53.6699 29.1178 52.9616L21.5631 39.977C21.327 39.6622 21.2483 39.2687 21.327 38.7965L21.7205 36.7505L19.2809 36.1996C19.1236 36.1996 18.9662 36.1209 18.8088 36.0422C18.1005 35.6488 17.8644 34.7044 18.2579 33.9962L21.4057 28.6449H21.4844ZM23.2157 22.9789C22.7435 22.2706 22.8222 21.3263 23.5305 20.8541C24.2387 20.382 25.1831 20.4607 25.6552 21.1689C26.1274 21.7985 26.5996 22.3493 27.0717 22.7428C27.8587 23.4511 28.7243 23.8445 29.4326 23.8445C30.2195 23.8445 31.0065 23.6084 31.8721 22.9789C32.3443 22.6641 32.8165 22.1919 33.3673 21.5624C33.9182 20.9328 34.8625 20.8541 35.4921 21.405C36.1216 21.9559 36.2003 22.9002 35.6495 23.5298C35.0199 24.238 34.3903 24.8676 33.6821 25.3397C32.2656 26.3628 30.8491 26.9136 29.3539 26.8349H29.2752C27.78 26.7562 26.3635 26.1267 25.0257 24.9463C24.3961 24.3954 23.7665 23.6871 23.137 22.9002L23.2157 22.9789Z" fill="black"/>
<path d="M28.8809 52.2534C28.8809 51.3877 29.5891 50.7582 30.3761 50.7582C31.2417 50.7582 31.8713 51.4664 31.8713 52.2534L32.0287 79.4031C32.0287 80.2687 31.3204 80.8983 30.5335 80.8983C29.6678 80.8983 29.0382 80.19 29.0382 79.4031L28.8809 52.2534Z" fill="black"/>
<path d="M28.8019 81.6066V81.4492V81.3705L28.8806 81.2131C28.9593 81.0557 29.038 80.8983 29.1953 80.7409C29.3527 80.5835 29.5101 80.5048 29.6675 80.4262L29.8249 80.3475H29.9036H30.061H30.1397H30.2184H30.2971H30.3758H30.5332H30.6119L30.7692 80.4262C30.9266 80.5048 31.084 80.5835 31.2414 80.7409C31.3988 80.8983 31.4775 81.0557 31.5562 81.2131L31.6349 81.3705V81.4492V81.6066V81.6853L33.6023 119.774L43.0456 119.852V79.3244C43.0456 78.4588 43.7539 77.8292 44.5408 77.8292C45.4065 77.8292 46.036 78.5375 46.036 79.3244V121.347C46.036 122.213 45.3278 122.843 44.5408 122.843L32.1857 122.685C31.3201 122.685 30.6905 122.056 30.6119 121.269L30.061 110.802L29.5101 121.269C29.4314 122.134 28.8019 122.764 27.9362 122.685L15.5811 122.843C14.7155 122.843 14.0859 122.213 14.0859 121.347V79.3244C14.0859 78.4588 14.7942 77.8292 15.5811 77.8292C16.4468 77.8292 17.0763 78.5375 17.0763 79.3244V119.852L26.5197 119.774L28.4871 81.6853V81.6066H28.8019Z" fill="black"/>
<path d="M43.6754 51.4664C42.9672 50.9942 42.8885 50.0498 43.3606 49.3416C43.8328 48.6333 44.7771 48.5546 45.4854 49.0268L61.3818 60.7523C61.7752 61.0671 62.4835 61.2245 63.1917 61.2245C63.7426 61.2245 64.3722 60.9884 64.923 60.5163L65.0017 60.4376L80.7407 46.8234C81.6063 46.0364 81.8424 45.0134 81.6063 44.2264C81.5276 43.833 81.2915 43.4395 80.9768 43.1247C80.662 42.8099 80.3472 42.4951 79.9537 42.3378C79.2455 41.9443 78.3798 41.9443 77.5929 42.4951L66.4182 51.7024C65.5526 52.4107 64.5295 52.6468 63.5065 52.4107C62.4835 52.2533 61.5391 51.6237 60.8309 50.9155C59.4931 49.3416 57.447 47.3742 55.401 45.2495C52.0958 41.9443 48.7119 38.4817 47.2167 36.2783C45.8002 35.6487 44.4624 35.2552 43.0459 34.8618C39.9768 33.9961 37.0651 33.2092 34.5468 30.1401C33.8386 29.2744 33.3664 27.9366 33.1303 26.5988C32.8155 24.8675 32.8942 23.0575 33.1303 22.2706C33.3664 21.5623 33.8386 21.0115 34.3107 20.3819C34.7042 19.9097 35.0977 19.3589 35.2551 18.8867C35.2551 18.808 35.3338 18.7293 35.4125 18.6506L35.4912 18.5719C36.1207 17.4702 39.8194 10.7811 36.2781 6.21684C35.0977 4.72164 33.6025 3.85599 31.9499 3.38382C30.4547 2.99035 28.9595 3.06905 27.543 3.54121C26.1265 4.01338 24.8674 4.80033 24.0017 5.98075C23.0574 7.16118 22.5065 8.81377 22.5065 10.8598C22.5065 12.9846 22.8213 14.8733 23.3722 16.6046C23.923 18.3358 24.71 19.9097 25.8117 21.2475C25.9691 21.4049 26.0478 21.641 26.1265 21.8771C26.3626 22.9001 27.4643 28.2514 22.8213 31.5566C22.7426 31.6353 22.5852 31.714 22.4278 31.714C21.6409 32.0287 20.7752 32.3435 19.7522 32.6583C15.5814 34.0748 9.44318 36.1996 8.97101 39.6621L6.0593 79.4817L12.1188 80.0326C12.9844 80.1113 13.5353 80.8195 13.4566 81.6852C13.3779 82.5508 12.6697 83.1017 11.804 83.023L4.32801 82.3147H4.24932C3.38368 82.236 2.75412 81.5278 2.83281 80.6621L5.82322 39.3474V39.19C6.45277 33.76 13.7714 31.3205 18.6505 29.6679C19.5948 29.3531 20.3818 29.0383 21.0113 28.8022C23.7656 26.7562 23.2148 23.5297 23.0574 22.6641C21.877 21.0902 20.9326 19.2802 20.3031 17.3128C19.6735 15.2667 19.3587 13.0633 19.3587 10.6237C19.3587 7.86943 20.1457 5.66597 21.4835 3.93469C22.8213 2.2034 24.5526 1.02298 26.52 0.472117C28.4873 -0.157442 30.6121 -0.236137 32.5795 0.236032C34.8616 0.786896 36.9864 2.04601 38.5603 4.09208C43.3606 10.2303 38.7963 18.4932 38.0881 19.7523V19.831C37.7733 20.6967 37.2224 21.3262 36.7503 22.0345C36.4355 22.428 36.1207 22.9001 36.042 23.1362C35.8846 23.5297 35.9633 24.7101 36.1207 25.9692C36.2781 26.8349 36.5142 27.7005 36.829 28.094C38.7176 30.3761 41.1572 31.0844 43.7541 31.7927C45.328 32.2648 47.0593 32.737 48.7906 33.5239C49.0267 33.6813 49.2628 33.8387 49.4201 34.1535C50.4432 35.9635 53.9844 39.5047 57.447 42.9673C59.4931 45.0921 61.5391 47.1381 62.9557 48.712C63.1917 49.0268 63.5065 49.1842 63.9 49.2629C64.0574 49.2629 64.2148 49.2629 64.3722 49.1842L75.5468 39.8982L75.6255 39.8195C77.4355 38.4817 79.5603 38.5604 81.2128 39.426C81.9211 39.8195 82.6294 40.3704 83.1802 40.9999C83.7311 41.6295 84.1245 42.4165 84.3606 43.2821C84.9115 45.0921 84.518 47.2168 82.6294 48.9481H82.5507L66.8117 62.641L66.733 62.7197C65.6313 63.6641 64.4509 64.0575 63.1917 64.1362H63.113C61.6965 64.2149 60.28 63.7427 59.3357 63.0345L43.4393 51.309L43.6754 51.4664ZM5.82322 39.3474V39.2687V39.3474Z" fill="black"/>
<path d="M89.0825 60.8311C97.6602 60.8311 105.451 64.2936 111.038 69.9597L111.117 70.0383C116.704 75.6257 120.167 83.4165 120.167 91.9155C120.167 100.493 116.704 108.284 111.038 113.871C105.451 119.459 97.6602 123 89.0825 123C80.5048 123 72.714 119.537 67.1266 113.871C61.5393 108.284 57.998 100.493 57.998 91.9155C57.998 83.3378 61.4606 75.547 67.1266 69.9597C72.714 64.3723 80.5048 60.8311 89.0825 60.8311ZM108.914 72.0844C103.877 67.0479 96.8733 63.9002 89.0825 63.9002C81.3704 63.9002 74.3666 67.0479 69.2514 72.0844C64.2149 77.1209 61.0671 84.1247 61.0671 91.9155C61.0671 99.6276 64.2149 106.631 69.2514 111.747C74.2879 116.783 81.2917 119.931 89.0825 119.931C96.7946 119.931 103.798 116.783 108.914 111.747C113.95 106.71 117.098 99.7063 117.098 91.9155C117.098 84.2034 114.029 77.1996 108.992 72.1631L108.914 72.0844ZM111.117 70.0383C111.668 70.6679 111.589 71.5336 111.038 72.0844L111.117 70.0383Z" fill="#FFA200"/>
<path d="M87.5879 63.192C87.5879 62.3263 88.2961 61.6968 89.0831 61.6968C89.9487 61.6968 90.5783 62.405 90.5783 63.192V120.561C90.5783 121.426 89.87 122.056 89.0831 122.056C88.2174 122.056 87.5879 121.347 87.5879 120.561V63.192Z" fill="#FFA200"/>
<path d="M59.5714 93.4108C58.7057 93.4108 58.0762 92.7026 58.0762 91.9156C58.0762 91.05 58.7844 90.4204 59.5714 90.4204H118.671C119.537 90.4204 120.166 91.1287 120.166 91.9156C120.166 92.7813 119.458 93.4108 118.671 93.4108H59.5714Z" fill="#FFA200"/>
<path d="M88.3751 61.8542C89.0834 61.4607 90.0277 61.6968 90.4212 62.4837C90.8147 63.192 90.5786 64.1363 89.7916 64.5298C84.3617 67.4415 80.3482 71.691 77.6726 76.5701C75.1544 81.2131 73.8166 86.4856 73.8166 91.7582C73.8166 97.0307 75.0757 102.303 77.5939 107.025C80.2696 111.983 84.283 116.232 89.7916 119.223C90.4999 119.616 90.8147 120.56 90.4212 121.269C90.0277 121.977 89.0834 122.292 88.3751 121.898C82.3943 118.593 77.9087 113.871 74.997 108.441C72.2427 103.326 70.8262 97.5029 70.8262 91.7582C70.8262 86.0135 72.2427 80.19 74.997 75.0749C77.9087 69.7236 82.3943 65.0019 88.3751 61.8542Z" fill="#FFA200"/>
<path d="M88.3751 64.5298C87.6668 64.1363 87.352 63.192 87.7455 62.4837C88.139 61.7755 89.0833 61.4607 89.7916 61.8541C95.7724 65.0806 100.179 69.7236 103.17 75.0749C105.924 80.19 107.341 85.9348 107.341 91.7582C107.341 97.5029 106.003 103.326 103.17 108.441C100.258 113.871 95.7724 118.593 89.7916 121.898C89.0833 122.292 88.139 122.056 87.7455 121.269C87.352 120.56 87.5881 119.616 88.3751 119.223C93.805 116.232 97.8971 111.983 100.573 107.025C103.091 102.303 104.35 97.0307 104.35 91.7582C104.35 86.4856 103.091 81.2131 100.494 76.5701C97.8184 71.691 93.805 67.4415 88.3751 64.5298Z" fill="#FFA200"/>
<path d="M112.14 73.2649C112.848 72.8714 113.792 73.1075 114.264 73.8157C114.658 74.524 114.422 75.4683 113.713 75.8618C108.52 78.8522 98.7614 80.2687 89.1607 80.2687C79.4812 80.2687 69.8018 78.7735 64.5292 75.8618C63.821 75.4683 63.5062 74.524 63.9783 73.8157C64.3718 73.1075 65.3162 72.8714 66.1031 73.2649C70.9035 75.9405 80.0321 77.2783 89.2394 77.2783C98.4467 77.2783 107.497 75.9405 112.297 73.2649H112.14ZM114.5 106.946C115.209 107.34 115.523 108.284 115.13 108.992C114.736 109.701 113.792 110.015 113.005 109.622C108.126 106.946 98.6828 105.608 89.1607 105.608C79.6386 105.608 70.1952 106.946 65.2375 109.622C64.5292 110.015 63.5849 109.779 63.1127 108.992C62.7192 108.284 62.9553 107.34 63.7423 106.946C69.1722 104.035 79.2451 102.539 89.1607 102.539C99.0762 102.539 109.07 104.035 114.5 106.946Z" fill="#FFA200"/>
</g>
<defs>
<linearGradient id="paint0_linear_592_1502" x1="29.9031" y1="32.1862" x2="29.9031" y2="49.3416" gradientUnits="userSpaceOnUse">
<stop stop-color="#FF8D28"/>
<stop offset="1" stop-color="#FE3F03" stop-opacity="0.9"/>
</linearGradient>
<clipPath id="clip0_592_1502">
<rect width="123" height="123" fill="white"/>
</clipPath>
</defs>
</svg>
