<svg width="97" height="97" viewBox="0 0 97 97" fill="none" xmlns="http://www.w3.org/2000/svg">
<g clip-path="url(#clip0_592_1679)">
<path d="M54.2373 13.1843C65.8359 13.1843 75.239 22.5867 75.2393 34.1853C75.2393 45.784 65.836 55.1873 54.2373 55.1873C42.6387 55.187 33.2363 45.7839 33.2363 34.1853C33.2365 22.5869 42.6389 13.1845 54.2373 13.1843Z" stroke="#FFA200" stroke-width="3"/>
<path d="M59.5221 16.5347C59.9478 16.0288 60.7026 15.9565 61.2166 16.3821C61.7225 16.8077 61.7948 17.5626 61.3691 18.0765L47.7495 34.3302L54.2381 33.6075C54.8966 33.5352 55.4908 34.009 55.5631 34.6675C55.5872 34.8843 55.5471 35.0931 55.4668 35.2858L48.4401 51.1701C48.1751 51.7804 47.4604 52.0534 46.8581 51.7884C46.2478 51.5234 45.9747 50.8087 46.2397 50.2064L52.4232 36.2334L45.0352 37.0606C44.722 37.0927 44.3927 37.0044 44.1358 36.7875C43.6298 36.3619 43.5576 35.607 43.9832 35.0931L59.5302 16.5427L59.5221 16.5347Z" fill="white"/>
<path d="M59.3443 16.8238C59.6093 16.2135 60.324 15.9405 60.9263 16.2055C61.5366 16.4705 61.8097 17.1852 61.5447 17.7875L56.3811 29.528L62.0747 29.3594C62.7332 29.3433 63.2873 29.8653 63.3033 30.5238C63.3114 30.7968 63.223 31.0619 63.0705 31.2626L48.3105 51.3789C47.917 51.917 47.1701 52.0294 46.6321 51.6359C46.0941 51.2424 45.9816 50.4956 46.3751 49.9575L59.6816 31.8167L54.6304 31.9693C54.4297 31.9854 54.2289 31.9613 54.0362 31.8729C53.4259 31.6079 53.1528 30.8932 53.4178 30.2909L59.3524 16.8078L59.3443 16.8238Z" fill="white"/>
<path d="M70.507 65.9542C70.5552 65.906 86.7286 50.351 84.9137 30.4194C84.7531 28.6607 84.4479 26.9502 84.0062 25.304C82.0388 17.916 77.3811 11.869 71.2057 7.84575C65.0062 3.80642 57.2808 1.81487 49.2022 2.54564C47.1303 2.73034 45.0344 3.09974 42.9224 3.66187C35.5665 5.62131 30.4511 8.9941 26.9096 12.6239C20.7101 18.976 19.3369 26.0348 19.2807 27.689C19.2566 28.4359 19.4814 29.6966 19.7545 31.1743C20.3809 34.6033 21.208 39.1083 19.8187 42.698C18.9434 44.9545 17.1446 47.6769 15.4501 50.2225C13.5148 53.1376 11.7401 55.8117 11.9328 56.5505C12.3343 57.988 17.2008 58.3092 17.2169 58.3092C17.8513 58.3493 18.3491 58.8794 18.3491 59.5057C18.3491 59.5138 18.4616 62.1076 17.2329 63.0632C17.249 63.0632 17.2811 63.0632 17.2811 63.0954C17.3052 63.3202 17.4016 63.5852 17.5622 63.8422C17.7067 64.0831 17.8994 64.316 18.1243 64.4927C19.2084 65.368 21.0875 65.9783 21.0956 65.9783C21.7219 66.1871 22.0673 66.8616 21.8585 67.488C21.73 67.8815 21.4168 68.1626 21.0474 68.267C21.0474 68.267 19.6983 68.6043 19.8027 69.1503C19.9071 69.7446 20.0837 70.1622 20.3568 70.4111C20.6137 70.652 21.0313 70.7805 21.6175 70.8046H21.6256C22.1957 70.8287 22.6133 70.7243 22.9185 70.644C24.1712 70.3228 24.7414 70.1863 25.2714 71.7843C25.3116 71.9128 24.9261 71.953 24.7334 71.961L24.7093 71.969C25.3357 72.0092 25.8335 72.5312 25.8335 73.1656C25.8335 73.3101 25.8095 73.4466 25.7613 73.5751L25.7452 73.6153C25.5846 74.0489 24.2274 77.9276 25.4963 80.7142C26.1066 82.0633 26.8374 82.7218 27.6484 82.9627H27.6565C28.5478 83.2277 29.656 83.0671 30.8686 82.762C33.6713 82.0633 39.0356 80.5295 39.0517 80.5215C39.6861 80.3368 40.3526 80.6981 40.5373 81.3325C40.5614 81.4128 40.5775 81.5012 40.5855 81.5895L41.5331 94.5828H77.3651L70.1778 67.0945C70.0653 66.6689 70.2019 66.2272 70.499 65.9381L70.507 65.9542ZM87.2987 30.2026C89.0253 49.1625 75.4538 64.2919 72.6753 67.1668L80.0553 95.3939C80.1034 95.5224 80.1275 95.6589 80.1275 95.7954C80.1275 96.4619 79.5895 97 78.923 97H40.4249C39.7985 97 39.2685 96.5182 39.2284 95.8837L38.3049 83.2358C36.4819 83.7497 33.3501 84.625 31.4549 85.0988C29.8729 85.4923 28.3712 85.6851 26.9739 85.2675C25.5043 84.8338 24.2515 83.7738 23.312 81.71C21.8906 78.5781 22.8864 74.6833 23.328 73.294C23.2879 73.2218 23.2397 73.1415 23.1995 73.0531C22.79 73.1495 22.252 73.2378 21.5132 73.2057C20.3246 73.1575 19.4092 72.8203 18.7266 72.1858C18.044 71.5595 17.6344 70.7002 17.4337 69.584C17.249 68.5721 17.5622 67.8253 18.044 67.2792C17.5461 67.0142 17.0402 66.7091 16.6146 66.3638C16.1488 65.9944 15.7714 65.5446 15.4983 65.0869C15.1611 64.5248 14.9442 63.9305 14.88 63.3925C14.7916 62.7019 14.9362 62.0434 15.3217 61.5615V61.5535C15.4582 61.3849 15.6268 61.2323 15.8115 61.1199C15.8597 61.0877 15.8838 60.8549 15.8999 60.5738C13.9645 60.2847 10.2223 59.4415 9.60397 57.193V57.1849C9.11411 55.4022 11.1779 52.2863 13.4265 48.9055C15.0486 46.4562 16.7832 43.8463 17.5622 41.8387C18.7105 38.8755 17.9557 34.7558 17.3775 31.6079C17.0803 29.9938 16.8314 28.6206 16.8635 27.6087C16.9278 25.7457 18.4295 17.8678 25.175 10.9535C28.9815 7.05073 34.4663 3.42899 42.304 1.34107C44.5285 0.746816 46.7609 0.353323 48.9773 0.152561C57.6101 -0.634425 65.8734 1.50168 72.5066 5.8301C79.1639 10.1666 84.1909 16.7034 86.319 24.6856C86.7848 26.4443 87.114 28.2913 87.2907 30.1945L87.2987 30.2026ZM24.7334 71.969H24.645H24.7093L24.7334 71.961V71.969Z" fill="white"/>
</g>
<defs>
<clipPath id="clip0_592_1679">
<rect width="97" height="97" fill="white"/>
</clipPath>
</defs>
</svg>
