<svg width="123" height="123" viewBox="0 0 123 123" fill="none" xmlns="http://www.w3.org/2000/svg">
<g clip-path="url(#clip0_592_1536)">
<path d="M52.4739 84.3007C51.9046 83.6806 51.9453 82.7149 52.5654 82.1457C53.1855 81.5764 54.1512 81.6171 54.7204 82.2371L61.2567 89.3528C61.826 89.9729 61.7853 90.9386 61.1652 91.5079C61.0432 91.6197 60.9009 91.7112 60.7484 91.7823L55.1575 94.4863C54.4053 94.8523 53.4904 94.5371 53.1245 93.7747C52.7585 93.0225 53.0737 92.1076 53.836 91.7417L57.6277 89.9119L52.4739 84.3109V84.3007Z" fill="url(#paint0_linear_592_1536)"/>
<path fill-rule="evenodd" clip-rule="evenodd" d="M42.8164 87.95C66.6235 75.2536 93.2464 72.1837 107.02 80.8547C95.2896 60.5343 53.3476 70.7504 42.8164 87.95Z" fill="white"/>
<path d="M31.147 95.1674C30.6693 94.4762 30.8421 93.5308 31.5333 93.0429C32.2246 92.5651 33.1699 92.7379 33.6579 93.4292C36.6871 97.7901 40.2145 101.694 44.2094 105.14C48.2349 108.606 52.7584 111.625 57.7598 114.207C58.146 114.4 58.5425 114.502 58.9288 114.492H58.9694C59.3354 114.471 59.7217 114.36 60.0876 114.136L66.6747 110.222C67.0508 109.999 67.3456 109.704 67.5388 109.358C67.7319 109.013 67.8437 108.606 67.8437 108.179V108.169C67.8437 107.732 67.7421 107.325 67.5489 106.98C67.3558 106.634 67.061 106.339 66.6849 106.115C62.5984 103.645 58.8068 100.86 55.4116 97.6579C52.0164 94.4559 49.0176 90.837 46.5373 86.6998C46.1103 85.978 46.3441 85.0428 47.0557 84.6159C47.7775 84.1889 48.7127 84.4227 49.1396 85.1343C51.4675 89.0073 54.2832 92.4126 57.4955 95.4317C60.7077 98.461 64.3367 101.124 68.2503 103.493C69.0839 103.991 69.7446 104.672 70.1919 105.475C70.629 106.258 70.8628 107.162 70.873 108.128V108.159V108.169C70.873 109.145 70.629 110.06 70.1716 110.852C69.7141 111.645 69.0534 112.326 68.2097 112.825L61.6226 116.738C60.8195 117.216 59.9453 117.47 59.0609 117.511H59.0203C58.1156 117.541 57.2108 117.338 56.3671 116.901C51.1523 114.217 46.4356 111.066 42.217 107.427C38.0188 103.808 34.3186 99.7113 31.1572 95.1573L31.147 95.1674Z" fill="white"/>
<path d="M23.7667 57.9828C23.35 57.2611 23.6041 56.3259 24.3258 55.9091C25.0476 55.4923 25.9828 55.7465 26.3995 56.4682L44.138 87.1979C44.5547 87.9196 44.3006 88.8548 43.5789 89.2716C42.8571 89.6884 41.9219 89.4342 41.5052 88.7125L23.7667 57.9828ZM37.0223 91.6198C37.439 92.3415 37.1951 93.2767 36.4733 93.6935C35.7516 94.1103 34.8164 93.8663 34.3996 93.1446L16.59 62.2929C16.1733 61.5712 16.4172 60.636 17.139 60.2192C17.8607 59.8024 18.7959 60.0464 19.2127 60.7681L37.0223 91.6198Z" fill="white"/>
<path d="M7.67429 65.3324C25.1688 56.3259 38.7394 46.9332 48.061 37.1237C57.2504 27.4565 62.2924 17.3929 62.8616 6.91244C62.9023 6.07889 63.624 5.42831 64.4576 5.46897C64.9862 5.49947 65.4436 5.79426 65.6978 6.2212L108.341 80.072C108.758 80.7938 108.514 81.729 107.792 82.1457C107.284 82.4405 106.684 82.41 106.217 82.1152C97.2203 76.4532 86.008 75.3757 72.8541 78.3439C59.4766 81.363 44.0965 88.56 26.9883 99.3861C26.9375 99.4166 26.8969 99.4369 26.846 99.4674C23.7558 101.226 20.2284 102.121 16.4368 101.043C12.7264 99.9858 8.82297 97.0176 4.92966 91.0505C4.17743 89.9019 3.49636 88.7227 2.88644 87.5638C0.843218 83.5994 -0.254634 79.6044 0.0503252 75.9551C0.375614 72.1431 2.20537 68.7682 6.04785 66.2574C6.55611 65.9321 7.09487 65.6068 7.67429 65.312V65.3324ZM50.2669 39.2177C40.7013 49.2814 26.8562 58.8774 9.06694 68.0363C8.579 68.2905 8.12156 68.5548 7.70479 68.8292C4.74669 70.7606 3.33371 73.3324 3.08975 76.2194C2.82545 79.269 3.80132 82.715 5.59041 86.1814C6.13933 87.2589 6.77975 88.3364 7.48115 89.4038C10.917 94.6694 14.2207 97.2514 17.2703 98.1154C20.1573 98.9388 22.9121 98.2171 25.3517 96.8346L25.3721 96.8143C42.7649 85.8053 58.4601 78.4761 72.1934 75.3858C83.9546 72.7327 94.2927 73.1596 103.076 77.0224L65.3826 11.741C63.7257 21.2862 58.6227 30.4349 50.277 39.2177H50.2669Z" fill="white"/>
<path d="M108.677 56.3766C108.525 57.2 107.722 57.7388 106.898 57.5863C106.075 57.4338 105.536 56.6308 105.689 55.8074C106.908 49.5354 105.404 42.989 102.232 37.4895C98.9083 31.736 93.785 27.1514 88.0416 25.22C87.2487 24.9557 86.8116 24.0917 87.0861 23.2988C87.3504 22.5059 88.2144 22.0688 89.0073 22.3433C95.4521 24.5085 101.185 29.6114 104.865 35.9851C108.382 42.0843 110.049 49.3728 108.677 56.3868V56.3766Z" fill="url(#paint1_linear_592_1536)"/>
<path d="M88.083 11.2529C87.2495 11.1919 86.609 10.4702 86.67 9.62647C86.731 8.79291 87.4528 8.1525 88.2965 8.21349C89.6485 8.31515 91.0004 8.50829 92.3118 8.78275C101.969 10.8056 110.06 17.4029 115.509 26.4297C120.897 35.365 123.712 46.6993 122.848 58.3284C122.665 60.768 122.32 63.228 121.801 65.688C121.628 66.5114 120.825 67.04 120.002 66.8672C119.179 66.6944 118.65 65.8913 118.823 65.068C119.311 62.7604 119.636 60.4326 119.809 58.1149C120.622 47.1161 117.979 36.412 112.907 28.0053C107.885 19.6799 100.474 13.6113 91.6917 11.7713C90.5227 11.5274 89.313 11.3546 88.083 11.2631V11.2529Z" fill="url(#paint2_linear_592_1536)"/>
<path fill-rule="evenodd" clip-rule="evenodd" d="M16.0305 67.4873L29.4182 90.6642C29.4182 90.6642 22.15 97.1293 17.0267 94.9133C11.9034 92.6973 4.52336 80.2346 5.88551 75.1621C6.48526 70.6691 16.0305 67.4772 16.0305 67.4772V67.4873Z" fill="#FFA200"/>
<path d="M64.103 28.7474C64.4791 27.9952 65.394 27.6902 66.1361 28.0664C66.8883 28.4425 67.1933 29.3574 66.8171 30.0994C66.7968 30.1502 58.2986 47.1568 35.0811 60.5546C34.3594 60.9714 33.4242 60.7173 33.0074 59.9955C32.5906 59.2738 32.8447 58.3386 33.5665 57.9218C55.9809 44.9814 64.0725 28.7881 64.0928 28.7474H64.103Z" fill="white"/>
</g>
<defs>
<linearGradient id="paint0_linear_592_1536" x1="56.8653" y1="81.744" x2="56.8653" y2="94.6387" gradientUnits="userSpaceOnUse">
<stop stop-color="white"/>
<stop offset="1" stop-color="white" stop-opacity="0.9"/>
</linearGradient>
<linearGradient id="paint1_linear_592_1536" x1="98.0802" y1="22.2611" x2="98.0802" y2="57.6121" gradientUnits="userSpaceOnUse">
<stop stop-color="white"/>
<stop offset="1" stop-color="white" stop-opacity="0.9"/>
</linearGradient>
<linearGradient id="paint2_linear_592_1536" x1="104.834" y1="8.20947" x2="104.834" y2="66.8999" gradientUnits="userSpaceOnUse">
<stop stop-color="white"/>
<stop offset="1" stop-color="white" stop-opacity="0.9"/>
</linearGradient>
<clipPath id="clip0_592_1536">
<rect width="123" height="123" fill="white"/>
</clipPath>
</defs>
</svg>
