<svg width="123" height="123" viewBox="0 0 123 123" fill="none" xmlns="http://www.w3.org/2000/svg">
<path d="M95.5878 70.4516C94.8735 69.9605 94.6502 69.0229 95.1413 68.3086C95.6324 67.5942 96.57 67.371 97.2843 67.8621C98.2219 68.4872 98.9809 69.2908 99.5166 70.273C100.008 71.2106 100.32 72.2821 100.32 73.4429C100.32 75.318 99.5613 76.9699 98.3559 78.1754C97.1504 79.3808 95.4539 80.1398 93.6234 80.1398C93.668 80.363 93.668 80.6309 93.668 80.8988C93.668 82.8632 92.8644 84.6937 91.5696 85.9884L91.525 86.0331C90.2303 87.3278 88.4444 88.0868 86.48 88.0868C86.0335 88.0868 85.5424 88.0421 85.1406 87.9529C85.0513 89.6941 84.337 91.3013 83.1762 92.4621C81.9707 93.6676 80.2742 94.4265 78.4437 94.4265C77.9079 94.4265 77.3722 94.3819 76.8811 94.248C76.6578 95.632 76.0328 96.8374 75.0952 97.8196C73.9344 98.9804 72.3272 99.6948 70.5413 99.6948C68.8894 99.6948 65.7642 99.4269 62.3264 98.7126C59.9156 98.1768 57.3261 97.4178 54.9152 96.3463C54.1116 95.9892 53.799 95.0516 54.1116 94.2926C54.4687 93.489 55.4063 93.1765 56.1653 93.489C58.3529 94.4712 60.7192 95.1855 62.9515 95.6766C66.166 96.3463 69.0234 96.6142 70.5413 96.6142C71.4343 96.6142 72.2825 96.257 72.8629 95.632C73.4433 95.0516 73.8451 94.2033 73.8451 93.3104C73.8451 93.1318 73.8451 92.9086 73.8005 92.7746C73.7558 92.5961 73.7112 92.4175 73.6666 92.2835C73.488 91.7924 73.5773 91.1674 73.9344 90.7209C74.5148 90.0512 75.497 90.0066 76.1221 90.5423C76.4346 90.8102 76.7918 91.0334 77.1936 91.1674C77.5954 91.3013 77.9972 91.3906 78.4437 91.3906C79.4259 91.3906 80.3188 90.9888 80.9885 90.3191C81.6582 89.6494 82.06 88.7565 82.06 87.7743C82.06 87.4618 82.0154 87.1939 81.9707 86.926C81.9261 86.6581 81.7921 86.3902 81.7029 86.167C81.3903 85.6313 81.435 84.9169 81.8368 84.4258C82.3725 83.7561 83.3548 83.6222 84.0245 84.1579C84.3816 84.4258 84.7834 84.649 85.2299 84.8276C85.6317 84.9616 86.0782 85.0509 86.5693 85.0509C87.6854 85.0509 88.7123 84.6044 89.4266 83.8901C90.141 83.1757 90.6321 82.1489 90.6321 81.0327C90.6321 80.6755 90.5874 80.3184 90.4981 79.9612C90.4088 79.604 90.2749 79.2915 90.0963 78.979C89.8284 78.5325 89.7838 77.9968 90.0517 77.5057C90.4535 76.7467 91.3911 76.4342 92.15 76.7913C92.3733 76.9253 92.6412 77.0146 92.9537 77.0592C93.2215 77.1039 93.4894 77.1485 93.8019 77.1485C94.7842 77.1485 95.6771 76.7467 96.3468 76.077C97.0165 75.4073 97.4183 74.5144 97.4183 73.5322C97.4183 72.9071 97.2843 72.3267 97.0165 71.8356C96.7486 71.2999 96.3021 70.8534 95.811 70.5409L95.5878 70.4516Z" fill="black"/>
<path d="M97.4624 67.9514C98.1321 68.4872 98.2214 69.514 97.641 70.1391C97.1052 70.8088 96.0784 70.8981 95.4533 70.3177C90.5423 66.1656 85.6312 62.0135 79.6933 57.9507C73.8893 53.9325 67.0138 49.959 60.1383 45.9409C58.6649 46.2088 57.147 46.5659 55.3611 47.95C54.2896 48.7536 52.9949 50.0037 51.6555 51.2984C50.3161 52.5932 48.9321 53.9325 47.5481 55.0487C46.0747 56.2095 44.6461 57.1024 43.2174 57.5489C41.6548 58.0846 40.1368 58.1293 38.7081 57.6382C37.1455 57.1024 35.6722 55.8523 34.9132 54.1111C34.2882 52.6824 34.1096 50.8966 34.7346 48.9322C35.9401 45.1819 40.1368 40.7173 42.9049 37.7706L42.9495 37.726L42.9942 37.6814C45.8069 34.6454 47.1463 33.2614 50.9858 32.1899C52.727 31.6988 54.9147 31.3416 57.1916 31.0737C59.7365 30.7612 62.4152 30.5826 64.7815 30.538C66.9691 30.4933 68.8443 30.5826 70.4962 30.7166C72.1927 30.8951 73.6214 31.1184 75.0054 31.3863C75.6305 31.5202 76.2555 31.6541 76.8806 31.7881H76.9252C78.845 32.1899 80.7648 32.5917 82.7738 32.681C84.1132 32.7256 85.5865 32.6363 86.9259 32.5024C88.176 32.3685 89.4261 32.1899 90.2744 32.0559L91.8816 31.7881C92.7299 31.6541 93.5335 32.2345 93.6675 33.0828C93.8014 33.9311 93.221 34.7347 92.3727 34.8687L90.7655 35.1365C89.9619 35.2705 88.7564 35.4491 87.2831 35.583C85.8544 35.7169 84.2472 35.8509 82.7292 35.8062C80.4076 35.7169 78.3539 35.3151 76.3002 34.8687H76.2555C75.6751 34.7347 75.0501 34.6008 74.4697 34.5115C73.1303 34.2436 71.7909 34.0204 70.2729 33.8864C68.7103 33.7525 66.9691 33.6632 64.9154 33.7079C62.7277 33.7525 60.1383 33.9311 57.6381 34.2436C55.4504 34.5115 53.3967 34.8687 51.8787 35.2705C48.8874 36.0741 47.7713 37.2795 45.3158 39.869L45.2711 39.9137L45.2265 39.9583C42.637 42.6817 38.7528 46.8338 37.7706 49.9144C37.4134 51.0752 37.5027 52.102 37.8152 52.9057C38.217 53.7986 38.976 54.4683 39.8243 54.7362C40.5833 55.004 41.4316 54.9594 42.3245 54.6469C43.396 54.2897 44.5121 53.5754 45.7176 52.6378C46.9677 51.6556 48.307 50.3608 49.5571 49.1108C50.9412 47.7714 52.2806 46.4766 53.5306 45.4944C56.1648 43.4853 58.2185 43.1282 60.2276 42.8157C60.5847 42.771 60.9419 42.8157 61.2544 42.9942L61.2991 43.0389C68.3978 47.1463 75.4519 51.2538 81.5237 55.4059C87.5956 59.6026 92.596 63.7993 97.5517 67.9514H97.4624ZM75.3626 90.0959C76.2109 90.3191 76.702 91.1227 76.5234 91.971C76.3002 92.8193 75.4965 93.3104 74.6482 93.1318C71.2551 92.2835 67.9067 91.1227 64.6029 89.6048C61.2991 88.0868 57.9953 86.2117 54.7361 83.9794C54.0218 83.4883 53.8432 82.506 54.3343 81.7917C54.8254 81.0774 55.8076 80.8988 56.5219 81.3899C59.6472 83.4883 62.7724 85.3187 65.9423 86.7474C69.0675 88.1761 72.2374 89.2922 75.4072 90.0959H75.3626ZM83.3989 83.8008C84.2025 84.0686 84.6936 84.9169 84.4257 85.7652C84.1579 86.5688 83.3096 87.0599 82.4613 86.7921C78.8003 85.6313 74.8715 84.024 70.764 82.0149C66.6566 80.0059 62.3706 77.5503 57.906 74.7376C57.1916 74.2912 56.9684 73.3089 57.4149 72.5946C57.8613 71.8803 58.8435 71.657 59.5579 72.1035C63.9778 74.9162 68.1746 77.2824 72.1481 79.2469C76.0769 81.2113 79.8272 82.7293 83.3989 83.8454V83.8008Z" fill="black"/>
<path d="M91.7478 76.5681C92.5514 76.8359 92.9979 77.7289 92.7746 78.5325C92.5068 79.3361 91.6138 79.7826 90.8102 79.5593C88.8011 78.9343 85.542 77.4163 81.0327 75.0501C76.5681 72.7285 70.8534 69.5586 63.9779 65.5851C63.2189 65.1387 62.9957 64.2011 63.3975 63.4421C63.844 62.6831 64.7815 62.4599 65.5405 62.8617C72.4607 66.8799 78.0861 70.0051 82.4614 72.282C86.7921 74.559 89.9173 75.9877 91.7924 76.5681H91.7478ZM96.8374 70.4069C96.0338 70.7641 95.1409 70.4069 94.7837 69.6033C94.4265 68.7996 94.7837 67.9067 95.5873 67.5495C97.5964 66.6566 99.4269 65.5405 101.079 64.2457C102.775 62.9064 104.293 61.3437 105.633 59.5579C106.168 58.8882 107.106 58.7543 107.82 59.2454C108.49 59.7811 108.624 60.7187 108.133 61.433C106.615 63.4421 104.918 65.228 103.043 66.7013C101.168 68.2192 99.0697 69.4693 96.8821 70.4515L96.8374 70.4069ZM30.0022 64.7368C29.9576 64.6922 29.8683 64.6476 29.8236 64.6029C28.9754 63.9779 27.9932 63.7546 27.0109 63.8439C26.0287 63.9332 25.0912 64.4243 24.4215 65.228C24.3768 65.2726 24.3322 65.3619 24.2429 65.4065L20.0908 70.6301L20.0015 70.7194C19.3318 71.5677 19.0639 72.6392 19.1532 73.6214C19.2872 74.6483 19.7783 75.5858 20.6265 76.3002C21.4748 76.9699 22.5463 77.2378 23.5285 77.1485C24.5554 77.0145 25.5376 76.5234 26.2073 75.6751L30.4487 70.3623C30.4933 70.273 30.538 70.1837 30.6273 70.139C31.2523 69.2907 31.4755 68.3085 31.3863 67.3263C31.297 66.3441 30.8059 65.4065 30.0022 64.7368ZM31.8774 62.2367C33.3953 63.4421 34.2882 65.1833 34.4668 66.9692C34.6454 68.755 34.199 70.6301 32.9489 72.1927L28.6182 77.5949C27.4128 79.1129 25.6716 80.0058 23.8411 80.229C22.0552 80.4076 20.1354 79.9612 18.6175 78.7111C17.0995 77.5056 16.2066 75.7644 16.028 73.9339C15.8494 72.1481 16.2959 70.2283 17.546 68.7103L17.6353 68.6211L21.8766 63.3082C23.0821 61.7902 24.8233 60.8973 26.6091 60.7187C28.395 60.5401 30.2701 60.9866 31.8327 62.2367H31.8774Z" fill="black"/>
<path d="M44.2888 64.2458C44.5567 64.3797 44.8245 64.5583 45.0478 64.7369C46.2532 65.7191 46.9676 67.1478 47.1015 68.6657C47.2801 70.0944 46.9676 71.657 46.2979 72.9964C46.0746 73.4429 45.8068 73.8893 45.4496 74.2911L35.0471 87.3724C33.8416 88.8904 32.1451 89.694 30.3592 89.8726C28.4841 90.0959 26.5643 89.6048 25.091 88.4886L24.957 88.3993H24.9124C23.3498 87.1492 22.5461 85.408 22.4122 83.6222C22.2783 81.881 22.7694 80.0505 23.8409 78.6665L23.8855 78.5772L23.9302 78.5325L34.3327 65.4512L34.422 65.3619C35.6274 63.8886 37.324 63.0403 39.1098 62.8617C40.851 62.6832 42.7262 63.1296 44.1995 64.2904L44.2888 64.2458ZM43.128 67.1924C43.0387 67.1031 42.9048 67.0138 42.7708 66.9692C42.6369 66.9245 42.5476 66.8352 42.4583 66.7906C41.61 66.1209 40.5385 65.853 39.5563 65.9423C38.5741 66.0316 37.6365 66.5227 36.9668 67.3264L36.9222 67.4156L26.5196 80.497V80.5416L26.475 80.5862C25.8946 81.3899 25.5821 82.4167 25.6714 83.3989C25.7607 84.3812 26.1625 85.3187 27.0108 85.9884L27.1 86.0777C27.9037 86.7028 29.0198 86.926 30.136 86.8367C31.1182 86.7474 32.1004 86.3009 32.7255 85.4973L43.128 72.416C43.3066 72.1928 43.4852 71.9249 43.6191 71.657C44.0209 70.8534 44.1995 69.9158 44.1102 69.0675C44.0209 68.3086 43.7084 67.6389 43.2173 67.2371L43.128 67.1924Z" fill="black"/>
<path d="M51.4775 73.4429C52.8168 74.7823 53.6651 76.5235 53.8884 78.3093C54.0669 80.0505 53.6651 81.7917 52.4597 83.3097L44.3341 93.6229C43.1286 95.1409 41.5214 95.9445 39.7802 96.1231C37.9943 96.3017 36.1192 95.8552 34.5119 94.8284C34.3334 94.7391 34.1548 94.6051 34.0208 94.4712C32.5475 93.3104 31.8332 91.6585 31.6992 89.9619C31.5653 88.3547 32.0118 86.6581 32.86 85.3187L32.9047 85.2741C32.994 85.1402 33.1279 84.9616 33.2619 84.783L41.3874 74.4697L41.4321 74.4251L41.4767 74.3804C42.6822 72.9071 44.3787 72.0142 46.1646 71.8356C47.9504 71.657 49.8256 72.1035 51.3435 73.3089H51.3882C51.4328 73.3536 51.4775 73.3982 51.5221 73.4429H51.4775ZM50.7631 78.6218C50.6292 77.595 50.1381 76.5235 49.2898 75.6752C48.4415 75.0501 47.4147 74.7823 46.4325 74.8716C45.4502 74.9608 44.5127 75.4519 43.843 76.2556L43.7983 76.3002L35.6727 86.6135C35.6281 86.7028 35.5388 86.7921 35.4942 86.8814V86.926C35.0031 87.7296 34.7352 88.7118 34.8245 89.6494C34.8691 90.5423 35.2709 91.3906 35.9853 91.9264C36.0746 91.971 36.1639 92.0603 36.2085 92.1049C37.2354 92.7746 38.3962 93.0425 39.4677 92.9532C40.4052 92.8639 41.2982 92.4175 41.9232 91.6138L50.0488 81.3006C50.6738 80.497 50.9417 79.5147 50.8078 78.5772L50.7631 78.6218Z" fill="black"/>
<path d="M56.4329 84.9616C57.9062 86.167 58.7545 87.8636 58.9331 89.6494C59.1116 91.4352 58.6652 93.355 57.4151 94.873L54.5577 98.4447C53.3523 99.9626 51.6111 100.856 49.7806 101.034C47.9948 101.213 46.075 100.766 44.557 99.5162C43.039 98.3107 42.1461 96.5695 41.9675 94.7391C41.789 92.9532 42.2354 91.0781 43.4855 89.5155L46.3429 85.9438C47.5483 84.4258 49.2895 83.5329 51.12 83.3543C52.9058 83.1757 54.8256 83.6222 56.3436 84.8723L56.4329 84.9616ZM55.8525 89.9619C55.7632 88.9797 55.2721 88.0421 54.4684 87.3724L54.3792 87.3278C53.5309 86.6581 52.4594 86.3902 51.4772 86.4795C50.4503 86.6135 49.5127 87.1046 48.7984 87.9528L45.941 91.5245C45.2713 92.3728 45.0035 93.4443 45.0928 94.4265C45.2267 95.4534 45.7178 96.391 46.5661 97.1053C47.4144 97.775 48.4859 98.0429 49.4681 97.9536C50.4949 97.8196 51.4325 97.3285 52.1468 96.4802L55.0042 92.9086C55.6739 92.0603 55.9418 90.9888 55.8525 90.0066V89.9619ZM45.2267 35.9401C46.075 35.9401 46.7893 36.6098 46.7893 37.4581C46.7893 38.3064 46.1196 39.0207 45.2713 39.0207C41.3425 39.0654 38.5744 39.0207 36.2975 38.485C33.8419 37.8599 32.1007 36.6545 30.4488 34.3775C29.9577 33.6632 30.0917 32.7256 30.806 32.1899C31.5203 31.6988 32.4579 31.8327 32.9937 32.547C34.1545 34.1543 35.4046 35.0026 37.1011 35.449C39.0209 35.9401 41.6104 35.9848 45.2267 35.8955V35.9401ZM21.2517 67.9514C21.5643 68.755 21.1625 69.6479 20.3588 69.9605C19.5552 70.273 18.6623 69.8712 18.3498 69.0675C17.9033 67.9067 17.5015 67.0138 16.9211 66.1656C16.296 65.2726 15.3585 64.3351 13.7959 63.085C13.1262 62.5492 13.0369 61.567 13.5726 60.8973C14.1084 60.2276 15.0906 60.1383 15.7603 60.6741C17.5461 62.1474 18.6623 63.2636 19.4659 64.3797C20.3142 65.5405 20.7606 66.5674 21.2964 67.9514H21.2517Z" fill="black"/>
<path d="M16.2951 61.7902C16.1612 62.6385 15.3575 63.2189 14.5093 63.085C13.661 62.951 13.0806 62.1474 13.2145 61.2991C14.2414 54.6915 16.3398 49.1107 19.331 44.3336C22.3223 39.5565 26.2065 35.583 30.7158 32.1899C31.3855 31.6541 32.3677 31.8327 32.9035 32.5024C33.4392 33.1721 33.2606 34.1543 32.5909 34.6901C28.3496 37.8599 24.7779 41.5655 22.0098 45.9855C19.2418 50.4501 17.2773 55.6291 16.2951 61.7456V61.7902ZM108.445 60.183C108.579 61.0312 107.998 61.8349 107.15 61.9688C106.302 62.1028 105.498 61.5224 105.364 60.6741C104.56 55.763 102.551 50.2269 99.9173 45.3605C97.4171 40.7619 94.3365 36.8331 91.1666 34.5561C90.4523 34.065 90.3183 33.0828 90.8094 32.3685C91.3006 31.6541 92.2828 31.5202 92.9971 32.0113C96.5688 34.5561 99.9619 38.8868 102.685 43.8425C105.498 49.0214 107.641 54.8701 108.489 60.1383L108.445 60.183Z" fill="black"/>
<path d="M26.9216 27.636C27.5913 27.1002 28.5735 27.1895 29.1092 27.8145C29.645 28.4842 29.5557 29.4665 28.9306 30.0022C24.9125 33.3953 21.0729 38.2171 17.9031 43.4853C14.6439 48.9322 12.1437 54.8254 10.9383 60.0937C10.7597 60.942 9.9114 61.4777 9.06312 61.2545C8.21485 61.0759 7.67909 60.2276 7.90233 59.3793C9.15242 53.7986 11.8312 47.5928 15.2243 41.8781C18.5281 36.342 22.6355 31.2077 26.9216 27.5913V27.636Z" fill="#FFA200"/>
<path fill-rule="evenodd" clip-rule="evenodd" d="M20.18 22.2784L26.2519 26.118C16.028 34.7347 10.2686 46.1195 6.07187 58.5757L0 54.7362C4.19673 42.3245 9.95608 30.8951 20.18 22.2784Z" fill="url(#paint0_linear_592_1519)"/>
<path d="M94.3367 30.4933C93.6671 29.9575 93.5331 28.9753 94.0689 28.3056C94.6046 27.6359 95.5868 27.502 96.2565 28.0377C100.453 31.2969 104.293 36.074 107.373 41.3423C110.633 46.9677 113.088 53.2181 114.294 58.8882C114.472 59.7365 113.936 60.5401 113.088 60.7187C112.24 60.8973 111.436 60.3615 111.258 59.5132C110.141 54.1557 107.82 48.2178 104.695 42.9049C101.793 37.9492 98.2656 33.5292 94.3814 30.4933H94.3367Z" fill="#FFA200"/>
<path fill-rule="evenodd" clip-rule="evenodd" d="M103.267 21.9658L97.1953 25.8054C107.419 34.4221 112.688 45.9854 116.884 58.4417L122.956 54.6021C118.759 42.1905 113.491 30.5825 103.267 21.9658Z" fill="url(#paint1_linear_592_1519)"/>
<defs>
<linearGradient id="paint0_linear_592_1519" x1="13.126" y1="22.2784" x2="13.126" y2="58.5757" gradientUnits="userSpaceOnUse">
<stop stop-color="#FF8D28"/>
<stop offset="1" stop-color="#FE3F03" stop-opacity="0.9"/>
</linearGradient>
<linearGradient id="paint1_linear_592_1519" x1="110.076" y1="21.9658" x2="110.076" y2="58.4417" gradientUnits="userSpaceOnUse">
<stop stop-color="#FF8D28"/>
<stop offset="1" stop-color="#FE3F03" stop-opacity="0.9"/>
</linearGradient>
</defs>
</svg>
