<svg width="1515" height="1142" viewBox="0 0 1515 1142" fill="none" xmlns="http://www.w3.org/2000/svg">
<path d="M1119.94 96.9223C1127.63 150.14 1093.16 209.728 1040.19 234.958C1002.47 252.9 957.509 254.824 924.196 280.015C883.608 310.617 874.916 362.186 860.562 405.108C842.548 458.929 814.442 493.332 754.821 509.174C710.634 520.953 665.416 515.453 624.196 539.151C548.382 582.72 552.634 675.688 559.573 743.678C566.564 812.144 575.642 883.645 529.926 947.199C492.478 999.314 440.511 1026.09 379.45 1041.95C350.101 1049.61 322.567 1059.24 292.201 1055.06" stroke="#FFA200" stroke-miterlimit="10"/>
<path d="M288.366 1053.85C319.104 1057.51 347.189 1047.86 376.873 1040.01C398.715 1034.26 419.387 1027.07 438.711 1017.94C474.126 1001.23 504.883 977.612 529.351 943.492C536.871 932.889 543.032 922.062 547.876 911.086C572.46 855.088 564.224 795.117 558.776 737.07C552.238 667.838 550.983 574.251 627.946 530.927C669.424 507.484 714.635 512.584 758.917 501.356C798.347 491.214 824.378 473.357 843.145 447.375C852.653 434.212 860.175 418.964 866.811 401.601C882.506 360.227 893.009 310.44 933.775 280.34C943.894 272.883 954.938 267.415 966.507 262.857C993.516 252.312 1023.08 246.959 1049.06 233.872C1101.38 207.706 1135.01 148.002 1126.98 94.7784" stroke="#FFA200" stroke-miterlimit="10"/>
<path d="M281.119 1051.37C312.601 1053.99 341.575 1044.33 372.142 1036.07C394.487 1030.04 415.79 1022.59 435.658 1013.03C472.035 995.668 503.919 971.1 528.584 936.159C536.268 925.26 542.465 914.109 547.302 902.733C571.938 844.888 562.025 783.562 557.227 723.928C551.488 652.014 556.489 557.642 635.617 514.583C677.362 491.794 722.729 496.197 767.237 485.748C806.302 476.523 833.08 460.154 853.115 436.368C863.279 424.341 871.712 410.283 879.306 394.387C897.6 356.157 911.685 310.058 952.973 280.667C963.222 273.437 974.35 267.921 985.915 263.162C1012.87 252.142 1041.86 245.404 1067.11 231.43C1117.87 203.337 1149.84 143.478 1141.22 90.1936" stroke="#FFA200" stroke-miterlimit="10"/>
<path d="M277.539 1050.2C309.393 1052.31 338.918 1042.63 369.736 1034.23C392.333 1028.05 413.888 1020.45 434.091 1010.71C470.927 992.975 503.31 967.917 528.139 932.679C535.864 921.656 542.185 910.332 547.019 898.757C571.808 840.015 560.951 778.023 556.434 717.52C551.096 644.364 559.181 549.524 639.37 506.559C681.333 484.149 726.778 488.104 771.293 478.055C810.281 469.278 837.368 453.639 858.06 430.989C868.529 419.491 877.356 406.116 885.555 390.88C905.234 354.274 921.003 309.929 962.552 280.993C972.846 273.838 984.058 268.274 995.579 263.439C1022.49 252.143 1051.21 244.752 1076.07 230.296C1126.09 201.315 1157.3 141.292 1148.25 88.0498" stroke="#FFA200" stroke-miterlimit="10"/>
<path d="M273.833 1049.01C306.059 1050.6 336.051 1040.96 367.244 1032.24C390.093 1025.91 411.983 1018.12 432.438 1008.23C469.777 990.206 502.744 964.609 527.693 928.999C535.542 917.803 541.776 906.328 546.69 894.504C571.504 834.839 559.831 772.207 555.639 710.911C550.743 636.389 561.828 541.13 643.249 498.362C685.344 476.179 730.824 479.81 775.474 470.188C814.258 461.832 841.699 446.999 863.13 425.436C874.034 414.496 883.209 401.726 891.93 387.2C912.866 352.191 930.446 309.627 972.258 281.145C982.596 274.066 993.807 268.502 1005.28 263.592C1032.19 252.096 1060.56 244.098 1085.2 229.064C1134.53 199.071 1164.8 138.981 1155.5 85.6843" stroke="#FFA200" stroke-miterlimit="10"/>
<path d="M270.21 1047.77C302.808 1048.84 333.222 1039.16 364.879 1030.27C387.979 1023.8 410.121 1015.86 430.911 1005.78C468.709 987.389 502.22 961.377 527.374 925.347C535.262 914.027 541.62 902.379 546.53 890.355C571.455 829.718 558.838 766.419 555.097 704.357C550.559 628.518 564.812 532.742 647.254 490.193C689.524 468.313 735.041 471.62 779.826 462.425C818.405 454.49 846.283 440.414 868.286 420.036C879.496 409.626 889.149 397.489 898.391 383.672C920.752 350.162 939.976 309.477 982.006 281.374C992.515 274.398 1003.64 268.882 1015.16 263.848C1042.02 252.076 1070.12 243.424 1094.37 227.908C1142.92 196.952 1172.39 136.823 1162.75 83.5194" stroke="#FFA200" stroke-miterlimit="10"/>
<path d="M266.584 1046.53C299.555 1047.08 330.519 1037.38 362.428 1028.35C385.779 1021.74 408.173 1013.66 429.298 1003.38C467.6 984.697 501.61 958.195 526.84 921.716C534.769 910.272 541.207 898.375 546.158 886.227C571.108 824.666 557.675 760.728 554.215 697.797C550.162 620.669 567.416 524.473 651.002 481.97C693.363 460.442 738.957 463.3 783.876 454.532C822.335 446.969 850.483 433.748 873.226 414.457C884.785 404.653 894.872 393.074 904.635 379.965C928.337 348.004 949.332 309.224 991.581 281.5C1002.13 274.599 1013.35 269.035 1024.82 263.925C1051.68 251.954 1079.47 242.572 1103.33 226.574C1151.14 194.73 1179.84 134.437 1169.86 81.1276" stroke="#FFA200" stroke-miterlimit="10"/>
<path d="M263.006 1045.36C296.304 1045.32 327.779 1035.73 360.107 1026.46C383.71 1019.7 406.439 1011.42 427.816 1001C466.661 981.906 501.17 954.914 526.565 918.138C534.618 906.522 541.012 894.55 545.999 882.078C571.103 819.62 556.725 755.016 553.591 691.291C549.895 612.845 570.233 516.182 654.968 473.924C697.503 452.699 743.134 455.234 788.144 446.817C826.443 439.751 854.984 427.211 878.299 409.105C890.248 399.782 900.729 388.885 910.929 376.533C936.015 346.196 958.694 309.171 1001.21 281.9C1011.8 275.076 1023.01 269.512 1034.53 264.278C1061.34 252.03 1088.86 241.994 1112.38 225.591C1159.41 192.783 1187.3 132.45 1176.94 79.0588" stroke="#FFA200" stroke-miterlimit="10"/>
<path d="M259.382 1044.12C293.053 1043.57 324.95 1033.93 357.741 1024.49C381.596 1017.59 404.576 1009.17 426.245 998.475C465.593 979.089 500.602 951.607 526.201 914.41C534.294 902.669 540.769 890.449 545.712 877.901C570.841 814.52 555.648 749.276 552.794 684.683C549.54 604.871 572.878 507.788 658.718 465.701C701.428 444.778 747.135 446.865 792.24 438.999C830.335 432.354 859.357 420.647 883.284 403.601C895.583 394.885 906.497 384.545 917.218 372.902C943.73 344.064 968.052 308.918 1010.78 282.026C1021.47 275.353 1032.72 269.665 1044.19 264.355C1070.99 251.908 1098.21 241.142 1121.34 224.256C1167.67 190.437 1194.63 130.037 1183.97 76.7152" stroke="#FFA200" stroke-miterlimit="10"/>
<path d="M255.675 1042.93C289.717 1041.86 322.166 1032.21 355.248 1022.5C379.355 1015.45 402.63 1006.96 424.507 996.046C464.315 976.294 499.867 948.396 525.543 910.752C533.676 898.887 540.274 886.494 545.214 873.746C570.453 809.393 554.315 743.482 551.83 678.171C548.977 597.118 575.356 499.491 662.384 457.526C705.269 436.906 751.013 438.669 796.209 431.154C834.183 424.882 863.474 414.029 888.057 398.119C900.662 389.933 912.054 380.226 923.296 369.292C951.193 342.078 977.199 308.686 1020.19 282.248C1030.92 275.651 1042.21 270.039 1053.64 264.653C1080.4 251.93 1107.31 240.634 1130.09 223.143C1175.68 188.436 1201.88 127.872 1190.88 74.544" stroke="#FFA200" stroke-miterlimit="10"/>
<path d="M252.053 1041.69C286.467 1040.1 319.382 1030.49 352.8 1020.58C377.242 1013.34 400.769 1004.7 422.897 993.643C463.208 973.601 499.3 945.089 525.14 907.147C533.354 895.034 539.908 882.566 544.928 869.57C570.193 804.293 553.239 737.743 551.035 671.563C548.795 589.247 578.214 491.076 666.391 449.357C709.407 428.964 755.187 430.403 800.562 423.391C838.331 417.539 868.06 407.444 893.299 392.67C906.338 385.041 918.079 375.94 929.842 365.715C959.208 340.077 986.857 308.563 1030.07 282.504C1040.88 276.058 1052.22 270.322 1063.6 264.86C1090.36 251.938 1116.96 239.912 1139.39 222.014C1184.21 186.344 1209.6 125.74 1198.22 72.3303" stroke="#FFA200" stroke-miterlimit="10"/>
<path d="M248.473 1040.53C283.259 1038.42 316.597 1028.76 350.478 1018.69C375.172 1011.3 398.95 1002.52 421.414 991.268C462.184 970.859 498.82 941.933 524.864 903.571C533.117 891.333 539.796 878.692 544.813 865.496C570.147 799.371 552.333 732.106 550.537 665.085C548.527 581.424 580.987 482.71 670.312 441.236C713.419 421.195 759.276 422.185 804.785 415.601C842.35 410.17 872.433 400.88 898.411 387.194C911.8 380.171 924.102 371.654 936.259 362.111C967.093 338.048 996.343 308.337 1039.82 282.733C1050.67 276.363 1062.01 270.626 1073.43 265.041C1100.14 251.842 1126.48 239.162 1148.52 220.783C1192.55 184.149 1217.1 123.43 1205.5 70.041" stroke="#FFA200" stroke-miterlimit="10"/>
<path d="M244.849 1039.29C280.008 1036.66 313.896 1026.99 348.113 1016.73C373.058 1009.19 397.088 1000.26 419.887 988.817C461.161 968.118 498.296 938.701 524.416 899.89C532.71 887.529 539.469 874.64 544.526 861.32C569.969 794.223 551.211 726.291 549.74 658.476C548.088 573.498 583.632 474.316 674.061 433.012C717.344 413.274 763.277 413.816 808.837 407.707C846.282 402.648 876.718 394.164 903.269 381.663C916.963 375.17 929.743 367.286 942.337 358.5C974.64 336.013 1005.49 308.105 1049.18 282.879C1060.17 276.536 1071.46 270.924 1082.88 265.138C1109.59 251.74 1135.61 238.33 1157.26 219.469C1200.65 181.899 1224.34 121.065 1212.32 67.718" stroke="#FFA200" stroke-miterlimit="10"/>
<path d="M241.226 1038.05C276.756 1034.9 311.111 1025.26 345.747 1014.76C370.987 1007.15 395.31 997.958 418.36 986.367C460.137 965.377 497.855 935.421 524.097 896.238C532.43 883.752 539.313 870.691 544.366 857.171C569.836 789.15 550.261 720.579 549.115 651.97C547.905 565.627 586.449 466.025 677.983 424.892C721.396 405.381 767.41 405.674 813.105 399.993C850.346 395.355 881.262 387.704 908.425 376.262C922.469 370.375 935.727 363.125 948.798 354.972C982.57 334.061 1015.02 307.955 1058.97 283.184C1070.05 276.992 1081.38 271.256 1092.8 265.47C1119.5 251.872 1145.22 237.732 1166.52 218.465C1209.13 179.932 1232.01 119.057 1219.7 65.5804" stroke="#FE3F03" stroke-opacity="0.9" stroke-miterlimit="10"/>
<path d="M237.52 1036.85C273.379 1033.11 308.284 1023.46 343.172 1012.81C368.664 1005.06 393.237 995.722 416.623 983.937C458.86 962.581 497.078 932.135 523.567 892.607C532.025 879.948 538.82 866.735 543.954 852.967C569.533 783.974 549.058 714.812 548.236 645.41C547.427 557.825 589.012 457.68 681.694 416.792C725.282 397.584 771.289 397.478 817.119 392.223C854.239 387.958 885.425 381.161 913.244 370.856C927.678 365.45 941.329 358.882 954.922 351.438C990.205 332.177 1024.21 307.798 1068.51 283.433C1079.63 277.318 1090.96 271.581 1102.34 265.72C1128.99 251.846 1154.4 237.176 1175.36 217.303C1217.18 177.806 1239.26 116.892 1226.61 63.409" stroke="#FE3F03" stroke-opacity="0.627451" stroke-miterlimit="10"/>
<path d="M233.897 1035.61C270.127 1031.36 305.499 1021.74 340.806 1010.85C366.549 1002.95 391.375 993.465 415.096 981.486C457.836 959.84 496.553 928.903 523.163 889.003C531.661 876.22 538.58 862.834 543.626 848.915C569.275 779.074 547.896 709.121 547.399 638.926C547.032 549.975 591.657 449.286 685.487 408.644C729.207 389.663 775.25 389.233 821.258 384.481C858.174 380.637 889.798 374.597 918.272 365.428C933.056 360.628 947.184 354.693 961.255 347.882C998.051 330.273 1033.66 307.697 1078.18 283.71C1089.34 277.671 1100.8 271.961 1112.09 265.949C1138.74 251.875 1163.84 236.475 1184.4 216.12C1225.57 175.688 1246.76 114.582 1233.81 61.1684" stroke="#FE3F03" stroke-opacity="0.9" stroke-miterlimit="10"/>
<path d="M230.316 1034.45C266.919 1029.67 302.757 1020.09 338.483 1008.96C364.479 1000.92 389.639 991.235 413.612 979.111C456.811 957.099 496.156 925.699 522.842 885.35C531.38 872.444 538.38 858.809 543.466 844.766C569.225 773.953 546.946 703.409 546.857 632.372C546.847 542.104 594.514 440.871 689.576 400.427C733.386 381.797 779.59 380.87 825.649 376.594C862.445 373.122 894.465 367.964 923.552 359.855C938.686 355.661 953.331 350.235 967.755 344.23C1005.98 328.321 1043.23 307.423 1087.96 283.815C1099.21 277.927 1110.63 272.141 1121.96 266.005C1148.56 251.656 1173.4 235.601 1193.61 214.841C1234.01 173.444 1254.39 112.299 1241.06 58.8034" stroke="#FE3F03" stroke-opacity="0.9" stroke-miterlimit="10"/>
<path d="M226.692 1033.21C263.667 1027.92 300.012 1018.24 336.117 1006.99C362.364 998.803 387.82 989.054 411.957 976.633C455.66 954.33 495.46 922.364 522.311 881.719C530.973 868.639 537.929 854.93 543.051 840.562C568.836 768.825 545.74 697.642 545.933 625.736C546.408 534.178 597.031 432.45 693.241 392.251C737.183 373.849 783.423 372.598 829.617 368.749C866.209 365.698 898.582 361.345 928.325 354.372C943.849 350.66 958.932 345.991 973.833 340.62C1013.57 326.361 1052.37 307.191 1097.37 284.037C1108.66 278.224 1120.17 272.391 1131.45 266.178C1158.05 251.63 1182.57 234.845 1202.4 213.603C1242.02 171.243 1261.59 110.058 1248.01 56.5078" stroke="#FE3F03" stroke-opacity="0.9" stroke-miterlimit="10"/>
<path d="M222.986 1032.02C260.333 1026.21 297.145 1016.57 333.585 1005.12C360.084 996.788 385.791 986.894 410.264 974.279C454.509 951.561 494.853 919.181 521.824 878.163C530.526 864.96 537.563 851.002 542.725 836.509C568.619 763.801 544.58 691.951 545.141 619.327C546.058 526.404 599.805 424.084 697.08 384.179C741.196 366.08 787.513 364.381 833.802 361.083C870.189 358.453 903.044 354.933 933.398 349.02C949.272 345.914 964.832 341.878 980.211 337.14C1021.46 324.533 1061.82 307.089 1107.08 284.39C1118.54 278.68 1129.92 272.819 1141.29 266.559C1167.84 251.734 1192.1 234.295 1211.54 212.571C1250.37 169.248 1269.1 107.948 1255.17 54.3913" stroke="#FE3F03" stroke-opacity="0.9" stroke-miterlimit="10"/>
<path d="M219.363 1030.78C257.082 1024.45 294.36 1014.84 331.22 1003.15C357.97 994.676 384.013 984.588 408.737 971.828C453.486 948.82 494.33 915.949 521.461 874.435C530.203 861.107 537.364 846.977 542.523 832.285C568.486 758.728 543.587 686.163 544.429 612.67C545.703 518.43 602.407 415.614 700.914 375.907C745.162 358.035 791.559 356.088 837.855 353.189C874.121 350.931 907.246 348.266 938.212 343.414C954.436 340.914 970.474 337.511 986.329 333.405C1029.05 322.574 1071.05 306.809 1116.49 284.412C1127.99 278.779 1139.41 272.993 1150.69 266.581C1177.24 251.557 1201.15 233.512 1220.28 211.258C1258.46 166.999 1276.34 105.583 1262.08 52.0201" stroke="#FE3F03" stroke-opacity="0.9" stroke-miterlimit="10"/>
<path d="M215.782 1029.61C253.873 1022.77 291.658 1013.07 328.853 1001.19C355.855 992.565 382.149 982.331 407.209 969.378C452.417 946.003 493.804 912.718 521.056 870.831C529.878 857.255 536.995 843.048 542.234 828.108C568.224 753.628 542.508 680.423 543.674 606.138C545.35 510.656 605.178 407.248 704.75 367.835C749.172 350.266 795.563 347.919 841.993 345.447C878.055 343.61 911.617 341.703 943.239 337.986C959.769 336.016 976.328 333.322 992.705 329.926C1036.85 320.794 1080.49 306.707 1126.19 284.765C1137.74 279.207 1149.25 273.373 1160.48 266.885C1186.98 251.585 1210.63 232.886 1229.37 210.151C1266.9 164.955 1283.97 103.5 1269.37 49.9308" stroke="#FE3F03" stroke-opacity="0.9" stroke-miterlimit="10"/>
<path d="M212.16 1028.37C250.579 1020.93 288.875 1011.34 326.405 999.268C353.658 990.501 380.205 980.123 405.6 966.975C451.311 943.31 493.238 909.41 520.654 867.227C529.516 853.527 536.757 839.148 541.993 824.008C568.092 748.555 541.432 674.684 543.007 599.557C545.04 502.757 607.825 398.854 708.629 359.639C753.099 342.345 799.693 339.577 846.218 337.657C882.16 336.193 916.035 335.215 948.354 332.51C965.317 331.097 982.225 329.009 999.039 326.37C1044.66 319.014 1089.9 306.53 1135.86 285.042C1147.5 279.636 1158.96 273.726 1170.23 267.114C1196.73 251.614 1220.06 232.185 1238.42 208.968C1275.08 162.857 1291.39 101.238 1276.45 47.6628" stroke="#FE3F03" stroke-opacity="0.9" stroke-miterlimit="10"/>
<path d="M208.536 1027.13C247.327 1019.17 286.089 1009.62 324.039 997.302C351.544 988.389 378.426 977.817 404.072 964.525C450.243 940.493 492.713 906.179 520.333 863.574C529.236 849.75 536.557 835.123 541.749 819.907C567.874 743.531 540.397 669.02 542.297 593.099C544.688 494.983 610.47 390.46 712.466 351.566C757.11 334.576 803.698 331.408 850.358 329.915C886.179 328.823 920.367 328.775 953.298 327.13C970.611 326.324 987.997 324.869 1005.29 322.863C1052.34 317.206 1099.21 306.401 1145.44 285.368C1157.12 280.037 1168.71 274.155 1179.94 267.467C1206.39 251.691 1229.46 231.608 1247.46 207.985C1283.47 160.738 1298.85 99.0516 1283.57 45.4703" stroke="#FE3F03" stroke-opacity="0.9" stroke-miterlimit="10"/>
<path d="M204.829 1025.94C243.992 1017.47 283.261 1007.82 321.59 995.384C349.346 986.326 376.48 975.608 402.462 962.122C449.136 937.801 492.105 902.995 519.802 859.943C528.829 845.946 536.106 831.243 541.378 815.779C567.656 738.506 539.236 663.329 541.417 586.539C544.377 487.084 613.112 381.866 716.259 343.418C760.992 326.579 807.699 323.039 854.498 322.173C890.071 321.426 924.74 322.211 958.327 321.703C975.989 321.502 993.769 320.729 1011.62 319.307C1060.14 315.426 1108.66 306.299 1155.06 285.569C1166.78 280.314 1178.37 274.432 1189.65 267.62C1216.09 251.644 1238.85 230.831 1256.55 206.677C1291.74 158.592 1306.31 96.8654 1290.77 43.2295" stroke="#FE3F03" stroke-opacity="0.9" stroke-miterlimit="10"/>
<path d="M201.25 1024.77C240.785 1015.78 280.521 1006.17 319.269 993.493C347.277 984.29 374.662 973.427 400.98 959.747C448.113 935.059 491.666 899.715 519.527 856.366C528.594 842.245 535.951 827.294 541.22 811.63C567.524 733.434 538.243 657.541 540.792 580.034C544.11 479.262 615.93 373.575 720.265 335.249C765.173 318.713 811.957 314.724 858.806 314.334C894.259 313.96 929.198 315.599 963.44 316.226C981.409 316.556 999.71 316.491 1018.04 315.703C1067.99 313.521 1118.15 306.073 1164.81 285.797C1176.62 280.694 1188.25 274.687 1199.39 267.848C1225.79 251.597 1248.24 230.253 1265.59 205.494C1300 156.445 1313.81 94.5549 1297.85 40.9612" stroke="#FE3F03" stroke-opacity="0.9" stroke-miterlimit="10"/>
<path d="M197.626 1023.53C266.429 1007.14 336.159 990.405 399.324 957.269C462.489 924.133 519.383 871.999 540.848 807.502C567.262 728.333 537.081 651.85 539.955 573.549C543.758 471.487 618.534 365.306 723.974 327.15C802.814 298.696 887.013 306.833 968.384 310.847C1049.76 314.861 1137.71 312.651 1209.06 268.125C1287.82 218.815 1329.38 119.393 1304.97 38.7688" stroke="#FE3F03" stroke-opacity="0.9" stroke-miterlimit="10"/>
<path d="M1300.96 42.2923C1322.69 117.497 1286.66 208.278 1217.41 259.162C1212.85 262.5 1208.21 265.687 1203.39 268.571C1134.8 310.899 1051.06 314.61 972.683 311.9C969.97 311.85 967.298 311.676 964.586 311.627C883.907 308.425 800.368 301.624 722.855 330.826C619.171 370.088 547.057 475.844 541.755 577.054C541.099 590.055 541.248 603.096 541.904 616.046C545.13 680.122 559.686 742.906 536.522 807.173C524.938 839.206 504.613 868.107 479.178 893.192C454.574 917.394 425.119 938.035 394.313 954.205C331.571 987.299 262.749 1005.02 195.921 1022.9" stroke="#FE3F03" stroke-opacity="0.9" stroke-miterlimit="10"/>
<path d="M1297.04 45.7669C1317.62 120.526 1280.75 209.868 1211.75 259.807C1207.27 263.097 1202.58 266.208 1197.76 269.092C1129.58 310.778 1046.62 314.653 968.884 312.679C966.172 312.63 963.544 312.531 960.831 312.482C880.801 310.016 798.005 304.503 721.779 334.577C619.768 374.994 550.359 480.4 543.6 580.634C542.688 593.581 542.706 606.394 543.063 619.214C544.751 682.562 556.657 744.049 532.195 806.843C519.963 838.14 499.371 866.387 473.842 890.921C449.187 914.647 419.853 934.916 389.218 951.189C326.899 984.241 259.068 1002.9 194.171 1022.2" stroke="#FE3F03" stroke-opacity="0.9" stroke-miterlimit="10"/>
<path d="M1293.04 49.2904C1312.46 123.604 1274.64 211.48 1206 260.501C1201.48 263.715 1196.88 266.778 1192.14 269.613C1124.33 310.582 1042.17 314.697 965.085 313.459C962.373 313.409 959.788 313.387 957.076 313.337C877.61 311.656 795.558 307.43 720.786 338.281C620.448 379.852 553.744 484.908 545.526 584.167C544.444 597.01 544.163 609.693 544.221 622.383C544.414 685.079 553.671 745.269 527.995 806.542C515.198 837.054 494.213 864.619 468.632 888.678C443.883 911.853 414.673 931.949 384.333 948.152C322.437 981.162 255.47 1000.74 192.592 1021.59" stroke="#FE3F03" stroke-opacity="0.9" stroke-miterlimit="10"/>
<path d="M1289.12 52.7656C1307.39 126.633 1268.74 213.07 1200.29 261.271C1195.86 264.437 1191.21 267.424 1186.47 270.259C1119.03 310.51 1037.68 314.864 961.202 314.287C958.534 314.313 955.905 314.215 953.321 314.193C874.548 313.324 793.195 310.31 719.709 342.033C621.172 384.787 557.129 489.416 547.33 587.871C546.032 600.536 545.496 613.165 545.212 625.648C543.867 687.617 550.517 746.585 523.584 806.261C510.138 836.037 488.888 862.948 463.296 886.407C438.496 909.107 409.406 928.83 379.278 945.013C317.805 977.98 251.829 998.501 190.883 1020.76" stroke="#FE3F03" stroke-opacity="0.9" stroke-miterlimit="10"/>
<path d="M1285.11 56.2887C1302.23 129.711 1262.75 214.709 1194.54 261.965C1190.07 265.055 1185.5 267.993 1180.85 270.78C1113.77 310.314 1033.23 314.908 957.402 315.067C954.818 315.044 952.149 315.07 949.565 315.048C871.44 314.915 790.79 313.313 718.632 345.785C621.768 389.693 560.514 493.924 549.173 591.452C547.704 604.013 546.869 616.512 546.285 628.865C543.402 690.106 547.402 747.776 519.3 806.008C505.289 834.999 483.689 861.304 458.003 884.212C433.152 906.436 404.142 925.911 374.225 942.073C313.175 974.998 248.106 996.51 189.092 1020.18" stroke="#FE3F03" stroke-opacity="0.9" stroke-miterlimit="10"/>
<path d="M1281.11 59.8121C1297.08 132.788 1256.72 216.272 1188.79 262.658C1184.4 265.7 1179.79 268.563 1175.1 271.274C1108.39 310.09 1028.58 314.972 953.433 315.743C950.848 315.721 948.223 315.823 945.639 315.8C868.207 316.479 788.173 316.137 717.385 349.433C622.194 394.496 563.645 498.377 550.846 594.929C549.205 607.388 548.155 619.707 547.273 631.93C542.895 692.519 544.246 748.892 514.93 805.603C500.27 833.858 478.444 859.385 452.623 881.865C427.721 903.614 398.792 922.841 369.127 938.857C308.415 971.788 244.422 994.194 187.384 1019.35" stroke="#FE3F03" stroke-opacity="0.9" stroke-miterlimit="10"/>
<path d="M1277.19 63.2869C1292.01 135.817 1250.82 217.862 1183.09 263.428C1178.65 266.394 1174.13 269.208 1169.43 271.92C1103.09 310.018 1024.04 315.064 949.594 316.647C947.053 316.7 944.428 316.802 941.843 316.78C864.977 318.244 785.769 319.14 716.268 353.309C622.877 399.554 566.99 503.009 552.693 598.71C550.881 611.065 549.532 623.254 548.351 635.347C542.435 695.208 541.179 750.36 510.606 805.474C495.298 832.993 473.206 857.865 447.418 879.822C422.465 901.095 393.656 919.949 364.162 936.068C303.917 969.033 240.872 992.306 185.681 1018.92" stroke="#FE3F03" stroke-opacity="0.9" stroke-miterlimit="10"/>
<path d="M1273.19 66.8101C1286.85 138.895 1244.7 219.473 1177.34 264.122C1172.9 267.088 1168.42 269.778 1163.8 272.441C1097.83 309.822 1019.6 315.107 945.794 317.426C943.253 317.48 940.628 317.581 938.087 317.635C861.913 319.911 783.365 322.143 715.274 357.012C623.557 404.412 570.374 507.517 554.619 602.242C552.593 614.418 550.989 626.553 549.509 638.515C541.971 697.697 538.149 751.503 506.322 805.22C490.449 831.955 467.963 856.145 442.124 877.627C417.077 898.348 388.392 917.03 359.194 933.08C299.371 966.003 237.233 990.266 184.102 1018.32" stroke="#FE3F03" stroke-opacity="0.9" stroke-miterlimit="10"/>
<path d="M1269.18 70.3337C1281.74 142.048 1238.72 221.112 1171.63 264.892C1167.24 267.733 1162.79 270.499 1158.14 273.087C1092.54 309.75 1015.11 315.275 941.911 318.255C939.414 318.384 936.873 318.437 934.292 318.615C858.767 321.627 780.878 325.195 714.158 360.889C624.113 409.443 573.72 512.15 556.423 605.947C554.225 618.02 552.322 630.024 550.5 641.78C541.467 700.311 534.995 752.819 501.911 804.94C485.389 830.938 462.638 854.474 436.704 875.404C411.606 895.651 383.041 913.96 354.055 929.989C294.655 962.869 233.465 987.999 182.225 1017.58" stroke="#FE3F03" stroke-opacity="0.9" stroke-miterlimit="10"/>
<path d="M1265.31 73.8841C1276.67 145.077 1232.82 222.702 1165.93 265.661C1161.53 268.503 1157.13 271.145 1152.51 273.608C1087.32 309.629 1010.66 315.318 938.114 319.034C935.616 319.163 933.119 319.292 930.622 319.421C855.789 323.245 778.556 327.95 713.166 364.592C624.791 414.101 577.19 516.609 558.352 609.478C555.898 621.497 553.864 633.274 551.659 644.948C541.088 702.752 532.094 753.99 497.712 804.638C480.626 829.851 457.564 852.658 431.58 873.112C406.431 892.883 377.947 910.944 349.171 926.952C290.195 959.79 229.912 985.91 180.731 1016.93" stroke="#FE3F03" stroke-opacity="0.9" stroke-miterlimit="10"/>
<path d="M1261.3 77.4078C1271.51 148.155 1226.83 224.341 1160.18 266.355C1155.82 269.073 1151.34 271.763 1146.81 274.178C1081.98 309.482 1006.13 315.41 934.187 319.787C931.69 319.916 929.237 320.121 926.739 320.25C852.555 324.81 775.982 330.85 711.962 368.317C625.304 419.056 580.364 521.138 560.111 613.108C557.443 624.948 555.154 636.67 552.734 648.165C540.624 705.241 528.98 755.182 493.385 804.309C475.65 828.786 452.323 850.938 426.244 870.842C401.044 890.137 372.596 907.874 344.116 923.812C285.563 956.608 226.271 983.671 178.938 1016.15" stroke="#FE3F03" stroke-opacity="0.9" stroke-miterlimit="10"/>
<path d="M1257.3 80.9311C1266.36 151.233 1220.8 225.904 1154.43 267.049C1150.07 269.767 1145.63 272.333 1141.1 274.748C1076.64 309.334 1001.55 315.426 930.303 320.615C927.85 320.819 925.353 320.949 922.899 321.153C849.279 326.498 773.45 333.826 710.885 372.068C625.899 423.962 583.748 525.646 561.954 616.688C559.114 628.425 556.526 640.017 553.807 651.382C540.203 707.806 525.909 756.449 489.101 804.056C470.717 827.797 447.08 849.219 420.95 868.647C395.572 887.439 367.416 904.907 339.063 920.872C280.932 953.626 222.548 981.68 177.275 1015.59" stroke="#FE3F03" stroke-opacity="0.9" stroke-miterlimit="10"/>
<path d="M1253.38 84.4061C1261.28 154.262 1214.81 227.543 1148.72 267.819C1144.41 270.412 1139.96 272.978 1135.51 275.345C1071.43 309.213 997.066 315.594 926.549 321.47C924.095 321.675 921.642 321.88 919.188 322.084C846.261 328.241 771.175 336.856 709.852 375.896C626.623 428.896 587.178 530.23 563.842 620.345C560.831 631.979 557.944 643.44 554.926 654.675C539.784 710.371 522.884 757.793 484.818 803.802C465.869 826.759 441.882 847.575 415.742 866.403C390.312 884.72 362.193 901.864 334.136 917.76C276.428 950.471 219.035 979.467 175.61 1014.84" stroke="#FFA200" stroke-miterlimit="10"/>
<path d="M1249.38 87.9295C1256.13 157.34 1208.82 229.182 1142.97 268.513C1138.66 271.106 1134.25 273.548 1129.8 275.915C1066.09 309.066 992.535 315.686 922.622 322.222C920.168 322.427 917.759 322.708 915.305 322.913C843.026 329.806 768.6 339.757 708.648 379.621C627.092 433.775 590.395 534.835 565.473 623.946C562.291 635.477 559.189 646.76 555.744 657.837C539.064 712.806 519.558 759.006 480.195 803.543C460.597 825.763 436.301 845.849 410.153 864.278C384.673 882.119 356.718 898.966 328.872 914.841C271.587 947.51 215.102 977.497 173.652 1014.35" stroke="#FFA200" stroke-miterlimit="10"/>
<path d="M1245.37 91.4523C1250.97 160.417 1202.79 230.744 1137.27 269.282C1132.99 271.751 1128.59 274.193 1124.18 276.435C1060.83 308.869 988.087 315.729 918.823 323.002C916.413 323.282 914.003 323.563 911.633 323.719C840.047 331.424 766.236 342.635 707.655 383.323C627.816 438.709 593.864 539.294 567.444 627.554C564.047 638.906 560.69 650.134 557.03 661.032C538.856 715.349 516.656 760.176 476.079 803.192C455.832 824.676 431.354 844.06 405.028 861.986C379.497 879.351 351.622 895.95 323.988 911.804C267.126 944.431 211.587 975.284 172.113 1013.63" stroke="#FFA200" stroke-miterlimit="10"/>
<path d="M1241.45 94.9275C1245.9 163.446 1196.89 232.335 1131.52 269.976C1127.24 272.446 1122.88 274.763 1118.47 277.005C1055.49 308.721 983.556 315.821 914.897 323.754C912.487 324.035 910.161 324.267 907.795 324.623C836.773 333.113 763.833 345.638 706.495 387.124C628.412 443.615 597.166 543.851 569.205 631.183C565.636 642.432 561.98 653.53 558.021 664.297C538.309 717.887 513.502 761.492 471.712 802.988C450.901 823.687 426.073 842.464 399.736 859.791C374.11 876.605 346.315 892.956 318.976 908.74C262.537 941.325 207.991 973.12 170.364 1012.92" stroke="#FFA200" stroke-miterlimit="10"/>
<path d="M1237.45 98.4508C1240.66 166.572 1190.82 234.022 1125.82 270.746C1121.58 273.091 1117.21 275.409 1112.89 277.603C1050.28 308.601 979.153 315.94 911.142 324.609C908.776 324.966 906.45 325.198 904.084 325.554C833.755 334.856 761.431 348.642 705.547 390.903C629.181 448.625 600.596 548.434 571.177 634.791C567.437 645.937 563.482 656.904 559.224 667.541C538.017 720.479 510.561 762.787 467.513 802.686C446.053 822.649 420.916 840.697 394.528 857.547C368.851 873.886 341.22 889.94 314.093 905.703C257.993 938.294 204.437 971.032 168.87 1012.27" stroke="#FFA200" stroke-miterlimit="10"/>
<path d="M1233.44 101.974C1235.51 169.65 1184.79 235.585 1120.06 271.44C1115.83 273.785 1111.55 276.055 1107.18 278.172C1044.85 308.502 974.576 315.956 907.258 325.438C904.892 325.794 902.61 326.102 900.244 326.458C830.563 336.496 758.898 351.618 704.385 394.704C629.692 453.58 603.896 552.991 572.935 638.42C568.896 649.436 564.853 660.252 560.213 670.807C537.468 723.017 507.362 764.027 463.144 802.481C441.12 821.66 415.632 839.101 389.15 855.401C363.422 871.264 335.828 886.994 308.912 902.736C253.278 935.361 200.671 968.965 166.951 1011.66" stroke="#FFA200" stroke-miterlimit="10"/>
<path d="M1229.52 105.449C1230.43 172.679 1178.89 237.175 1114.32 272.134C1110.08 274.479 1105.84 276.624 1101.43 278.666C1039.51 308.354 970.001 315.972 903.288 326.114C900.922 326.47 898.684 326.854 896.318 327.21C827.33 338.06 756.408 354.469 703.137 398.352C630.245 458.41 607.111 557.396 574.651 641.973C570.441 652.886 566.1 663.571 561.201 673.872C536.917 725.355 504.205 765.143 458.774 802.076C436.101 820.519 410.387 837.182 383.854 853.006C358.075 868.394 330.645 883.827 303.941 899.547C248.73 932.13 197.03 966.725 165.37 1010.85" stroke="#FFA200" stroke-miterlimit="10"/>
<path d="M1225.52 108.973C1225.28 175.757 1172.86 238.738 1108.61 272.904C1104.41 275.125 1100.17 277.27 1095.84 279.264C1034.3 308.233 965.596 316.091 899.532 326.97C897.294 327.353 894.928 327.71 892.689 328.093C824.35 339.679 754.175 357.576 702.144 402.056C631.012 463.42 610.495 561.904 576.578 645.505C572.196 656.315 567.556 666.87 562.358 677.041C536.58 727.871 501.218 766.363 454.446 801.747C431.124 819.453 405.145 835.462 378.517 850.735C352.687 865.648 325.294 880.756 298.801 896.456C244.013 928.997 193.304 964.534 163.492 1010.12" stroke="#FFA200" stroke-miterlimit="10"/>
<path d="M1221.6 112.447C1220.21 178.786 1166.96 240.328 1102.95 273.549C1098.75 275.77 1094.55 277.791 1090.22 279.785C1029.04 308.037 961.067 316.183 895.736 327.749C893.497 328.132 891.175 328.564 888.936 328.948C821.162 341.319 751.814 360.454 701.153 405.759C631.778 468.229 613.966 566.363 578.507 649.037C573.911 659.668 569.015 670.169 563.519 680.209C536.202 730.312 498.19 767.506 450.249 801.445C426.362 818.367 399.989 833.694 373.354 848.567C347.43 862.928 320.16 877.864 293.962 893.495C239.598 925.993 189.752 962.445 162.043 1009.54" stroke="#FFA200" stroke-miterlimit="10"/>
<path d="M1217.6 115.971C1215.05 181.864 1160.84 241.94 1097.11 274.291C1092.95 276.388 1088.75 278.409 1084.51 280.354C1023.7 307.889 956.534 316.274 891.807 328.501C889.569 328.885 887.29 329.393 885.052 329.776C817.97 342.959 749.238 363.355 699.948 409.483C632.246 473.109 617.139 570.892 580.266 652.666C575.498 663.194 570.387 673.516 564.508 683.474C535.653 732.849 495.035 768.822 445.836 801.165C421.257 817.274 394.662 832.023 368.016 846.296C342.041 860.182 314.892 874.746 288.949 890.431C235.007 922.887 186.153 960.281 160.292 1008.84" stroke="#FFA200" stroke-miterlimit="10"/>
<path d="M1213.64 119.57C1209.94 185.017 1154.9 243.654 1091.45 275.137C1087.29 277.234 1083.13 279.131 1078.89 281.076C1018.45 307.893 952.09 316.518 888.012 329.481C885.817 329.94 883.623 330.4 881.3 330.832C814.867 344.751 746.922 366.509 698.875 413.435C632.973 478.242 620.528 575.6 582.113 656.447C577.174 666.872 571.721 676.987 565.67 686.842C535.237 735.615 492.053 770.241 441.64 801.063C416.412 816.436 389.591 830.407 362.811 844.253C336.785 857.663 309.716 871.979 283.941 887.567C230.422 919.98 182.476 958.366 158.674 1008.36" stroke="#FFA200" stroke-miterlimit="10"/>
<path d="M1209.72 123.045C1204.87 188.046 1149 245.244 1085.78 275.782C1081.67 277.755 1077.51 279.652 1073.22 281.521C1013.15 307.621 947.555 316.41 884.126 330.109C881.931 330.568 879.736 331.027 877.501 331.611C811.761 346.342 744.432 369.361 697.754 417.111C633.526 483.073 623.87 580.032 583.829 659.999C578.718 670.321 572.966 680.307 566.573 689.956C534.602 738 488.768 771.329 437.142 800.631C411.349 815.219 384.178 828.584 357.303 841.879C331.226 854.813 304.321 868.832 278.758 884.399C225.662 916.771 178.707 956.099 156.753 1007.55" stroke="#FFA200" stroke-miterlimit="10"/>
<path d="M1205.71 126.568C1199.71 191.124 1142.97 246.808 1080 276.6C1075.88 278.573 1071.68 280.394 1067.56 282.167C1007.85 307.549 943.068 316.578 880.204 331.061C878.053 331.596 875.858 332.056 873.707 332.591C808.531 348.106 741.945 372.413 696.722 420.939C634.167 488.055 627.216 584.665 585.717 663.656C580.391 673.799 574.384 683.73 567.692 693.249C534.183 740.566 485.742 772.673 432.903 800.453C406.461 814.306 378.981 826.94 352.139 839.711C325.967 852.095 299.143 865.865 273.791 881.411C221.118 913.741 175.07 954.059 155.175 1006.95" stroke="#FFA200" stroke-miterlimit="10"/>
<path d="M1201.71 130.092C1194.56 194.202 1136.9 248.495 1074.25 277.294C1011.6 306.094 942.838 315.599 876.405 331.841C809.843 348.055 740.993 373.669 695.645 424.691C626.955 501.711 630.374 614.345 568.766 696.465C516.301 766.339 427.696 800.733 346.845 837.516C265.995 874.3 180.156 925.878 153.469 1006.32" stroke="#FFA200" stroke-miterlimit="10"/>
</svg>
