<svg width="382" height="433" viewBox="0 0 382 433" fill="none" xmlns="http://www.w3.org/2000/svg">
<path d="M-104.053 454.644C-73.8114 413.059 -9.83176 393.929 44.0807 410.26C82.4568 421.908 115.17 449.205 155.316 453.048C204.168 457.792 244.758 427.775 283.518 407.323C332.131 381.689 374.803 375.866 427.081 402.904C465.851 422.917 493.778 455.497 538.451 465.404C620.606 483.637 679.856 416.838 720.51 365.548C761.446 313.898 802.955 258.825 877.445 244.118C938.501 232.032 992.745 246.662 1046.05 274.6C1071.68 288.009 1097.38 298.896 1115.81 321.11" stroke="#FFA200" stroke-miterlimit="10"/>
<path d="M1117.71 324.363C1098.67 302.265 1072.58 291.036 1046.57 277.545C1027.46 267.596 1008.2 259.39 988.574 253.384C952.634 242.355 915.328 239.052 875.386 246.997C863.033 249.519 851.479 253.061 840.746 257.544C786.081 280.501 751.698 327.097 716.654 370.59C674.886 422.49 613.124 487.819 530.326 468.682C485.64 458.433 457.449 426.127 418.979 405.671C384.627 387.556 354.479 383.292 323.969 389.256C308.512 392.278 293.049 398.002 276.788 405.748C238.124 424.281 197.459 451.922 148.815 446.717C136.75 445.415 125.37 442.153 114.232 437.929C88.2936 428.001 64.0472 412.868 37.1205 405.342C-16.9656 390.069 -80.4325 409.823 -110.443 451.635" stroke="#FFA200" stroke-miterlimit="10"/>
<path d="M1121.18 330.631C1100.92 308.766 1074.2 296.972 1047.3 283.196C1027.64 273.124 1007.76 264.694 987.476 258.627C950.419 247.433 911.683 244.069 871.05 252.457C858.382 255.08 846.585 258.824 835.588 263.589C779.644 287.795 745.523 336.409 708.959 380.598C664.832 433.857 598.165 495.765 514.021 475.06C469.582 464.187 440.812 432.25 402.701 411.105C369.215 392.584 339.536 386.816 309.607 390.46C294.45 392.282 279.145 396.606 263.194 402.733C224.814 417.448 184.108 440.273 135.57 434.245C123.564 432.703 112.092 429.419 100.821 425.334C74.5969 415.763 49.8236 401.947 22.8145 395.499C-31.477 382.543 -93.8976 403.465 -123.536 445.712" stroke="#FFA200" stroke-miterlimit="10"/>
<path d="M1122.93 333.688C1102.07 311.94 1074.95 299.803 1047.78 285.965C1027.84 275.831 1007.69 267.339 987.039 261.191C949.413 249.956 909.997 246.61 869.049 255.1C856.269 257.784 844.269 261.568 833.14 266.474C776.486 291.205 742.577 340.889 705.233 385.506C659.992 439.375 590.851 499.652 506.024 478.202C461.683 466.926 432.558 435.244 394.708 413.816C361.573 395.031 332.166 388.561 302.537 391.004C287.52 392.265 272.395 395.87 256.463 401.156C218.2 413.872 177.489 434.417 129.068 427.908C117.082 426.285 105.518 422.981 94.2268 418.975C67.8498 409.623 42.8231 396.425 15.7627 390.557C-38.6111 378.68 -100.61 400.207 -129.926 442.701" stroke="#FFA200" stroke-miterlimit="10"/>
<path d="M1124.76 336.844C1103.29 315.212 1075.86 302.753 1048.22 288.892C1028.01 278.696 1007.48 270.123 986.56 263.913C948.387 252.556 908.2 249.21 866.916 257.882C853.933 260.605 841.892 264.551 830.541 269.578C773.246 294.934 739.478 345.588 701.374 390.554C654.908 445.093 583.384 503.758 497.824 481.383C453.541 469.865 424.172 438.378 386.511 416.565C353.799 397.616 324.683 390.365 295.263 391.586C280.315 392.186 265.351 395.15 249.528 399.617C211.452 410.432 170.665 428.598 122.363 421.606C110.396 419.903 98.8319 416.598 87.5197 412.672C61.0099 403.458 35.8209 390.899 8.52711 385.57C-46.0404 374.833 -107.435 397.004 -136.611 439.707" stroke="#FFA200" stroke-miterlimit="10"/>
<path d="M1126.49 339.983C1104.41 318.467 1076.66 305.765 1048.58 291.721C1028.1 281.464 1007.3 272.829 986.011 266.538C947.269 255.138 906.423 251.732 864.712 260.565C851.617 263.35 839.374 267.336 827.89 272.504C769.865 298.466 736.309 350.191 697.374 395.405C649.773 450.635 575.685 507.648 489.552 484.468C445.347 472.627 415.734 441.334 378.263 419.137C345.975 400.024 317.058 391.97 288.029 392.01C273.222 392.049 258.346 394.273 242.633 397.918C204.563 406.792 163.882 422.617 115.678 415.224C103.66 413.341 92.1859 410.055 80.7619 406.188C54.0993 397.193 28.6569 385.252 1.31176 380.504C-53.3584 370.926 -114.219 393.643 -143.164 436.573" stroke="#FFA200" stroke-miterlimit="10"/>
<path d="M1128.23 343.122C1105.54 321.722 1077.4 308.677 1049.04 294.571C1028.28 284.251 1007.21 275.555 985.554 269.183C946.263 257.66 904.737 254.273 862.67 263.369C849.464 266.214 836.997 270.321 825.402 275.55C766.738 302.138 733.322 354.834 693.607 400.476C644.801 456.298 568.33 511.697 481.423 487.751C437.388 475.608 407.419 444.57 370.138 421.988C338.181 402.692 309.646 393.875 280.827 392.692C266.18 392.091 251.374 393.653 235.77 396.478C197.797 403.43 157.152 416.813 109.046 409.018C97.0468 407.054 85.4813 403.748 74.0366 399.96C47.2413 391.104 21.5254 379.862 -5.87098 375.694C-60.6235 367.197 -121.062 390.518 -149.775 433.677" stroke="#FFA200" stroke-miterlimit="10"/>
<path d="M1129.98 346.183C1106.67 324.98 1078.24 311.532 1049.42 297.323C1028.39 286.942 1006.95 278.163 985.023 271.73C945.073 260.146 902.867 256.778 860.484 265.975C847.075 268.861 834.588 273.049 822.749 278.48C763.375 305.593 730.171 359.36 689.696 405.352C639.755 461.865 560.81 515.631 473.26 490.779C429.303 478.313 399.091 447.47 361.979 424.583C330.466 405.043 302.11 395.503 273.683 393.137C259.085 391.954 244.459 392.796 229.056 394.819C191.2 399.769 150.549 410.87 102.562 402.592C90.5823 400.548 79.0163 397.241 67.4598 393.513C40.5117 384.875 14.5424 374.253 -12.8851 370.585C-67.7402 363.249 -127.645 387.115 -156.147 430.582" stroke="#FFA200" stroke-miterlimit="10"/>
<path d="M1131.71 349.324C1107.79 328.237 1079.04 314.546 1049.78 300.154C1028.48 289.71 1006.77 280.87 984.454 274.436C943.956 262.729 901.07 259.381 858.261 268.74C844.739 271.686 832.029 275.996 820.17 281.507C760.156 309.247 727.094 363.986 685.838 410.407C634.671 467.591 553.343 519.743 465.13 494.065C421.252 481.275 390.684 450.688 353.873 427.356C322.783 407.652 294.648 397.228 266.501 393.74C252.063 391.915 237.507 392.095 222.213 393.298C184.363 396.303 143.819 405.062 95.929 396.381C83.9895 394.176 72.3117 390.929 60.7345 387.281C33.6537 378.781 7.41081 368.859 -20.0679 365.771C-75.1165 359.576 -134.416 384.089 -162.667 427.704" stroke="#FFA200" stroke-miterlimit="10"/>
<path d="M1133.54 352.486C1109.01 331.515 1079.86 317.481 1050.22 303.086C1028.64 292.581 1006.68 283.599 984.067 277.183C943 265.434 899.455 262.025 856.29 271.647C842.657 274.654 829.743 279.004 817.752 284.657C757.008 313.003 724.158 368.814 682.161 415.504C629.88 473.3 546.057 523.898 457.09 497.373C413.29 484.261 382.478 453.868 345.838 430.231C315.079 410.343 287.326 399.155 259.48 394.464C245.183 392.078 230.715 391.516 215.531 391.896C177.798 392.898 137.249 399.372 89.4779 390.209C77.5579 387.923 65.8996 384.595 54.3018 381.027C27.0682 372.746 0.683012 363.383 -26.9582 360.937C-82.089 355.823 -140.966 380.941 -168.985 424.785" stroke="#FFA200" stroke-miterlimit="10"/>
<path d="M1135.27 355.63C1110.14 334.776 1080.68 320.418 1050.68 305.941C1028.73 295.353 1006.49 286.309 983.608 279.832C941.993 267.961 897.656 264.631 854.175 274.355C840.319 277.482 827.385 281.914 815.171 287.688C753.786 316.661 721.078 373.445 678.301 420.565C624.743 478.853 538.425 527.896 448.815 500.464C405.073 487.108 374.017 456.91 337.587 432.808C307.252 412.755 279.698 400.764 252.153 394.868C237.925 391.82 223.618 390.617 208.543 390.175C170.836 389.152 130.393 393.281 82.7203 383.715C70.84 381.269 59.0699 378 47.4513 374.511C20.085 366.369 -6.57378 357.707 -34.2461 355.761C-89.4794 351.809 -147.823 377.474 -175.63 421.626" stroke="#FFA200" stroke-miterlimit="10"/>
<path d="M1137.03 358.695C1111.28 337.958 1081.5 323.357 1051.06 308.696C1028.84 298.046 1006.33 288.94 983.078 282.382C940.894 270.468 895.897 267.078 851.99 276.964C838.022 280.152 824.884 284.624 812.538 290.54C750.535 320.059 717.947 377.897 674.318 425.346C619.696 484.427 530.883 531.915 440.631 503.575C397.059 489.916 365.647 459.973 329.407 435.485C299.495 415.269 272.233 402.493 244.897 395.373C230.829 391.683 216.52 389.717 201.626 388.553C163.945 385.504 123.589 387.368 76.0344 377.319C64.1737 374.792 52.403 371.523 40.6727 368.093C13.1535 360.171 -13.7587 352.128 -41.4822 350.763C-96.818 347.974 -154.647 374.265 -182.294 418.546" stroke="#FFA200" stroke-miterlimit="10"/>
<path d="M1138.76 361.84C1112.41 341.219 1082.23 326.274 1051.42 311.531C1028.93 300.819 1006.14 291.651 982.527 285.011C939.795 272.975 894.118 269.604 849.855 279.753C835.775 283.002 822.415 287.595 809.957 293.572C747.222 323.698 714.847 382.61 670.458 430.408C614.701 490.181 523.413 536.033 432.498 506.865C389.004 492.883 357.238 463.196 321.278 438.342C291.699 417.942 264.728 404.382 237.784 396.077C223.856 391.824 209.637 389.116 194.943 387.149C157.288 382.074 117.019 381.671 69.5629 371.22C57.6306 368.592 45.9706 365.262 34.1084 361.972C6.45664 354.188 -20.7291 346.846 -48.5038 346.063C-104.013 344.337 -161.328 371.254 -188.652 415.783" stroke="#FFA200" stroke-miterlimit="10"/>
<path d="M1140.5 364.988C1113.54 344.484 1083.05 329.216 1051.79 314.369C1029.04 303.514 1005.86 294.345 981.977 287.643C938.696 275.485 892.248 272.113 847.649 282.444C833.457 285.754 819.894 290.388 807.304 296.507C743.93 327.261 711.696 387.146 666.546 435.295C609.563 495.742 515.891 539.977 424.312 509.981C380.877 495.756 348.886 466.183 313.117 440.943C283.961 420.379 257.21 405.933 230.547 396.503C216.779 391.607 202.65 388.156 188.046 385.447C150.417 378.344 110.233 375.675 62.8959 364.74C51.0033 361.951 39.2316 358.68 27.3687 355.389C-0.415715 347.745 -27.8751 341.104 -55.6809 340.822C-111.292 340.259 -168.073 367.723 -195.277 412.542" stroke="#FE3F03" stroke-opacity="0.9" stroke-miterlimit="10"/>
<path d="M1142.32 368.156C1114.73 347.848 1083.85 332.236 1052.31 317.326C1029.29 306.409 1005.84 297.178 981.59 290.395C937.74 278.194 890.612 274.841 845.606 285.254C831.211 288.605 817.607 293.401 804.794 299.641C740.689 331.003 708.687 391.883 662.777 440.382C604.679 501.442 508.511 544.12 416.29 513.216C372.933 498.666 340.678 469.369 305.099 443.743C276.275 422.994 249.906 407.783 223.544 397.147C209.826 391.669 195.877 387.495 181.382 383.963C143.8 374.751 103.682 369.894 56.3726 358.455C44.4996 355.585 32.7273 352.314 20.8438 349.103C-7.0935 341.678 -34.6952 335.597 -62.6633 335.958C-118.377 336.558 -174.624 364.569 -201.596 409.617" stroke="#FE3F03" stroke-opacity="0.627451" stroke-miterlimit="10"/>
<path d="M1144.06 371.306C1115.86 351.115 1084.67 335.178 1052.68 320.165C1029.38 309.186 1005.66 299.893 981.039 293.028C936.641 280.704 888.833 277.371 843.491 287.967C828.984 291.379 815.177 296.215 802.323 302.617C737.599 334.527 705.698 396.542 659.027 445.391C599.702 507.125 501.039 548.246 408.175 516.433C364.876 501.64 332.377 472.537 297.008 446.445C268.608 425.532 242.44 409.515 216.378 397.673C202.821 391.551 188.961 386.634 174.556 382.359C137.02 371.038 96.9888 363.912 49.7776 352.07C37.9242 349.119 26.0804 345.747 14.156 342.696C-13.9139 335.41 -41.7892 330.03 -69.8086 330.973C-125.696 332.637 -181.448 361.356 -208.168 406.553" stroke="#FE3F03" stroke-opacity="0.9" stroke-miterlimit="10"/>
<path d="M1145.81 374.376C1117.01 354.301 1085.51 338.041 1053.06 322.924C1029.49 311.883 1005.4 302.508 980.508 295.582C935.541 283.215 886.982 279.801 841.284 290.66C826.665 294.132 812.635 299.09 799.669 305.553C734.214 338.071 702.546 401.082 655.023 450.262C594.563 512.69 493.404 552.252 399.806 519.509C356.677 504.413 323.732 475.546 288.644 449.087C260.576 427.989 234.72 411.106 208.939 398.138C195.542 391.373 181.661 385.772 167.547 380.713C130.148 367.302 90.0926 357.967 42.98 345.721C31.1663 342.609 19.3018 339.317 7.26568 336.325C-20.957 329.258 -49.0859 324.5 -77.1362 325.945C-133.126 328.774 -188.344 358.04 -214.852 403.546" stroke="#FE3F03" stroke-opacity="0.9" stroke-miterlimit="10"/>
<path d="M1147.55 377.526C1118.13 357.568 1086.22 341.044 1053.42 325.764C1029.58 314.66 1005.24 305.143 980.029 298.316C934.513 285.826 885.253 282.512 839.24 293.473C824.418 296.986 810.367 302.025 797.159 308.691C731.064 341.837 699.537 405.823 651.233 455.434C589.567 518.456 486.003 556.48 391.762 522.827C348.691 507.487 315.502 478.815 280.605 451.97C252.961 430.707 227.395 413.038 201.915 398.863C188.568 391.514 174.887 385.109 160.864 379.306C123.511 363.785 83.5217 352.26 36.5278 339.529C24.7337 336.336 12.7777 333.023 0.720849 330.112C-27.6345 323.184 -56.0369 319.128 -84.1384 321.155C-140.23 325.149 -194.914 354.962 -221.281 400.678" stroke="#FE3F03" stroke-opacity="0.9" stroke-miterlimit="10"/>
<path d="M1149.37 380.7C1119.35 360.859 1087.14 344.01 1053.97 328.646C1029.85 317.48 1005.23 307.901 979.661 300.992C933.485 288.44 883.565 285.065 837.216 296.209C822.282 299.783 808.008 304.943 794.688 311.67C727.862 345.426 696.547 410.489 647.503 460.37C584.61 524.067 478.458 560.512 383.666 525.969C340.674 510.304 307.129 481.888 272.533 454.596C245.313 433.168 219.968 414.612 194.768 399.31C181.581 391.317 167.991 384.167 154.056 377.62C116.75 359.988 76.8272 346.271 29.952 333.056C18.1066 329.682 6.22092 326.469 -5.92755 323.536C-34.4357 316.828 -63.0917 313.394 -91.2443 316.003C-147.438 321.163 -201.607 351.605 -227.743 397.551" stroke="#FE3F03" stroke-opacity="0.9" stroke-miterlimit="10"/>
<path d="M1151.11 383.832C1120.48 364.109 1087.96 346.936 1054.34 331.47C1029.94 320.243 1004.96 310.581 979.113 303.612C932.389 290.937 881.79 287.582 834.994 298.968C819.948 302.603 805.472 307.804 792.019 314.673C724.575 348.974 693.382 415.09 643.558 465.399C579.53 529.786 470.975 564.689 375.45 529.218C332.517 513.311 298.749 485.011 264.415 457.435C237.527 435.824 212.565 416.502 187.648 400.073C174.621 391.436 161.12 383.543 147.276 376.252C110.128 356.448 70.1808 340.521 23.3849 326.983C11.5593 323.528 -0.30658 320.234 -12.4957 317.462C-41.1361 310.894 -69.954 308.101 -98.2484 311.274C-154.615 317.498 -208.268 348.567 -234.172 394.739" stroke="#FE3F03" stroke-opacity="0.9" stroke-miterlimit="10"/>
<path d="M1152.86 386.844C1121.62 367.241 1088.69 349.807 1054.7 334.261C1030.04 322.973 1004.78 313.251 978.57 306.201C931.279 293.486 880.022 290.071 832.892 301.638C817.624 305.393 803.127 310.675 789.452 317.664C721.371 352.588 690.321 419.668 639.738 470.319C574.598 535.309 463.46 568.626 367.387 532.271C324.535 516.042 290.504 488.023 256.361 460.065C229.899 438.293 205.138 418.168 180.522 400.534C167.637 391.335 154.246 382.618 140.512 374.504C103.503 352.611 63.533 334.474 16.8579 320.454C5.05246 316.919 -6.90453 313.604 -19.1138 310.913C-47.9058 304.565 -76.976 302.396 -105.32 306.151C-161.857 313.439 -214.974 345.05 -240.645 391.444" stroke="#FE3F03" stroke-opacity="0.9" stroke-miterlimit="10"/>
<path d="M1154.6 389.935C1122.73 370.533 1089.51 352.697 1055.16 337.071C1030.22 325.722 1004.69 315.941 978.118 308.81C930.28 295.975 878.233 292.639 830.79 304.307C815.411 308.122 800.712 313.444 786.906 320.574C718.096 356.101 687.26 424.246 635.827 475.218C569.554 540.891 456.015 572.661 359.213 535.382C316.512 518.932 282.056 491.074 248.217 462.674C222.088 440.722 197.731 419.753 173.306 400.974C160.491 391.112 147.261 381.752 133.729 372.835C96.8789 348.773 56.8658 328.507 10.3115 314.005C-1.45368 310.309 -13.4308 307.075 -25.7513 304.444C-54.6747 298.237 -84.0174 296.77 -112.412 301.107C-168.957 309.581 -221.648 341.795 -247.086 388.409" stroke="#FE3F03" stroke-opacity="0.9" stroke-miterlimit="10"/>
<path d="M1156.33 393.026C1123.86 373.745 1090.34 355.588 1055.53 339.861C1030.32 328.452 1004.42 318.59 977.574 311.399C929.17 298.524 876.465 295.128 828.597 306.956C813.107 310.832 798.185 316.274 784.358 323.484C714.912 359.634 684.219 428.743 632.027 480.057C564.622 546.413 448.571 576.697 351.149 538.434C308.529 521.662 273.811 494.086 240.163 465.304C214.368 443.17 190.415 421.358 166.272 401.454C153.618 390.95 140.479 380.847 127.036 371.186C90.3253 345.035 50.2892 322.56 3.85575 307.576C-7.88929 303.8 -19.9374 300.465 -32.2781 297.914C-61.3531 291.928 -90.948 291.084 -119.372 295.923C-176.22 305.602 -228.303 338.459 -253.507 385.295" stroke="#FE3F03" stroke-opacity="0.9" stroke-miterlimit="10"/>
<path d="M1158.16 396.137C1125.08 376.976 1091.14 358.558 1055.99 342.67C1030.5 331.201 1004.34 321.279 977.122 314.007C928.171 301.012 874.789 297.636 826.567 309.725C810.874 313.641 795.932 319.164 781.883 326.494C711.729 363.166 681.249 433.34 628.279 485.076C559.579 551.994 440.996 580.872 343.067 541.565C300.487 524.632 265.435 497.236 232.11 467.933C206.72 445.719 182.988 423.023 159.148 401.913C146.655 390.766 133.697 379.941 120.253 369.516C83.7016 341.197 43.6426 316.512 -2.71036 301.206C-14.4353 297.35 -26.4834 294.016 -38.9353 291.525C-68.1417 285.679 -98.009 285.538 -126.574 290.94C-183.411 301.723 -234.956 335.122 -260.019 382.159" stroke="#FE3F03" stroke-opacity="0.9" stroke-miterlimit="10"/>
<path d="M1159.91 399.149C1126.22 380.108 1091.98 361.369 1056.38 345.38C1030.62 333.851 1004.18 323.869 976.598 316.517C927.08 303.481 872.928 300.105 824.393 312.295C808.589 316.271 793.424 321.915 779.244 329.386C708.452 366.68 678.096 437.898 624.387 489.895C554.554 557.497 433.499 584.728 334.82 544.577C292.321 527.323 256.915 500.188 223.874 470.523C198.817 448.128 175.469 424.669 151.93 402.354C139.578 390.645 126.731 378.996 113.377 367.828C76.965 337.42 36.883 310.526 -9.34912 294.738C-21.0337 290.721 -33.1931 287.447 -45.5741 285.057C-74.932 279.432 -104.94 279.853 -133.667 285.898C-190.603 297.846 -241.723 331.848 -266.461 379.125" stroke="#FE3F03" stroke-opacity="0.9" stroke-miterlimit="10"/>
<path d="M1161.65 402.24C1102.52 369.621 1042.52 336.641 976.127 319.206C909.732 301.77 834.998 301.487 776.769 332.395C705.249 370.293 675.127 442.495 620.659 494.834C549.622 563.018 426.167 588.703 326.829 547.728C252.604 517.037 199.143 457.605 144.897 402.834C90.652 348.062 27.6318 293.391 -52.12 278.606C-140.264 262.396 -235.947 304.63 -272.882 376.009" stroke="#FE3F03" stroke-opacity="0.9" stroke-miterlimit="10"/>
<path d="M-267.735 376.126C-232.553 310.197 -146.519 270.405 -63.9772 279.447C-58.5513 280.049 -53.1658 280.813 -47.8608 281.898C28.4934 296.444 89.5683 347.39 142.598 399.36C144.463 401.127 146.216 402.955 148.08 404.723C202.387 458.501 256.285 516.598 330.086 545.929C428.94 585.024 550.254 557.928 621.771 491.277C630.941 482.7 639.573 473.58 647.79 464.199C688.462 417.796 720.341 365.045 779.606 335.376C809.173 320.612 842.757 313.602 877.361 312.498C910.791 311.475 945.23 316.016 977.619 324.514C1043.69 341.712 1103.72 373.433 1162.46 403.768" stroke="#FE3F03" stroke-opacity="0.9" stroke-miterlimit="10"/>
<path d="M-262.682 376.221C-226.99 311.323 -141.335 273.05 -59.5887 282.596C-54.2538 283.179 -48.8881 284.023 -43.5829 285.108C32.0562 299.838 92.708 350.191 145.779 401.247C147.644 403.016 149.417 404.764 151.282 406.532C205.631 459.396 259.873 516.139 333.363 544.049C431.824 581.283 551.015 552.695 622.902 487.638C632.214 479.26 640.786 470.379 649.126 461.278C690.388 416.352 723.253 366.183 782.443 338.357C811.972 324.514 845.305 318.125 879.608 317.463C912.756 316.801 946.863 321.524 979.203 329.843C1044.96 346.803 1104.92 377.244 1163.26 405.375" stroke="#FE3F03" stroke-opacity="0.9" stroke-miterlimit="10"/>
<path d="M-257.535 376.336C-221.335 312.471 -135.988 275.817 -55.1079 285.767C-49.7928 286.431 -44.5181 287.255 -39.3037 288.32C35.6 303.314 95.8487 352.994 148.962 403.136C150.826 404.905 152.62 406.573 154.485 408.341C208.966 460.312 263.554 515.7 336.548 542.148C434.617 577.521 551.686 547.44 623.942 483.978C633.305 475.779 642 467.178 650.462 458.356C692.335 414.828 726.186 367.241 785.208 341.238C814.608 328.296 847.762 322.63 881.783 322.33C914.63 322.11 948.536 326.873 980.623 335.054C1046.05 351.776 1106.04 381.038 1164.01 406.803" stroke="#FE3F03" stroke-opacity="0.9" stroke-miterlimit="10"/>
<path d="M-252.479 376.428C-215.77 313.595 -130.802 278.461 -50.6063 288.856C-45.3821 289.499 -40.1272 290.404 -34.9127 291.469C39.2558 306.728 99.1014 355.735 152.236 405.043C154.121 406.732 155.895 408.481 157.688 410.149C212.232 461.126 267.144 515.238 339.826 540.266C437.431 573.676 552.357 542.182 625.186 480.274C634.58 472.334 643.417 463.932 651.981 455.47C694.445 413.421 729.303 368.336 788.138 344.237C817.5 332.218 850.403 327.174 884.031 327.295C916.596 327.437 950.17 332.383 982.097 340.444C1047.21 356.929 1107.13 384.91 1164.7 408.47" stroke="#FE3F03" stroke-opacity="0.9" stroke-miterlimit="10"/>
<path d="M-247.332 376.541C-210.114 314.74 -125.525 281.127 -46.1248 292.026C-40.9206 292.75 -35.7566 293.635 -30.633 294.681C42.8001 310.204 102.243 358.538 155.419 406.932C157.213 408.601 159.098 410.289 160.891 411.958C215.477 462.021 270.845 514.717 343.104 538.383C440.316 569.93 553.028 536.922 626.317 476.629C635.763 468.869 644.722 460.747 653.408 452.565C696.463 411.994 732.308 369.494 790.996 347.139C820.228 336.022 852.971 331.62 886.298 332.184C918.582 332.687 951.934 337.755 983.7 345.697C1048.49 361.944 1108.44 388.665 1165.6 410.018" stroke="#FE3F03" stroke-opacity="0.9" stroke-miterlimit="10"/>
<path d="M-242.184 376.649C-204.456 315.88 -120.266 283.869 -41.6417 295.192C-36.5284 295.896 -31.3844 296.862 -26.2806 297.988C46.4169 313.776 105.547 361.457 158.654 408.996C160.448 410.665 162.353 412.274 164.147 413.943C218.794 463.011 274.578 514.452 346.433 536.675C443.252 566.359 553.842 531.855 627.501 473.159C636.998 465.578 645.988 457.715 654.796 449.813C698.462 410.641 735.294 370.726 793.814 350.196C823.009 340.002 855.39 336.282 888.526 337.229C920.528 338.094 953.659 343.283 985.153 351.167C1049.71 367.196 1109.51 392.616 1166.29 411.681" stroke="#FE3F03" stroke-opacity="0.9" stroke-miterlimit="10"/>
<path d="M-237.128 376.741C-198.891 317.005 -115.08 286.516 -37.1401 298.285C-32.0467 299.069 -26.9936 300.015 -21.8896 301.141C50.0723 317.194 108.779 364.282 161.948 410.826C163.762 412.415 165.667 414.024 167.461 415.694C222.241 463.867 278.279 513.931 349.822 534.731C446.177 562.45 554.623 526.531 628.763 469.371C638.311 461.969 647.424 454.387 656.354 446.764C700.611 409.072 738.45 371.662 796.783 353.039C825.939 343.767 858.069 340.671 890.832 341.959C922.553 343.187 955.352 348.558 986.797 356.263C1051.05 371.974 1110.78 396.192 1167.24 413.069" stroke="#FE3F03" stroke-opacity="0.9" stroke-miterlimit="10"/>
<path d="M-231.979 376.85C-193.233 318.147 -109.731 289.28 -32.6573 301.454C-27.5637 302.239 -22.6217 303.245 -17.6087 304.351C53.6176 320.669 111.921 367.083 165.131 412.712C166.946 414.302 168.851 415.911 170.665 417.501C225.507 464.679 281.981 513.406 353.009 532.823C448.971 558.677 555.294 521.261 629.804 465.697C639.383 458.556 648.638 451.173 657.69 443.83C702.629 407.639 741.364 372.796 799.641 355.939C828.668 347.571 860.618 345.198 893.1 346.849C924.518 348.519 957.116 353.932 988.309 361.497C1052.24 376.97 1112 399.927 1167.98 414.494" stroke="#FE3F03" stroke-opacity="0.9" stroke-miterlimit="10"/>
<path d="M-226.83 376.956C-187.555 319.205 -104.452 291.941 -28.1542 304.541C-23.1716 305.386 -18.2092 306.312 -13.2161 307.499C57.2745 324.082 115.175 369.823 168.407 414.618C170.241 416.127 172.055 417.717 173.981 419.246C228.865 465.51 285.775 512.901 356.399 530.873C451.968 554.862 556.077 515.928 631.047 461.981C640.678 455.019 650.055 447.916 659.21 440.934C704.76 406.143 744.482 373.888 802.571 358.938C831.56 351.494 863.259 349.744 895.439 351.838C926.576 353.871 958.842 359.466 989.874 366.913C1053.49 382.148 1113.16 403.902 1168.85 416.199" stroke="#FE3F03" stroke-opacity="0.9" stroke-miterlimit="10"/>
<path d="M-221.751 376.961C-181.987 320.324 -99.263 294.584 -23.6502 307.629C-18.6674 308.474 -13.8161 309.46 -8.93408 310.709C60.8409 327.477 118.318 372.624 171.591 416.503C173.426 418.013 175.26 419.522 177.095 421.032C232.04 466.3 289.255 512.494 359.587 528.96C454.632 551.224 556.657 510.631 632.088 458.302C641.861 451.54 651.178 444.676 660.546 437.994C706.688 404.685 747.326 374.918 805.339 361.817C834.198 355.277 865.627 354.231 897.525 356.688C928.38 359.084 960.424 364.801 991.296 372.128C1054.59 387.125 1114.29 407.617 1169.51 417.602" stroke="#FE3F03" stroke-opacity="0.9" stroke-miterlimit="10"/>
<path d="M-216.6 377.062C-176.326 321.459 -93.9813 297.243 -19.1645 310.794C-14.2928 311.7 -9.35014 312.707 -4.55908 313.935C64.4801 330.969 121.554 375.443 174.848 418.487C176.683 419.997 178.538 421.426 180.372 422.936C235.36 467.288 293.011 512.144 362.939 527.165C457.611 547.481 557.492 505.469 633.313 454.658C643.117 448.156 652.577 441.493 661.976 435.071C708.709 403.244 750.334 376.067 808.179 364.795C837.001 359.179 868.178 358.757 899.775 361.657C930.348 364.416 962.151 370.336 992.77 377.524C1055.74 392.283 1115.39 411.491 1170.29 419.284" stroke="#FE3F03" stroke-opacity="0.9" stroke-miterlimit="10"/>
<path d="M-211.448 377.176C-170.666 322.609 -88.7211 299.999 -14.6808 313.976C-9.80891 314.882 -4.97737 315.949 -0.186136 317.178C68.1166 334.477 124.766 378.355 178.122 420.401C179.977 421.831 181.812 423.341 183.667 424.771C238.787 468.226 296.783 511.722 366.215 525.276C460.493 543.723 558.158 500.192 634.44 451.003C644.296 444.68 653.877 438.297 663.399 432.156C710.742 401.732 753.354 377.147 811.032 367.706C839.815 363.015 870.721 363.298 902.036 366.561C932.398 369.783 963.817 375.705 994.367 382.793C1057.02 397.314 1116.69 415.257 1171.12 420.735" stroke="#FE3F03" stroke-opacity="0.9" stroke-miterlimit="10"/>
<path d="M-206.389 377.297C-165.098 323.771 -83.443 302.709 -10.1804 317.11C-5.41974 318.077 -0.588081 319.145 4.11209 320.353C71.6773 337.916 128.013 381.135 181.319 422.239C183.174 423.669 185.029 425.099 186.883 426.528C242.064 468.982 300.404 511.113 369.502 523.319C463.293 539.876 558.832 494.85 635.574 447.286C645.48 441.144 655.184 435.042 664.827 429.182C712.761 400.245 756.379 378.175 813.868 370.645C842.522 366.86 873.267 367.787 904.188 371.474C934.268 375.059 965.445 381.182 995.741 388.131C1058.07 402.411 1117.68 419.067 1171.79 422.352" stroke="#FFA200" stroke-miterlimit="10"/>
<path d="M-201.235 377.438C-159.435 324.953 -78.162 305.42 -5.69744 320.326C-0.93671 321.293 3.78372 322.421 8.48398 323.629C75.3116 341.456 131.243 383.994 184.568 424.257C186.423 425.687 188.298 427.037 190.153 428.467C245.374 469.998 304.149 510.785 372.841 521.542C466.237 536.227 559.67 489.625 636.85 443.768C646.808 437.807 656.542 431.966 666.379 426.488C714.903 399.039 759.528 379.484 816.939 373.806C845.553 370.947 876.027 372.579 906.685 376.548C936.483 380.496 967.346 386.721 997.482 393.55C1059.48 407.589 1119.13 422.979 1172.85 423.967" stroke="#FFA200" stroke-miterlimit="10"/>
<path d="M-196.082 377.577C-153.774 326.135 -72.9024 308.21 -1.19564 323.461C3.45385 324.488 8.17435 325.616 12.7634 326.885C78.8532 344.976 134.379 386.834 187.746 426.174C189.621 427.523 191.496 428.873 193.26 430.283C248.541 470.812 307.73 510.334 376.017 519.642C469.038 532.375 560.232 484.338 637.892 440.027C647.88 434.327 657.757 428.687 667.625 423.471C716.759 397.428 762.35 380.55 819.592 376.705C848.168 374.772 878.298 377.009 908.745 381.441C938.26 385.752 968.901 392.098 998.875 398.807C1060.55 412.607 1120.12 426.789 1173.45 425.481" stroke="#FFA200" stroke-miterlimit="10"/>
<path d="M-191.019 377.695C-148.203 327.294 -67.7126 310.899 3.28727 326.675C7.93685 327.702 12.5461 328.891 17.1352 330.16C82.4874 348.514 137.609 389.692 190.995 428.19C192.87 429.54 194.654 430.87 196.549 432.139C251.963 471.766 311.425 509.821 379.377 517.78C471.911 528.621 560.979 479.088 639.097 436.404C649.137 430.885 659.136 425.527 669.125 420.592C718.849 396.037 765.447 381.675 822.52 379.663C850.966 378.636 880.936 381.518 910.989 386.374C940.201 391.129 970.62 397.596 1000.34 404.165C1061.7 417.724 1121.2 430.619 1174.22 427.115" stroke="#FFA200" stroke-miterlimit="10"/>
<path d="M-185.864 377.834C-142.449 328.496 -62.3399 313.631 7.79075 329.811C12.3291 330.899 16.9384 332.088 21.4365 333.337C86.0508 351.955 140.767 392.452 194.194 430.027C196.089 431.297 197.873 432.626 199.768 433.896C255.242 472.519 315.119 509.309 382.574 515.798C474.733 524.686 561.653 473.738 640.14 432.661C650.23 427.323 660.351 422.246 670.463 417.593C720.797 394.446 768.381 382.681 825.266 382.583C853.672 382.483 883.37 386.07 913.14 391.289C942.07 396.407 972.176 402.976 1001.74 409.424C1062.86 422.763 1122.3 434.37 1174.84 428.549" stroke="#FFA200" stroke-miterlimit="10"/>
<path d="M-180.708 377.971C-136.784 329.675 -57.0768 316.42 12.2759 333.025C16.8143 334.113 21.3325 335.282 25.8105 336.612C89.7781 355.514 143.978 395.39 197.465 431.962C199.361 433.232 201.165 434.481 203.06 435.75C258.574 473.451 318.886 508.895 385.935 513.934C477.698 520.949 562.401 468.484 641.347 429.035C651.559 423.978 661.64 419.062 671.965 414.711C722.889 393.052 771.459 383.886 828.195 385.54C856.472 386.347 886.009 390.579 915.476 396.242C944.123 401.724 973.987 408.495 1003.38 414.823C1064.21 427.841 1123.57 438.24 1175.79 430.222" stroke="#FFA200" stroke-miterlimit="10"/>
<path d="M-175.642 378.084C-131.209 330.832 -51.8836 319.106 16.7618 336.237C21.3003 337.325 25.7073 338.555 30.1652 339.965C93.415 359.05 147.19 398.326 200.697 434.055C202.592 435.325 204.417 436.493 206.312 437.763C261.887 474.459 322.542 508.536 389.257 512.226C480.553 517.267 563.108 463.387 642.533 425.486C652.796 420.61 662.999 415.975 673.335 411.966C724.849 391.797 774.426 385.148 830.993 388.636C859.23 390.37 888.404 395.288 917.589 401.314C945.953 407.159 975.504 414.031 1004.74 420.239C1065.24 433.016 1124.63 442.147 1176.38 431.811" stroke="#FFA200" stroke-miterlimit="10"/>
<path d="M-170.485 378.218C-125.543 332.008 -46.6198 321.894 21.2677 339.369C25.695 340.518 30.1021 341.748 34.4688 343.138C96.9808 362.487 150.351 401.082 203.898 435.888C205.722 437.057 207.618 438.326 209.442 439.495C265.057 475.269 326.188 507.838 392.436 510.319C483.377 513.325 563.765 458.109 643.558 421.816C653.872 417.121 664.197 412.768 674.655 409.04C726.78 390.279 777.342 386.23 833.811 391.654C862.01 394.315 890.932 399.858 919.814 406.328C947.896 412.536 977.204 419.61 1006.28 425.698C1066.45 438.235 1125.78 446.076 1177.21 433.543" stroke="#FFA200" stroke-miterlimit="10"/>
<path d="M-165.417 378.333C-119.968 333.168 -41.4261 324.585 25.6628 342.565C30.0901 343.714 34.3859 345.004 38.7528 346.395C100.527 366.007 153.582 403.94 207.079 437.801C208.903 438.971 210.819 440.16 212.643 441.329C268.389 476.198 329.772 507.379 395.615 508.41C486.069 509.521 564.329 452.809 644.58 418.146C654.926 413.712 665.393 409.56 675.972 406.114C728.687 388.844 780.237 387.394 836.557 394.571C864.625 398.14 893.366 404.409 921.986 411.161C949.764 417.813 978.871 424.929 1007.69 430.876C1067.54 443.172 1126.88 449.825 1177.86 434.892" stroke="#FFA200" stroke-miterlimit="10"/>
<path d="M-160.257 378.464C-114.299 334.343 -36.0685 327.392 30.2421 345.797C34.5582 347.006 38.854 348.296 43.1297 349.667C104.165 369.543 156.816 406.794 210.332 439.812C212.157 440.981 214.093 442.09 215.917 443.259C271.724 477.124 333.521 507.038 398.958 506.617C489.016 505.854 565.148 447.645 645.788 414.511C656.184 410.258 666.682 406.368 677.475 403.224C730.78 387.444 783.336 388.514 839.466 397.606C867.476 402.183 895.985 408.997 924.21 416.173C951.706 423.189 980.479 430.486 1009.16 436.232C1068.69 448.287 1127.96 453.651 1178.62 436.52" stroke="#FFA200" stroke-miterlimit="10"/>
<path d="M-155.078 378.518C-108.611 335.442 -30.7626 330.022 34.7696 348.852C39.0857 350.062 43.2703 351.412 47.5461 352.783C107.844 372.923 160.089 409.492 213.646 441.586C215.49 442.674 217.335 443.763 219.251 444.952C275.097 477.893 337.258 506.358 402.36 504.586C491.951 501.848 565.936 442.223 647.034 410.718C657.482 406.647 668.082 403.12 678.925 400.157C732.932 385.806 786.383 389.456 842.344 400.384C870.315 405.888 898.46 413.388 926.494 420.948C953.707 428.327 982.258 435.746 1010.76 441.452C1069.96 453.267 1129.26 457.361 1179.45 437.91" stroke="#FFA200" stroke-miterlimit="10"/>
<path d="M-150.007 378.625C-103.032 336.593 -25.565 332.705 39.1686 352.04C43.3735 353.311 47.5581 354.661 51.8138 356.113C111.373 376.517 163.193 412.484 216.79 443.653C218.635 444.742 220.479 445.831 222.435 446.859C278.342 478.794 340.918 505.992 405.614 502.769C494.809 498.155 566.575 437.013 648.223 407.159C658.722 403.268 669.444 400.023 680.389 397.423C734.986 384.562 789.423 390.814 845.216 403.577C873.056 409.989 901.041 418.134 928.772 426.139C955.702 433.881 983.939 441.402 1012.28 446.987C1071.16 458.561 1130.4 461.365 1180.27 439.715" stroke="#FFA200" stroke-miterlimit="10"/>
<path d="M-144.844 378.756C-97.361 337.769 -20.2962 335.493 43.7702 355.193C47.9751 356.464 52.1396 357.895 56.213 359.307C115.034 379.974 166.449 415.259 220.177 445.523C222.042 446.531 223.886 447.62 225.751 448.628C281.789 479.659 344.709 505.488 408.907 500.792C497.706 494.303 567.344 431.664 649.36 403.421C659.89 399.792 670.754 396.748 681.821 394.43C737.008 383.061 792.451 391.833 848.075 406.432C875.876 413.771 903.588 422.623 930.945 430.971C957.573 439.158 985.588 446.8 1013.76 452.265C1072.32 463.597 1131.59 465.132 1180.98 441.161" stroke="#FFA200" stroke-miterlimit="10"/>
<path d="M-139.68 378.883C-91.6886 338.942 -14.9147 338.219 48.2617 358.404C111.438 378.59 165.956 416.095 223.362 447.43C280.84 478.866 346.222 505.242 412.182 498.893C511.917 489.46 585.038 409.032 683.234 391.514C766.817 376.637 851.917 409.586 933.191 435.902C1014.46 462.217 1109.15 481.456 1181.77 442.705" stroke="#FFA200" stroke-miterlimit="10"/>
</svg>
