<svg width="69" height="32" viewBox="0 0 69 32" fill="none" xmlns="http://www.w3.org/2000/svg">
<path d="M1 10.9498C4.2527 7.34998 8.16308 4.10188 12.903 2.32624C17.643 0.550614 23.3174 0.420405 27.74 2.77971C31.0682 4.55534 33.4835 7.68293 34.1883 11.1299C34.8929 14.5769 33.8751 18.2829 31.4706 21.0252C29.5446 23.2205 26.5443 24.833 23.4714 24.5356C20.3985 24.2382 17.6087 21.5556 18.1559 18.7927C18.4534 17.2945 19.5903 16.0603 20.7344 14.9481C22.3345 13.3933 24.057 11.9034 26.0972 10.8572C28.7178 9.5091 31.7388 8.94875 34.7283 8.6216C37.3904 8.3301 40.1345 8.21349 42.7117 8.88591C47.1157 10.0351 50.5581 13.4853 51.9419 17.4525C52.8806 20.1481 52.9298 23.1532 51.6972 25.7515C50.4646 28.3499 47.8561 30.4546 44.7867 30.9275C44.164 31.0233 43.5026 31.0506 42.9164 30.8427C42.3579 30.645 41.9084 30.2518 41.5397 29.8217C39.1528 27.036 40.0589 22.6958 42.805 20.1972C45.5513 17.6987 49.6365 16.7755 53.5247 16.7639C58.6817 16.7625 63.7218 18.1586 68 20.7737" stroke="white" stroke-width="2" stroke-linecap="round" stroke-linejoin="round"/>
</svg>
