<svg width="129" height="30" viewBox="0 0 129 30" fill="none" xmlns="http://www.w3.org/2000/svg">
<path d="M74.4772 17.5536C69.2442 19.2467 63.9364 20.6572 58.7034 20.6572C56.0121 20.6572 53.8442 19.9523 51.4521 17.6946C50.1063 16.2841 48.7609 14.45 47.2657 13.8854C44.948 12.8985 42.4812 14.5909 40.2382 15.8611C37.8462 17.2716 33.7344 21.0808 31.1926 19.9523C27.4547 18.1182 31.5665 9.93548 30.4451 4.99772C29.3985 0.342196 26.4829 -0.222137 24.1654 0.0600298C20.9508 0.483248 17.5867 2.45835 14.6712 5.13884C10.2605 9.08904 6.07408 15.2965 1.0653 16.2841C-0.355099 16.566 -0.355099 20.7982 1.0653 20.5162C9.51292 18.9648 15.9421 3.86912 24.614 4.29234C31.2674 4.5745 25.7353 14.5909 27.3053 20.3753C28.1276 23.6199 29.9965 24.3255 31.716 24.3255C34.482 24.1845 37.3229 22.0684 39.9394 20.6572C43.8267 18.4002 46.1443 17.2716 49.8075 21.2218C57.1334 28.9813 67.0762 24.6074 75.0005 22.0684C76.4958 21.2218 75.8977 17.1306 74.4772 17.5536Z" fill="white"/>
<path d="M126.881 13.8854C122.097 17.8356 117.312 22.2094 112.154 24.3255C109.687 25.3131 106.024 26.4416 104.006 22.7734C101.838 18.9648 103.183 14.591 102.66 9.93553C101.838 2.03519 95.3335 3.86917 92.3434 4.99777C85.391 7.53721 79.186 15.4376 72.3084 18.4002C70.8879 18.9648 71.4859 22.915 72.9064 22.4914C80.6062 20.3753 85.9143 11.6285 92.9414 9.0891C94.7355 8.52476 97.352 7.67833 99.1464 8.80693C100.94 9.93553 100.417 11.9106 100.342 14.732C100.268 18.4002 100.641 22.0684 101.987 24.8901C107.968 37.8693 121.723 22.6324 128.003 17.5536C129.348 16.4251 128.227 12.7571 126.881 13.8854Z" fill="white"/>
</svg>
