<svg width="1320" height="700" viewBox="0 0 1320 700" fill="none" xmlns="http://www.w3.org/2000/svg">
<path d="M1237.07 -81.4562C1227.76 -18.6651 1168.57 37.0482 1100.09 47.6399C1051.32 55.1534 999.797 42.1006 953.57 59.306C897.279 80.1677 869.985 135.545 839.209 179.225C800.603 233.991 757.149 263.379 684.317 261.1C630.325 259.454 581.017 237.918 526.349 250.756C425.803 274.35 399.14 380.932 383.974 460.176C368.705 539.974 354.771 623.913 281.521 680.303C221.499 726.559 153.627 739.234 79.1574 736.494C43.3537 735.21 8.93284 736.781 -24.0159 721.77" stroke="#FFA200" stroke-miterlimit="10"/>
<path d="M-27.9451 719.093C5.59993 733.645 40.6488 732.243 76.8977 733.422C103.56 734.324 129.387 733.196 154.349 729.408C200.082 722.505 242.882 706.217 282.123 675.917C294.223 666.474 304.86 656.315 314.058 645.543C360.837 590.539 371.821 519.925 385.308 452.432C401.349 371.92 431.613 265.652 533.375 242.725C588.25 230.262 637.685 251.344 691.598 253.646C739.651 255.531 775.154 244.154 805.189 221.127C820.405 209.46 834.079 194.763 847.467 177.375C879.236 135.899 907.977 83.1507 964.3 62.9181C978.276 57.9114 992.625 55.469 1007.26 54.232C1041.39 51.4551 1076.66 55.4139 1110.5 49.4173C1178.56 37.5459 1236.83 -18.5857 1245.76 -81.4989" stroke="#FFA200" stroke-miterlimit="10"/>
<path d="M-35.3033 713.834C-0.5657 727.467 35.4928 726.357 72.8786 727.373C100.208 728.117 126.839 726.905 152.555 722.832C199.6 715.512 243.999 698.528 283.741 667.366C296.126 657.643 306.915 647.13 316.24 635.903C363.703 578.828 373.248 506.113 388.008 437.045C405.861 353.769 443.47 248.733 547.593 226.838C602.548 215.205 652.397 235.552 706.301 238.811C753.631 241.61 789.476 232.168 820.202 212.055C835.775 201.895 850.078 188.853 864.054 173.447C897.699 136.408 929.246 89.0429 985.918 69.7884C999.965 65.0831 1014.43 62.6143 1029.12 61.15C1063.36 57.8181 1098.44 60.0164 1131.75 52.7665C1198.7 38.1875 1255.15 -18.6807 1263.43 -81.8643" stroke="#FFA200" stroke-miterlimit="10"/>
<path d="M-38.9621 711.306C-3.6282 724.479 33.0582 723.539 70.7779 724.475C98.4416 725.141 125.406 723.849 151.568 719.671C199.257 712.093 244.387 694.723 284.414 663.281C296.888 653.431 307.875 642.765 317.264 631.311C365.203 573.273 373.906 499.485 389.278 429.529C408.006 344.985 449.264 240.463 554.555 219.034C609.63 207.904 659.717 227.77 713.494 231.484C760.586 234.764 796.534 226.252 827.617 207.645C843.358 198.189 857.874 186.051 872.312 171.597C906.974 136.864 939.832 92.0526 996.648 73.4009C1010.72 68.796 1025.29 66.3008 1039.96 64.7361C1074.24 61.0764 1109.24 62.4447 1142.27 54.5179C1208.69 38.6856 1264.33 -18.6274 1272.11 -81.9067" stroke="#FFA200" stroke-miterlimit="10"/>
<path d="M-42.7544 708.703C-6.82422 721.417 30.379 720.673 68.6314 721.377C96.6291 721.963 124.039 720.566 150.534 716.309C198.891 708.573 244.864 690.791 285.154 658.969C297.826 648.965 308.765 638.099 318.329 626.391C366.611 567.317 374.606 492.529 390.614 421.786C410.304 335.846 455.1 231.866 561.719 211.078C616.864 200.249 667.103 219.761 720.888 224.003C767.606 227.69 803.681 220.21 835.233 203.083C851.276 194.404 865.983 183.069 880.77 169.594C916.315 137.092 950.62 94.9093 1007.58 76.8603C1021.67 72.3558 1036.24 69.8606 1050.9 68.1955C1085.24 64.3085 1120.05 64.8731 1153.02 56.2166C1219 39.0042 1273.6 -18.7009 1281.11 -82.1287" stroke="#FFA200" stroke-miterlimit="10"/>
<path d="M-46.4332 706.074C-9.90681 718.329 27.7893 717.68 66.622 718.353C94.9536 718.86 122.697 717.384 149.638 713.021C198.639 705.027 245.367 686.959 286.03 654.73C298.79 644.6 309.928 633.581 319.556 621.645C368.29 561.509 375.443 485.647 392.222 414.19C412.763 326.882 461.319 223.39 569.019 203.195C624.26 192.768 674.649 211.926 728.442 216.697C774.787 220.791 811.1 214.315 842.899 198.721C859.109 190.745 874.142 180.289 889.278 167.792C925.928 137.468 961.457 97.9667 1018.53 80.4199C1032.79 76.0901 1047.25 73.6212 1061.99 71.8293C1096.37 67.6145 1131.1 67.3491 1163.8 58.0157C1229.21 39.4494 1282.92 -18.5737 1290.05 -82.1235" stroke="#FFA200" stroke-miterlimit="10"/>
<path d="M-50.117 703.445C-12.9943 715.24 25.3298 714.761 64.4964 715.355C93.1619 715.783 121.239 714.228 148.625 709.759C198.294 701.607 245.753 683.154 286.656 650.444C299.503 640.187 310.816 628.914 320.531 616.852C369.608 555.679 376.053 478.817 393.444 406.473C414.971 317.869 467.064 214.92 576.044 195.164C631.269 185.165 681.897 203.842 735.698 209.142C781.781 213.616 818.11 208.197 850.378 194.085C866.778 186.912 882.113 177.233 897.599 165.714C935.242 137.596 972.13 100.849 1029.33 83.8049C1043.61 79.5755 1058.18 77.0803 1072.89 75.1878C1107.34 70.7458 1141.96 69.5499 1174.38 59.5396C1239.27 39.7199 1292.16 -18.748 1298.91 -82.4199" stroke="#FFA200" stroke-miterlimit="10"/>
<path d="M-53.7755 700.916C-16.0804 712.151 22.7842 711.968 62.5073 712.43C91.5067 712.779 120.029 711.119 147.749 706.572C198.173 698.134 246.364 679.296 287.552 646.306C300.598 635.896 311.887 624.522 321.754 612.106C371.307 549.971 376.91 472.035 394.938 398.903C417.315 308.931 473.057 206.496 583.253 187.408C638.574 177.81 689.353 196.134 743.138 201.861C788.871 206.843 825.414 202.328 857.928 189.749C874.607 183.253 890.157 174.478 905.881 163.964C944.541 138.152 982.741 103.959 1040.08 87.5175C1054.38 83.3886 1068.95 80.8933 1083.76 78.8741C1118.24 74.1043 1152.79 72.0783 1184.95 61.4915C1249.28 40.3181 1301.28 -18.4679 1307.63 -82.3623" stroke="#FFA200" stroke-miterlimit="10"/>
<path d="M-57.4548 698.287C-19.1634 709.063 20.1941 708.975 60.4975 709.406C89.8308 709.676 118.687 707.937 146.829 703.184C197.92 694.588 246.842 675.364 288.405 641.968C301.538 631.43 313.002 619.803 322.844 607.286C372.74 544.116 377.636 465.18 396.275 391.16C419.614 299.792 478.894 197.899 590.282 179.377C645.698 170.182 696.716 188.024 750.422 194.407C795.781 199.796 832.587 196.386 865.435 185.213C882.304 179.521 898.156 171.524 914.23 161.988C953.995 138.354 993.419 106.843 1050.88 90.9031C1065.23 86.975 1079.89 84.353 1094.66 82.2332C1129.21 77.2362 1163.66 74.2796 1195.54 63.016C1259.43 40.4623 1310.39 -18.7158 1316.38 -82.6318" stroke="#FFA200" stroke-miterlimit="10"/>
<path d="M-61.2464 695.685C-22.3587 706.001 17.6268 706.083 58.3516 706.308C88.0188 706.499 117.233 704.781 145.685 699.848C197.42 690.994 247.098 671.485 288.898 637.607C302.119 626.943 313.782 615.163 323.688 602.419C374.037 538.186 378.09 458.176 397.389 383.469C421.603 290.833 484.507 189.355 597.2 171.372C652.711 162.579 703.88 180.067 757.57 186.879C802.667 192.647 839.488 190.295 872.694 180.629C889.73 175.64 905.908 168.521 922.332 159.963C963.114 138.635 1003.85 109.678 1061.45 94.3411C1075.82 90.5135 1090.51 87.9919 1105.26 85.7717C1139.85 80.4468 1174.13 76.7871 1205.82 64.7197C1269.17 40.9126 1319.32 -18.7104 1324.93 -82.7484" stroke="#FFA200" stroke-miterlimit="10"/>
<path d="M-64.9274 693.056C-25.4435 702.913 15.0588 703.191 56.2289 703.31C86.3413 703.396 115.889 701.599 144.675 696.587C197.078 687.574 247.574 667.554 289.661 633.396C303.057 622.478 314.696 610.597 324.777 597.599C375.468 532.33 378.814 451.32 398.725 375.725C424.06 281.869 490.589 180.805 604.498 163.49C660.081 154.998 711.401 172.132 765.123 179.572C809.846 185.748 846.906 184.401 880.469 176.241C897.807 172.03 914.175 165.714 930.949 158.134C972.86 139.085 1014.82 112.81 1072.54 97.9752C1086.96 94.3485 1101.73 91.7001 1116.46 89.3794C1151.11 83.8273 1185.29 79.237 1216.73 66.5931C1279.53 41.4322 1328.78 -18.5088 1333.98 -82.7694" stroke="#FFA200" stroke-miterlimit="10"/>
<path d="M-68.5826 690.527C-28.5024 699.924 12.4928 700.298 54.2432 700.386C84.6895 700.393 114.571 698.517 143.802 693.399C196.849 684.128 248.101 663.822 290.562 629.258C304.045 618.213 315.883 606.179 326.027 592.954C377.084 526.749 379.698 444.639 400.357 368.23C426.408 272.93 496.562 172.281 611.687 155.633C667.254 147.569 718.812 164.223 772.542 172.192C816.891 178.774 854.079 178.458 888.111 171.779C905.64 168.371 922.445 162.907 939.434 156.231C982.473 139.462 1025.63 115.767 1083.5 101.535C1097.94 98.0087 1112.71 95.3603 1127.53 92.9128C1162.22 87.0329 1196.32 81.6125 1227.48 68.2917C1289.72 41.7769 1338.05 -18.5826 1343.01 -82.8912" stroke="#FFA200" stroke-miterlimit="10"/>
<path d="M-72.2632 687.898C-31.5867 696.835 10.0365 697.379 52.2321 697.362C83.0123 697.289 113.228 695.334 142.904 690.111C196.619 680.682 248.602 659.991 291.301 624.945C304.872 613.773 316.885 601.485 327.117 588.133C378.627 520.866 380.398 437.682 401.693 360.486C428.594 263.817 502.397 163.683 618.715 147.601C674.377 139.939 726.175 156.112 779.801 164.636C823.888 171.599 861.202 172.314 895.481 167.168C913.176 164.464 930.308 159.877 947.535 154.206C991.703 139.716 1036.06 118.602 1094.05 104.872C1108.63 101.42 1123.31 98.8985 1138.19 96.2237C1172.95 90.1165 1206.94 83.7656 1237.82 69.7679C1299.64 41.9733 1347.05 -18.8047 1351.51 -83.209" stroke="#FFA200" stroke-miterlimit="10"/>
<path d="M-75.9443 685.269C-34.6715 693.747 7.46841 694.486 50.2205 694.338C81.3585 694.286 111.996 692.125 142.006 686.823C196.388 677.236 249.214 656.133 292.176 620.707C305.834 609.408 318.045 596.967 328.341 583.388C380.193 515.085 381.257 430.9 403.188 352.916C431.051 254.853 508.392 155.26 625.902 139.745C681.636 132.384 733.608 148.303 787.242 157.356C830.956 164.726 868.533 166.546 903.145 162.807C921.031 160.906 938.488 157.197 956.041 152.404C1001.34 140.193 1046.9 121.66 1105.03 108.533C1119.65 105.282 1134.42 102.633 1149.3 99.9583C1184.12 93.6238 1218.01 86.3423 1248.64 71.7681C1309.9 42.6197 1356.41 -18.4764 1360.58 -83.1296" stroke="#FE3F03" stroke-opacity="0.9" stroke-miterlimit="10"/>
<path d="M-79.7355 682.666C-37.8903 690.585 4.87765 691.493 47.9637 691.266C79.4355 691.135 110.407 688.895 140.862 683.488C195.888 673.642 249.446 652.154 292.805 616.421C306.662 604.969 318.825 592.327 329.296 578.494C381.601 509.128 381.847 423.97 404.414 345.199C433.152 245.867 514.117 146.689 632.843 131.841C688.673 124.882 740.772 140.346 794.414 149.928C837.865 157.678 875.458 160.555 910.428 158.323C928.592 157.1 946.264 154.295 964.167 150.48C1010.62 140.649 1057.35 124.596 1115.73 112.045C1130.39 108.894 1145.16 106.246 1160.01 103.471C1194.87 96.8085 1228.59 88.8237 1259.03 73.4458C1319.74 42.9434 1365.35 -18.4707 1369.14 -83.246" stroke="#FE3F03" stroke-opacity="0.627451" stroke-miterlimit="10"/>
<path d="M-83.4165 680.037C-40.975 687.496 2.30966 688.601 45.9522 688.242C77.758 688.032 109.063 685.713 139.963 680.2C195.658 670.196 249.946 648.322 293.568 612.209C307.512 600.63 319.875 587.835 330.298 573.801C382.969 503.5 382.459 417.141 405.662 337.582C435.362 236.854 519.952 138.091 639.895 123.91C695.796 117.252 748.047 132.363 801.721 142.574C844.798 150.731 882.629 154.613 917.956 153.888C936.312 153.467 954.309 151.54 972.538 148.604C1020.14 141.152 1068.08 127.68 1126.58 115.632C1141.25 112.581 1156.16 110.007 1170.97 107.031C1205.89 100.141 1239.51 91.2259 1269.67 75.171C1329.95 43.3889 1374.62 -18.5442 1378.05 -83.3411" stroke="#FE3F03" stroke-opacity="0.9" stroke-miterlimit="10"/>
<path d="M-87.0752 677.509C-44.0374 684.508 -0.236098 685.809 43.9629 685.318C76.1026 685.029 107.853 682.605 139.087 677.013C195.426 666.75 250.581 644.565 294.441 607.97C308.473 596.265 321.01 583.216 331.521 569.055C384.645 497.691 383.317 410.359 407.267 329.986C437.817 227.89 526.033 129.541 647.303 116C703.188 109.771 755.789 124.374 809.359 135.14C852.174 143.678 890.156 148.691 925.818 149.373C944.364 149.756 962.775 148.58 981.13 146.674C1029.77 141.629 1079 130.611 1137.62 119.065C1152.34 116.215 1167.22 113.541 1182.12 110.438C1217.08 103.22 1250.62 93.4748 1280.53 76.8434C1340.26 43.7074 1384.02 -18.5438 1387.05 -83.5632" stroke="#FE3F03" stroke-opacity="0.9" stroke-miterlimit="10"/>
<path d="M-90.7531 674.879C-47.1191 681.419 -2.71344 682.789 41.9546 682.293C74.4282 681.925 106.536 679.522 138.056 673.65C195.063 663.229 250.926 640.558 295.072 603.683C309.303 591.825 321.816 578.675 332.478 564.16C385.944 491.76 383.908 403.428 408.471 322.167C440.007 218.776 531.736 120.868 654.223 107.995C710.18 102.067 762.931 116.316 816.509 127.611C858.951 136.555 897.06 142.599 933.079 144.788C951.903 145.848 970.553 145.677 989.234 144.649C1039.03 141.984 1089.43 133.445 1148.19 122.502C1162.94 119.753 1177.93 117.052 1192.81 113.849C1227.83 106.404 1261.27 95.728 1290.9 78.4196C1350.07 43.9297 1392.94 -18.6396 1395.69 -83.8074" stroke="#FE3F03" stroke-opacity="0.9" stroke-miterlimit="10"/>
<path d="M-94.5471 672.277C-50.3168 678.357 -5.39439 679.923 39.7189 679.321C72.5264 678.875 104.968 676.392 136.934 670.415C194.695 659.709 251.313 636.753 295.722 599.498C310.04 587.513 322.729 574.109 333.478 559.468C387.397 486.005 384.519 396.598 409.742 314.651C442.24 209.864 537.705 112.345 661.297 100.165C717.349 94.6384 770.339 108.407 823.838 120.357C865.906 129.708 904.277 136.857 940.63 140.452C959.645 142.317 978.62 143.023 997.627 142.873C1048.58 142.588 1100.15 136.53 1159.06 126.189C1173.96 123.615 1188.82 120.84 1203.81 117.61C1238.87 109.838 1272.23 98.3314 1301.58 80.3461C1360.19 44.5022 1402.14 -18.4856 1404.52 -83.7755" stroke="#FE3F03" stroke-opacity="0.9" stroke-miterlimit="10"/>
<path d="M-98.2264 669.648C-53.3998 675.269 -7.9608 677.031 37.709 676.297C70.8504 675.772 103.738 673.184 136.037 667.128C194.466 656.264 251.816 632.922 296.575 595.159C310.98 583.047 323.867 569.491 334.68 554.622C388.965 480.223 385.356 389.716 411.19 306.881C444.539 200.725 543.519 103.647 668.438 92.1075C724.561 86.8828 777.726 100.398 831.098 112.802C872.903 122.534 911.291 130.741 947.977 135.742C967.183 138.41 986.484 139.995 1005.82 140.722C1057.83 142.944 1110.69 139.34 1169.7 129.401C1184.63 126.927 1199.51 124.252 1214.44 120.822C1249.57 112.822 1282.74 100.512 1311.92 81.8234C1370.12 44.6998 1411.14 -18.7065 1413.14 -84.1184" stroke="#FE3F03" stroke-opacity="0.9" stroke-miterlimit="10"/>
<path d="M-101.882 667.119C-56.4596 672.28 -10.4164 674.111 35.6986 673.273C69.1738 672.668 102.395 670.001 135.139 663.839C194.213 652.717 252.318 629.09 297.339 590.947C311.919 578.581 324.782 564.924 335.77 549.802C390.397 474.367 386.08 382.861 412.551 299.238C446.774 191.814 549.49 95.1248 675.514 84.2784C731.733 79.4555 785.025 92.5157 838.405 105.449C879.836 115.588 918.462 124.799 955.506 131.308C974.879 134.679 994.53 137.241 1014.21 138.947C1067.27 143.575 1121.42 142.425 1180.56 133.089C1195.52 130.716 1210.51 128.015 1225.42 124.484C1260.59 116.156 1293.68 103.016 1322.59 83.6505C1380.36 45.2472 1420.48 -18.4769 1422.09 -84.0107" stroke="#FE3F03" stroke-opacity="0.9" stroke-miterlimit="10"/>
<path d="M-105.562 664.491C-59.567 669.092 -12.9832 671.219 33.577 670.275C67.3861 669.591 100.941 666.846 134.131 660.579C193.872 649.298 252.796 625.159 298.103 586.736C312.771 574.243 325.833 560.433 336.884 545.083C391.964 468.587 386.805 376.006 414.023 291.569C449.097 182.777 555.326 86.5293 682.677 76.3235C738.857 71.8284 792.523 84.4819 845.823 98.0708C886.992 108.59 925.658 118.959 963.147 126.848C982.821 130.996 1002.66 134.363 1022.58 137.073C1076.7 144.208 1132.12 145.411 1191.41 136.678C1206.41 134.506 1221.38 131.704 1236.38 128.046C1271.61 119.491 1304.59 105.421 1333.22 85.3784C1390.33 45.6475 1429.64 -18.5212 1430.87 -84.1769" stroke="#FE3F03" stroke-opacity="0.9" stroke-miterlimit="10"/>
<path d="M-109.243 661.861C-62.651 666.003 -15.5505 668.327 31.5662 667.251C65.7092 666.488 99.7094 663.637 133.233 657.291C193.618 645.751 253.297 621.327 298.978 582.498C313.733 569.878 326.97 555.814 337.997 540.364C393.419 462.831 387.553 369.251 415.407 284.027C451.332 173.866 561.162 77.933 689.753 68.4947C746.028 64.4015 799.821 76.6003 853.129 90.7179C894.036 101.617 932.741 113.144 970.564 122.44C990.429 127.392 1010.6 131.636 1030.84 135.225C1086 144.765 1142.71 148.423 1202.14 140.293C1217.16 138.221 1232.27 135.493 1247.24 131.735C1282.52 122.852 1315.42 107.952 1343.79 87.3326C1400.54 46.0948 1438.82 -18.4659 1439.67 -84.2435" stroke="#FE3F03" stroke-opacity="0.9" stroke-miterlimit="10"/>
<path d="M-113.033 659.259C-65.8448 662.941 -18.1403 665.334 29.4454 664.253C63.9223 663.411 98.2564 660.481 132.225 654.029C193.278 642.332 253.688 617.523 299.608 578.212C314.562 565.439 327.775 551.275 338.977 535.571C394.876 457.076 388.167 362.422 416.633 276.311C453.655 164.829 567.063 69.1096 696.807 60.5656C753.129 56.6733 807.184 68.4916 860.437 83.3652C900.946 94.571 939.914 107.203 978.094 118.005C998.15 123.762 1018.53 128.91 1039.22 133.35C1095.44 145.397 1153.43 151.509 1212.96 143.781C1228.01 141.809 1243.11 139.081 1258.18 135.196C1293.51 126.086 1326.31 110.255 1354.52 88.933C1410.62 46.4681 1448.01 -18.4105 1448.58 -84.3363" stroke="#FE3F03" stroke-opacity="0.9" stroke-miterlimit="10"/>
<path d="M-116.689 656.73C-68.9051 659.953 -20.6839 662.542 27.4582 661.329C62.269 660.408 96.937 657.399 131.351 650.842C193.048 638.886 254.3 613.665 300.506 574.074C315.548 561.175 328.936 546.757 340.201 530.826C396.443 451.295 389.002 355.541 418.128 268.743C456.001 155.892 573.057 60.6883 704.105 52.6845C760.522 49.194 814.816 60.5315 867.965 75.9601C908.213 87.5463 947.196 101.236 985.734 113.545C1005.96 120.004 1026.69 126.131 1047.7 131.449C1104.97 145.903 1164.24 154.468 1223.91 147.343C1239.01 145.572 1254.2 142.718 1269.13 138.758C1304.51 129.321 1337.14 112.786 1365.16 90.6604C1420.7 46.8417 1457.28 -18.4816 1457.36 -84.5029" stroke="#FE3F03" stroke-opacity="0.9" stroke-miterlimit="10"/>
<path d="M-120.368 654.101C-36.9541 658.862 47.6201 663.56 130.32 647.48C213.02 631.4 295.053 591.708 341.182 526.032C397.876 445.439 389.617 348.712 419.379 261.126C458.238 146.981 578.807 52.2187 711.048 44.7814C809.9 39.3077 902.428 77.0329 993.153 109.137C1083.88 141.241 1184.16 168.536 1279.98 142.346C1385.8 113.256 1466.49 14.8857 1466.16 -84.5696" stroke="#FE3F03" stroke-opacity="0.9" stroke-miterlimit="10"/>
<path d="M1460.44 -81.9411C1459.56 10.4769 1388.05 100.945 1292.46 135.039C1286.18 137.271 1279.84 139.302 1273.41 140.93C1181.45 165.569 1085.44 141.401 997.659 111.784C994.607 110.809 991.642 109.707 988.589 108.732C898.373 77.7811 806.138 41.79 708.534 48.5599C577.907 57.8435 460.494 153.026 420.228 265.701C415.083 280.183 410.837 294.983 407.195 309.852C389.152 383.415 384.368 459.357 336.395 524.196C312.44 556.502 279.655 582.304 242.378 602.06C206.341 621.098 166.02 634.466 125.684 642.319C43.4772 658.495 -40.4055 655.224 -122.086 652.812" stroke="#FE3F03" stroke-opacity="0.9" stroke-miterlimit="10"/>
<path d="M1454.83 -79.3394C1452.8 12.1845 1380.84 100.744 1285.84 133.85C1279.66 136.055 1273.3 137.986 1266.87 139.615C1175.6 163.667 1080.4 139.944 993.098 111.379C990.046 110.404 987.104 109.403 984.052 108.428C894.321 78.5287 802.491 44.2454 706.047 52.4384C576.923 63.5946 462.689 159.298 421.103 270.375C415.689 284.709 411.371 299.208 407.435 313.828C387.897 386.048 380.553 459.625 331.611 522.359C307.172 553.613 274.306 578.585 237.109 597.686C201.176 616.169 161.117 629.156 120.94 637.184C39.2257 653.455 -43.8542 651.586 -123.826 651.422" stroke="#FE3F03" stroke-opacity="0.9" stroke-miterlimit="10"/>
<path d="M1449.1 -76.7115C1445.92 13.9185 1373.37 100.496 1279.09 132.687C1272.89 134.792 1266.65 136.696 1260.33 138.299C1169.71 161.664 1075.35 138.486 988.534 110.974C985.482 109.999 982.564 109.098 979.512 108.123C890.154 79.3026 798.73 46.7272 703.669 56.2905C576.046 69.3194 464.992 165.543 422.087 275.024C416.514 289.183 411.902 303.433 407.671 317.805C386.663 388.781 376.76 459.993 326.959 520.597C302.146 550.772 269.066 574.84 231.972 593.385C196.119 611.213 156.259 624.047 116.439 632.096C35.2179 648.463 -47.1945 647.922 -125.41 650.207" stroke="#FE3F03" stroke-opacity="0.9" stroke-miterlimit="10"/>
<path d="M1443.49 -74.1091C1439.16 15.6268 1366.15 100.295 1272.38 131.626C1266.29 133.704 1260.02 135.508 1253.7 137.11C1163.75 159.789 1070.21 137.156 983.861 110.596C980.832 109.721 977.891 108.72 974.974 107.819C886.125 80.1515 795.082 49.1834 701.181 60.1697C575.196 75.1454 467.298 171.79 422.875 279.826C417.118 293.71 412.236 307.812 407.688 321.835C385.185 391.468 372.746 460.415 322.063 518.787C296.765 547.91 263.606 571.148 226.703 589.012C190.953 606.284 151.355 618.738 111.782 626.835C31.0534 643.297 -50.5562 644.158 -127.063 648.691" stroke="#FE3F03" stroke-opacity="0.9" stroke-miterlimit="10"/>
<path d="M1437.77 -71.4818C1432.28 17.3601 1358.82 100.12 1265.64 130.462C1259.52 132.44 1253.36 134.218 1247.15 135.794C1157.86 157.786 1065.17 135.698 979.298 110.19C976.38 109.289 973.352 108.414 970.434 107.514C882.07 80.8984 791.344 51.765 698.692 64.0476C574.209 80.896 469.602 178.035 423.748 284.5C417.832 298.21 412.656 312.063 407.814 325.837C383.816 394.126 368.818 460.709 317.3 517.05C291.629 545.094 258.279 567.529 221.456 584.737C185.809 601.455 146.386 613.655 107.059 621.799C26.8234 638.357 -54.0947 640.646 -128.892 647.427" stroke="#FE3F03" stroke-opacity="0.9" stroke-miterlimit="10"/>
<path d="M1432.05 -68.8533C1425.41 19.0946 1351.47 99.8456 1258.9 129.3C1252.89 131.252 1246.71 132.929 1240.48 134.404C1151.85 155.709 1059.87 134.193 974.576 109.611C971.658 108.71 968.653 107.936 965.736 107.035C877.88 81.5724 787.425 54.0727 696.044 67.752C573.064 86.4731 471.636 184.133 424.463 289.001C418.388 302.536 413.029 316.114 407.892 329.64C382.425 396.685 364.867 460.903 312.491 515.114C286.335 542.105 252.993 563.583 216.161 580.263C180.618 596.425 141.37 608.371 102.377 616.437C22.5226 633.117 -57.4816 636.781 -130.546 645.911" stroke="#FE3F03" stroke-opacity="0.9" stroke-miterlimit="10"/>
<path d="M1426.43 -66.2514C1418.64 20.8025 1344.25 99.6448 1252.18 128.238C1246.15 130.089 1240.08 131.74 1233.85 133.216C1145.88 153.834 1054.71 132.762 969.926 109.332C967.032 108.532 964.027 107.758 961.11 106.857C873.628 82.4734 783.689 56.6553 693.469 71.7577C572.126 92.4256 473.853 190.505 425.273 293.903C419.04 307.264 413.386 320.594 407.956 333.87C380.994 399.572 360.9 461.526 307.642 513.505C281.001 539.444 247.579 560.091 210.963 576.19C175.522 591.797 136.537 603.363 97.7029 611.604C18.3653 628.48 -60.86 633.444 -132.327 644.849" stroke="#FE3F03" stroke-opacity="0.9" stroke-miterlimit="10"/>
<path d="M1420.71 -63.6239C1411.77 22.536 1336.79 99.3957 1245.44 127.075C1239.41 128.926 1233.43 130.45 1227.3 131.899C1139.99 151.831 1049.66 131.304 965.362 108.927C962.468 108.126 959.463 107.352 956.57 106.552C869.596 83.3211 779.951 59.2372 691.09 75.6095C571.249 98.1502 476.157 196.751 426.257 298.551C419.841 311.637 413.917 324.818 408.192 337.847C379.624 402.231 357.083 461.793 302.879 511.768C275.864 536.629 242.228 556.372 205.714 571.915C170.354 586.867 131.567 598.28 93.0908 606.542C14.246 623.514 -64.2878 629.906 -133.911 643.633" stroke="#FE3F03" stroke-opacity="0.9" stroke-miterlimit="10"/>
<path d="M1414.99 -60.9956C1404.92 24.3708 1329.46 99.2214 1238.72 126.013C1232.78 127.737 1226.82 129.361 1220.68 130.71C1134.02 149.955 1044.53 129.974 960.689 108.548C957.819 107.848 954.925 107.048 951.944 106.374C865.455 84.1959 776.104 61.8462 688.515 79.6152C570.176 104.029 478.375 203.124 427.044 303.354C420.469 316.265 414.251 329.197 408.209 341.876C378.17 405.018 353.069 462.215 297.982 509.958C270.483 533.766 236.768 552.68 200.334 567.568C165.076 581.965 126.552 592.997 88.3221 601.307C9.97011 618.374 -67.7849 626.068 -135.786 642.17" stroke="#FE3F03" stroke-opacity="0.9" stroke-miterlimit="10"/>
<path d="M1409.4 -58.2929C1398.15 26.079 1322.24 99.0209 1232.01 124.951C1226.07 126.676 1220.19 128.173 1214.14 129.395C1128.17 148.054 1039.48 128.517 956.127 108.144C953.257 107.444 950.388 106.744 947.518 106.044C861.538 85.0181 772.544 64.1754 686.139 83.468C569.366 109.527 480.792 209.344 428.031 308.003C421.185 320.766 414.896 333.397 408.448 345.854C376.915 407.651 349.389 462.558 293.333 508.196C265.46 530.926 231.642 548.908 195.311 563.241C160.157 577.084 121.808 587.862 83.824 596.22C5.96483 613.382 -71.0987 622.504 -137.256 640.929" stroke="#FE3F03" stroke-opacity="0.9" stroke-miterlimit="10"/>
<path d="M1403.68 -55.6642C1391.27 27.8137 1314.91 98.8469 1225.26 123.789C1219.41 125.387 1213.43 126.91 1207.48 128.106C1122.17 146.078 1034.32 127.086 951.428 107.665C948.559 106.965 945.713 106.365 942.843 105.665C857.347 85.6923 768.648 66.5839 683.515 87.2733C568.268 115.305 482.85 215.543 428.793 312.705C421.764 325.193 415.205 337.676 408.574 349.858C375.546 410.311 345.461 462.853 288.547 506.36C260.189 528.037 226.291 545.19 190.04 558.868C154.989 572.155 116.79 582.579 79.1646 590.958C1.79822 608.217 -74.4625 618.74 -139.022 639.439" stroke="#FE3F03" stroke-opacity="0.9" stroke-miterlimit="10"/>
<path d="M1397.95 -53.0366C1384.4 29.5472 1307.56 98.5713 1218.52 122.626C1212.67 124.223 1206.77 125.62 1200.83 126.816C1116.18 144.101 1029.14 125.554 946.755 107.286C943.909 106.686 941.039 105.986 938.193 105.387C853.071 86.4922 764.777 69.0917 681.027 91.1515C567.282 121.056 485.155 221.788 429.667 317.379C422.48 329.693 415.626 341.927 408.701 353.86C374.203 413.071 341.558 463.247 283.785 504.623C254.943 525.248 220.941 541.47 184.793 554.593C149.711 567.251 111.934 577.47 74.4431 585.923C-2.43049 603.277 -77.9998 615.228 -140.716 638.25" stroke="#FE3F03" stroke-opacity="0.9" stroke-miterlimit="10"/>
<path d="M1392.34 -50.4346C1377.63 31.2551 1300.23 98.3967 1211.81 121.563C1206.04 123.034 1200.14 124.431 1194.31 125.6C1110.32 142.199 1024.01 124.223 942.215 106.981C939.369 106.381 936.523 105.782 933.677 105.182C849.064 87.4408 761.175 71.7482 678.561 95.1306C566.43 126.882 487.483 228.134 430.564 322.154C423.218 334.293 416.07 346.279 408.851 357.963C372.858 415.83 337.678 463.742 279.023 502.887C249.806 522.432 215.614 537.851 179.657 550.292C144.678 562.394 107.052 572.259 69.9192 580.733C-6.46149 598.183 -81.2281 611.536 -142.346 636.833" stroke="#FFA200" stroke-miterlimit="10"/>
<path d="M1386.61 -47.8061C1370.76 32.9893 1292.9 98.2221 1205.06 120.401C1199.3 121.871 1193.49 123.141 1187.65 124.311C1104.33 140.222 1018.85 122.792 937.515 106.501C934.669 105.902 931.847 105.403 929.001 104.803C844.873 88.1143 757.278 74.1562 675.936 98.9353C565.307 132.559 489.563 234.433 431.19 326.781C423.685 338.746 416.354 350.456 408.706 361.818C371.219 418.341 333.502 463.988 273.878 501.028C244.177 519.521 209.881 534.009 174.051 545.995C139.176 557.543 101.836 567.128 64.9493 575.65C-10.9386 593.195 -85.0136 607.976 -144.399 635.621" stroke="#FFA200" stroke-miterlimit="10"/>
<path d="M1380.89 -45.1788C1363.88 34.7224 1285.55 97.9459 1198.35 119.337C1192.67 120.681 1186.86 121.951 1181.11 122.994C1098.45 138.218 1013.8 121.333 932.955 106.095C930.133 105.596 927.311 105.097 924.576 104.471C840.956 88.9351 753.631 76.6108 673.561 102.787C564.459 138.384 491.982 240.651 432.202 331.529C424.514 343.218 416.913 354.781 409.082 365.867C370.124 421.147 329.824 464.328 269.341 499.237C239.155 516.678 204.892 530.309 169.03 541.666C134.258 552.659 97.093 561.99 60.4528 570.56C-14.9422 588.201 -88.2385 604.283 -145.891 634.277" stroke="#FFA200" stroke-miterlimit="10"/>
<path d="M1375.28 -42.5766C1357.12 36.4304 1278.33 97.7451 1191.61 118.174C1185.93 119.519 1180.21 120.662 1174.46 121.704C1092.45 136.242 1008.64 119.902 928.256 105.616C925.434 105.117 922.723 104.592 919.925 104.193C836.678 89.7357 749.894 79.1934 670.96 106.692C563.471 144.136 494.174 246.924 432.963 336.23C425.116 347.745 417.221 359.059 409.096 369.897C368.644 423.832 325.809 464.749 264.467 497.526C233.908 513.889 199.453 526.716 163.783 537.391C129.09 547.729 92.0999 556.806 55.8175 565.397C-19.0847 583.134 -91.5781 600.618 -147.633 632.886" stroke="#FFA200" stroke-miterlimit="10"/>
<path d="M1369.56 -39.948C1350.13 38.1912 1270.89 97.597 1184.89 117.112C1179.3 118.329 1173.58 119.473 1167.94 120.489C1086.59 134.34 1003.62 118.545 923.719 105.311C920.921 104.913 918.21 104.387 915.412 103.989C832.674 90.6845 746.16 81.7761 668.609 110.645C562.646 150.062 496.505 253.27 433.975 340.979C425.969 352.319 417.78 363.385 409.36 373.974C367.438 426.666 322.043 465.218 259.819 495.763C228.774 511.073 194.217 522.97 158.65 533.09C124.06 542.872 87.3564 551.67 51.3204 560.309C-23.2003 578.167 -94.8908 597.053 -149.102 631.644" stroke="#FFA200" stroke-miterlimit="10"/>
<path d="M1363.83 -37.3199C1343.25 39.925 1263.54 97.3215 1178.15 115.949C1172.56 117.166 1166.95 118.283 1161.29 119.199C1080.49 132.389 998.433 117.013 919.042 104.932C916.244 104.534 913.557 104.109 910.758 103.71C828.505 91.4581 742.285 84.2841 666.006 114.55C561.546 155.84 498.696 259.542 434.734 345.68C426.434 356.771 418.198 367.636 409.373 378.002C365.956 429.351 318.001 465.537 254.943 494.052C223.525 508.283 188.777 519.376 153.289 528.841C118.803 538.068 82.2501 546.511 46.4605 555.198C-27.5435 573.253 -98.4552 593.44 -151.068 630.305" stroke="#FFA200" stroke-miterlimit="10"/>
<path d="M1358.22 -34.7177C1336.49 41.633 1256.32 97.1205 1171.41 114.786C1165.82 116.003 1160.29 116.993 1154.61 117.809C1074.49 130.413 993.249 115.481 914.319 104.352C911.521 103.954 908.858 103.629 906.059 103.231C824.315 92.1317 738.5 86.6657 663.358 118.254C560.535 161.491 500.841 265.613 435.472 350.281C427.013 361.197 418.482 371.813 409.451 381.804C364.54 431.808 314.049 465.731 250.132 492.114C218.23 505.293 183.489 515.429 148.105 524.338C113.723 533.011 77.4561 541.174 41.9128 549.909C-31.5983 568.058 -101.819 589.674 -152.588 628.861" stroke="#FFA200" stroke-miterlimit="10"/>
<path d="M1352.49 -32.0893C1329.61 43.3671 1248.96 96.8454 1164.69 113.724C1159.19 114.814 1153.66 115.804 1148.09 116.593C1068.63 128.51 988.225 114.124 909.779 104.048C907.116 103.723 904.318 103.325 901.655 103C820.395 92.9535 734.922 89.4229 660.98 122.107C559.707 167.417 503.145 271.859 436.457 354.929C427.839 365.671 419.014 376.038 409.688 385.781C363.307 434.541 310.257 466.098 245.346 490.276C212.959 502.403 178.139 511.709 142.834 519.963C108.555 528.08 72.4397 535.889 37.1429 544.671C-35.8754 562.917 -105.293 585.934 -154.464 627.396" stroke="#FFA200" stroke-miterlimit="10"/>
<path d="M1346.89 -29.4869C1322.85 45.0753 1241.75 96.6447 1158.06 112.535C1152.56 113.625 1147.12 114.488 1141.55 115.277C1062.75 126.508 983.069 112.693 905.22 103.643C902.557 103.318 899.783 103.02 897.119 102.696C816.233 93.7279 731.277 91.8789 658.607 125.959C558.947 173.116 505.565 278.079 437.446 359.578C428.645 370.045 419.55 380.263 409.93 389.757C362.054 437.174 306.444 466.366 240.7 488.513C207.939 499.561 172.904 507.963 137.727 515.762C103.527 523.223 67.6102 530.879 32.6711 539.683C-39.8543 558.024 -108.604 582.369 -155.908 626.254" stroke="#FFA200" stroke-miterlimit="10"/>
<path d="M1341.16 -26.859C1315.97 46.809 1234.28 96.3953 1151.21 111.398C1145.79 112.361 1140.36 113.224 1134.9 113.987C1056.76 124.531 977.907 111.261 900.519 103.163C897.856 102.838 895.105 102.641 892.442 102.316C812.065 94.5013 727.378 94.2862 655.98 129.763C557.823 178.793 507.62 284.277 438.206 364.278C429.246 374.571 419.968 384.514 409.943 393.786C360.572 439.859 302.427 466.786 235.8 486.701C202.53 496.596 167.44 504.268 132.453 511.385C98.357 518.292 62.7026 525.567 28.0338 534.52C-43.9988 552.956 -111.946 578.702 -157.652 624.862" stroke="#FFA200" stroke-miterlimit="10"/>
<path d="M1335.46 -24.1296C1309.12 48.6442 1226.98 96.3216 1144.51 110.436C1139.1 111.4 1133.75 112.136 1128.29 112.899C1050.81 122.756 972.796 110.031 895.892 102.985C893.253 102.761 890.614 102.537 887.839 102.239C807.947 95.4767 723.689 97.0702 653.428 133.87C556.908 184.847 509.862 290.75 439.016 369.18C429.897 379.299 420.302 388.893 410.117 397.99C359.165 442.846 298.571 467.381 231.086 485.165C197.331 494.007 162.249 500.723 127.255 507.311C93.2618 513.663 57.7822 520.685 23.336 529.584C-48.2037 548.116 -115.459 575.291 -159.321 623.773" stroke="#FFA200" stroke-miterlimit="10"/>
<path d="M1329.85 -21.5277C1302.35 50.3518 1219.76 96.1203 1137.89 109.247C1132.56 110.083 1127.21 110.82 1121.72 111.482C1044.91 120.652 967.702 108.372 891.284 102.379C888.644 102.155 886.005 101.931 883.278 101.834C803.894 96.2241 719.907 99.4515 650.917 137.648C555.9 190.498 512.144 296.895 439.757 373.781C430.479 383.724 420.589 393.07 410.087 401.818C357.64 445.33 294.487 467.5 226.143 483.153C192.015 490.916 156.742 496.828 121.827 502.761C87.9376 508.557 52.7442 515.299 18.5444 524.246C-52.5024 542.874 -118.955 571.45 -161.219 622.207" stroke="#FFA200" stroke-miterlimit="10"/>
<path d="M1324.12 -18.8983C1295.47 52.0869 1212.41 95.846 1131.06 108.211C1125.73 109.048 1120.36 109.684 1115.09 110.294C1038.94 118.777 962.565 107.042 886.52 102.127C883.905 102.004 881.265 101.78 878.65 101.656C799.64 97.1259 716.057 102.061 648.451 141.628C554.936 196.351 514.36 303.269 440.653 378.557C431.192 388.225 421.032 397.423 410.236 405.922C356.294 448.09 290.605 467.996 221.403 481.517C186.79 488.228 151.414 493.209 116.714 498.56C82.904 503.701 47.8855 510.19 13.9321 519.185C-56.6219 537.908 -122.383 567.912 -162.803 620.991" stroke="#FFA200" stroke-miterlimit="10"/>
<path d="M1318.4 -16.2695C1288.6 53.8214 1204.96 95.6979 1124.31 107.049C1043.66 118.4 962.636 105.858 881.956 101.722C801.141 97.513 714.554 103.16 645.961 145.507C542.15 209.353 507.885 337.911 410.361 409.925C327.331 471.184 215.416 480.07 111.466 494.285C7.51625 508.501 -107.087 537.76 -164.522 619.701" stroke="#FFA200" stroke-miterlimit="10"/>
</svg>
